%TF.GenerationSoftware,KiCad,Pcbnew,(5.1.10)-1*%
%TF.CreationDate,2021-10-08T21:32:13-04:00*%
%TF.ProjectId,mino_base,6d696e6f-5f62-4617-9365-2e6b69636164,rev?*%
%TF.SameCoordinates,Original*%
%TF.FileFunction,Legend,Top*%
%TF.FilePolarity,Positive*%
%FSLAX46Y46*%
G04 Gerber Fmt 4.6, Leading zero omitted, Abs format (unit mm)*
G04 Created by KiCad (PCBNEW (5.1.10)-1) date 2021-10-08 21:32:13*
%MOMM*%
%LPD*%
G01*
G04 APERTURE LIST*
%ADD10C,0.200000*%
G04 APERTURE END LIST*
D10*
X170239790Y-103995700D02*
X173591690Y-107265000D01*
X170239790Y-83160200D02*
X173591690Y-80400100D01*
X149118890Y-83160200D02*
X149118890Y-83160200D01*
X170239890Y-83160200D02*
X170239890Y-103995700D01*
X149118890Y-83160200D02*
X170239890Y-83160200D01*
X173591690Y-80400100D02*
X173591690Y-107265000D01*
X149118890Y-131631030D02*
X146358890Y-134900346D01*
X173591690Y-134900346D02*
X146358890Y-134900346D01*
X170239790Y-110795700D02*
X173591690Y-108035500D01*
X170239890Y-110795500D02*
X170239890Y-131631030D01*
X146358890Y-80400100D02*
X149118890Y-83160200D01*
X149118890Y-110795500D02*
X170239890Y-110795500D01*
X146358890Y-108035500D02*
X173591690Y-108035500D01*
X173591690Y-108035500D02*
X173591690Y-134900346D01*
X177023590Y-110826600D02*
X177023590Y-110826600D01*
X198144490Y-110826600D02*
X198144490Y-131662070D01*
X149118890Y-110795500D02*
X149118890Y-110795500D01*
X177023590Y-131662070D02*
X177023590Y-110826600D01*
X177023590Y-110826600D02*
X198144490Y-110826600D01*
X146358890Y-80400100D02*
X146358890Y-80400100D01*
X198144490Y-131662070D02*
X177023590Y-131662070D01*
X174263490Y-108066600D02*
X174263490Y-108066600D01*
X174263490Y-134931378D02*
X174263490Y-108066600D01*
X201496290Y-134931378D02*
X174263490Y-134931378D01*
X201496290Y-108066600D02*
X201496290Y-134931378D01*
X174263490Y-108066600D02*
X201496290Y-108066600D01*
X170239790Y-131631030D02*
X173591690Y-134900346D01*
X146358890Y-108035500D02*
X149118890Y-110795700D01*
X149118890Y-131631030D02*
X149118890Y-110795500D01*
X149118890Y-103995700D02*
X149118890Y-83160200D01*
X173591690Y-107265000D02*
X146358890Y-107265000D01*
X170239890Y-131631030D02*
X149118890Y-131631030D01*
X170239890Y-103995700D02*
X149118890Y-103995700D01*
X146358890Y-80400100D02*
X173591690Y-80400100D01*
X146358890Y-108035500D02*
X146358890Y-108035500D01*
X146358890Y-107265000D02*
X146358890Y-80400100D01*
X146358890Y-134900346D02*
X146358890Y-108035500D01*
X149118890Y-103995700D02*
X146358890Y-107265000D01*
X121920000Y-131864900D02*
X121920000Y-110744000D01*
X198144490Y-110826600D02*
X201496290Y-108066600D01*
X145515590Y-107983800D02*
X145515590Y-107983800D01*
X142755490Y-131864900D02*
X121920000Y-131864900D01*
X121920000Y-110744000D02*
X118650741Y-107983800D01*
X174263490Y-108066600D02*
X177023590Y-110826600D01*
X118650741Y-135216737D02*
X118650741Y-107983800D01*
X198144490Y-131662070D02*
X201496290Y-134931378D01*
X121920000Y-131864850D02*
X118650741Y-135216737D01*
X145515590Y-135216737D02*
X118650741Y-135216737D01*
X142755490Y-131864850D02*
X145515590Y-135216737D01*
X145515590Y-107983800D02*
X142755490Y-110744000D01*
X142755490Y-110744000D02*
X142755490Y-110744000D01*
X177023590Y-131662070D02*
X174263490Y-134931378D01*
X142755490Y-110744000D02*
X142755490Y-131864900D01*
X118650741Y-107983800D02*
X145515590Y-107983800D01*
X145515590Y-107983800D02*
X145515590Y-135216737D01*
X121920000Y-110744000D02*
X142755490Y-110744000D01*
M02*
