  0
SECTION
  2
HEADER
  9
$ACADVER
  1
AC1009
  9
$FILLMODE
 70
 0
  9
$SPLFRAME
 70
 1
  9
$EXTMIN
 10
0
 20
0
 30
0.0
  9
$EXTMAX
 10
41.6667
 20
41.6667
 30
0.0
  0
ENDSEC
  0
SECTION
  2
TABLES
  0
TABLE
  2
LAYER
 70
1
  0
LAYER
  2
0
 70
     0
 62
     7
  6
CONTINUOUS
  0
ENDTAB
  0
ENDSEC
  0
SECTION
  2
ENTITIES
  0
POLYLINE
  8
0
 62
     0
 66
     1
 10
0
 20
0
 30
0.0
 70
     1
 40
10.8525
 41
10.8525
  0
VERTEX
  8
0
 10
27.844
 20
54.7114
 30
0.0
 40
0.150729
 41
0.150729
  0
VERTEX
  8
0
 10
55.0768
 20
54.7114
 30
0.0
 40
0.150729
 41
0.150729
  0
VERTEX
  8
0
 10
55.0768
 20
27.8465
 30
0.0
 40
0.150729
 41
0.150729
  0
VERTEX
  8
0
 10
27.844
 20
27.8465
 30
0.0
 40
0.150729
 41
0.150729
  0
VERTEX
  8
0
 10
27.844
 20
54.7114
 30
0.0
 40
0.150729
 41
0.150729
  0
SEQEND
 8
0
  0
POLYLINE
  8
0
 62
     0
 66
     1
 10
0
 20
0
 30
0.0
 70
     1
 40
10.8541
 41
10.8541
  0
VERTEX
  8
0
 10
30.604
 20
51.9513
 30
0.0
 40
0.150751
 41
0.150751
  0
VERTEX
  8
0
 10
51.725
 20
51.9513
 30
0.0
 40
0.150751
 41
0.150751
  0
VERTEX
  8
0
 10
51.725
 20
31.1158
 30
0.0
 40
0.150751
 41
0.150751
  0
VERTEX
  8
0
 10
30.604
 20
31.1158
 30
0.0
 40
0.150751
 41
0.150751
  0
VERTEX
  8
0
 10
30.604
 20
51.9513
 30
0.0
 40
0.150751
 41
0.150751
  0
SEQEND
 8
0
  0
POLYLINE
  8
0
 62
     0
 66
     1
 10
0
 20
0
 30
0.0
 40
10.8525
 41
10.8525
  0
VERTEX
  8
0
 10
27.844
 20
54.7114
 30
0.0
 40
0.150729
 41
0.150729
  0
VERTEX
  8
0
 10
30.604
 20
51.9513
 30
0.0
 40
0.150729
 41
0.150729
  0
SEQEND
 8
0
  0
POLYLINE
  8
0
 62
     0
 66
     1
 10
0
 20
0
 30
0.0
 40
10.8525
 41
10.8525
  0
VERTEX
  8
0
 10
51.7249
 20
51.9513
 30
0.0
 40
0.150729
 41
0.150729
  0
VERTEX
  8
0
 10
55.0768
 20
54.7114
 30
0.0
 40
0.150729
 41
0.150729
  0
SEQEND
 8
0
  0
POLYLINE
  8
0
 62
     0
 66
     1
 10
0
 20
0
 30
0.0
 40
10.8525
 41
10.8525
  0
VERTEX
  8
0
 10
51.7249
 20
31.1158
 30
0.0
 40
0.150729
 41
0.150729
  0
VERTEX
  8
0
 10
55.0768
 20
27.8465
 30
0.0
 40
0.150729
 41
0.150729
  0
SEQEND
 8
0
  0
POLYLINE
  8
0
 62
     0
 66
     1
 10
0
 20
0
 30
0.0
 40
10.8525
 41
10.8525
  0
VERTEX
  8
0
 10
30.604
 20
31.1158
 30
0.0
 40
0.150729
 41
0.150729
  0
VERTEX
  8
0
 10
27.844
 20
27.8465
 30
0.0
 40
0.150729
 41
0.150729
  0
SEQEND
 8
0
  0
POLYLINE
  8
0
 62
     0
 66
     1
 10
0
 20
0
 30
0.0
 70
     1
 40
10.8525
 41
10.8525
  0
VERTEX
  8
0
 10
27.844
 20
27.076
 30
0.0
 40
0.150729
 41
0.150729
  0
VERTEX
  8
0
 10
55.0768
 20
27.076
 30
0.0
 40
0.150729
 41
0.150729
  0
VERTEX
  8
0
 10
55.0768
 20
0.211154
 30
0.0
 40
0.150729
 41
0.150729
  0
VERTEX
  8
0
 10
27.844
 20
0.211154
 30
0.0
 40
0.150729
 41
0.150729
  0
VERTEX
  8
0
 10
27.844
 20
27.076
 30
0.0
 40
0.150729
 41
0.150729
  0
SEQEND
 8
0
  0
POLYLINE
  8
0
 62
     0
 66
     1
 10
0
 20
0
 30
0.0
 70
     1
 40
10.8541
 41
10.8541
  0
VERTEX
  8
0
 10
30.604
 20
24.316
 30
0.0
 40
0.150751
 41
0.150751
  0
VERTEX
  8
0
 10
51.725
 20
24.316
 30
0.0
 40
0.150751
 41
0.150751
  0
VERTEX
  8
0
 10
51.725
 20
3.48047
 30
0.0
 40
0.150751
 41
0.150751
  0
VERTEX
  8
0
 10
30.604
 20
3.48047
 30
0.0
 40
0.150751
 41
0.150751
  0
VERTEX
  8
0
 10
30.604
 20
24.316
 30
0.0
 40
0.150751
 41
0.150751
  0
SEQEND
 8
0
  0
POLYLINE
  8
0
 62
     0
 66
     1
 10
0
 20
0
 30
0.0
 40
10.8525
 41
10.8525
  0
VERTEX
  8
0
 10
27.844
 20
27.076
 30
0.0
 40
0.150729
 41
0.150729
  0
VERTEX
  8
0
 10
30.604
 20
24.3158
 30
0.0
 40
0.150729
 41
0.150729
  0
SEQEND
 8
0
  0
POLYLINE
  8
0
 62
     0
 66
     1
 10
0
 20
0
 30
0.0
 40
10.8525
 41
10.8525
  0
VERTEX
  8
0
 10
51.7249
 20
24.3158
 30
0.0
 40
0.150729
 41
0.150729
  0
VERTEX
  8
0
 10
55.0768
 20
27.076
 30
0.0
 40
0.150729
 41
0.150729
  0
SEQEND
 8
0
  0
POLYLINE
  8
0
 62
     0
 66
     1
 10
0
 20
0
 30
0.0
 40
10.8525
 41
10.8525
  0
VERTEX
  8
0
 10
51.7249
 20
3.48047
 30
0.0
 40
0.150729
 41
0.150729
  0
VERTEX
  8
0
 10
55.0768
 20
0.211154
 30
0.0
 40
0.150729
 41
0.150729
  0
SEQEND
 8
0
  0
POLYLINE
  8
0
 62
     0
 66
     1
 10
0
 20
0
 30
0.0
 40
10.8525
 41
10.8525
  0
VERTEX
  8
0
 10
30.604
 20
3.48047
 30
0.0
 40
0.150729
 41
0.150729
  0
VERTEX
  8
0
 10
27.844
 20
0.211154
 30
0.0
 40
0.150729
 41
0.150729
  0
SEQEND
 8
0
  0
POLYLINE
  8
0
 62
     0
 66
     1
 10
0
 20
0
 30
0.0
 70
     1
 40
10.8525
 41
10.8525
  0
VERTEX
  8
0
 10
55.7486
 20
27.0449
 30
0.0
 40
0.150729
 41
0.150729
  0
VERTEX
  8
0
 10
82.9814
 20
27.0449
 30
0.0
 40
0.150729
 41
0.150729
  0
VERTEX
  8
0
 10
82.9814
 20
0.180122
 30
0.0
 40
0.150729
 41
0.150729
  0
VERTEX
  8
0
 10
55.7486
 20
0.180122
 30
0.0
 40
0.150729
 41
0.150729
  0
VERTEX
  8
0
 10
55.7486
 20
27.0449
 30
0.0
 40
0.150729
 41
0.150729
  0
SEQEND
 8
0
  0
POLYLINE
  8
0
 62
     0
 66
     1
 10
0
 20
0
 30
0.0
 70
     1
 40
10.8541
 41
10.8541
  0
VERTEX
  8
0
 10
58.5087
 20
24.2849
 30
0.0
 40
0.150751
 41
0.150751
  0
VERTEX
  8
0
 10
79.6296
 20
24.2849
 30
0.0
 40
0.150751
 41
0.150751
  0
VERTEX
  8
0
 10
79.6296
 20
3.44943
 30
0.0
 40
0.150751
 41
0.150751
  0
VERTEX
  8
0
 10
58.5087
 20
3.44943
 30
0.0
 40
0.150751
 41
0.150751
  0
VERTEX
  8
0
 10
58.5087
 20
24.2849
 30
0.0
 40
0.150751
 41
0.150751
  0
SEQEND
 8
0
  0
POLYLINE
  8
0
 62
     0
 66
     1
 10
0
 20
0
 30
0.0
 40
10.8525
 41
10.8525
  0
VERTEX
  8
0
 10
55.7486
 20
27.0449
 30
0.0
 40
0.150729
 41
0.150729
  0
VERTEX
  8
0
 10
58.5087
 20
24.2849
 30
0.0
 40
0.150729
 41
0.150729
  0
SEQEND
 8
0
  0
POLYLINE
  8
0
 62
     0
 66
     1
 10
0
 20
0
 30
0.0
 40
10.8525
 41
10.8525
  0
VERTEX
  8
0
 10
79.6296
 20
24.2849
 30
0.0
 40
0.150729
 41
0.150729
  0
VERTEX
  8
0
 10
82.9814
 20
27.0449
 30
0.0
 40
0.150729
 41
0.150729
  0
SEQEND
 8
0
  0
POLYLINE
  8
0
 62
     0
 66
     1
 10
0
 20
0
 30
0.0
 40
10.8525
 41
10.8525
  0
VERTEX
  8
0
 10
79.6296
 20
3.44943
 30
0.0
 40
0.150729
 41
0.150729
  0
VERTEX
  8
0
 10
82.9814
 20
0.180122
 30
0.0
 40
0.150729
 41
0.150729
  0
SEQEND
 8
0
  0
POLYLINE
  8
0
 62
     0
 66
     1
 10
0
 20
0
 30
0.0
 40
10.8525
 41
10.8525
  0
VERTEX
  8
0
 10
58.5087
 20
3.44943
 30
0.0
 40
0.150729
 41
0.150729
  0
VERTEX
  8
0
 10
55.7486
 20
0.180122
 30
0.0
 40
0.150729
 41
0.150729
  0
SEQEND
 8
0
  0
POLYLINE
  8
0
 62
     0
 66
     1
 10
0
 20
0
 30
0.0
 70
     1
 40
10.8525
 41
10.8525
  0
VERTEX
  8
0
 10
27.0007
 20
27.3817
 30
0.0
 40
0.150729
 41
0.150729
  0
VERTEX
  8
0
 10
27.0007
 20
0.148763
 30
0.0
 40
0.150729
 41
0.150729
  0
VERTEX
  8
0
 10
0.135851
 20
0.148763
 30
0.0
 40
0.150729
 41
0.150729
  0
VERTEX
  8
0
 10
0.135851
 20
27.3817
 30
0.0
 40
0.150729
 41
0.150729
  0
VERTEX
  8
0
 10
27.0007
 20
27.3817
 30
0.0
 40
0.150729
 41
0.150729
  0
SEQEND
 8
0
  0
POLYLINE
  8
0
 62
     0
 66
     1
 10
0
 20
0
 30
0.0
 70
     1
 40
10.8541
 41
10.8541
  0
VERTEX
  8
0
 10
24.2406
 20
24.6215
 30
0.0
 40
0.150751
 41
0.150751
  0
VERTEX
  8
0
 10
24.2406
 20
3.5006
 30
0.0
 40
0.150751
 41
0.150751
  0
VERTEX
  8
0
 10
3.40511
 20
3.5006
 30
0.0
 40
0.150751
 41
0.150751
  0
VERTEX
  8
0
 10
3.40511
 20
24.6215
 30
0.0
 40
0.150751
 41
0.150751
  0
VERTEX
  8
0
 10
24.2406
 20
24.6215
 30
0.0
 40
0.150751
 41
0.150751
  0
SEQEND
 8
0
  0
POLYLINE
  8
0
 62
     0
 66
     1
 10
0
 20
0
 30
0.0
 40
10.8525
 41
10.8525
  0
VERTEX
  8
0
 10
27.0007
 20
27.3817
 30
0.0
 40
0.150729
 41
0.150729
  0
VERTEX
  8
0
 10
24.2406
 20
24.6215
 30
0.0
 40
0.150729
 41
0.150729
  0
SEQEND
 8
0
  0
POLYLINE
  8
0
 62
     0
 66
     1
 10
0
 20
0
 30
0.0
 40
10.8525
 41
10.8525
  0
VERTEX
  8
0
 10
24.2406
 20
3.50065
 30
0.0
 40
0.150729
 41
0.150729
  0
VERTEX
  8
0
 10
27.0007
 20
0.148763
 30
0.0
 40
0.150729
 41
0.150729
  0
SEQEND
 8
0
  0
POLYLINE
  8
0
 62
     0
 66
     1
 10
0
 20
0
 30
0.0
 40
10.8525
 41
10.8525
  0
VERTEX
  8
0
 10
3.40511
 20
3.50065
 30
0.0
 40
0.150729
 41
0.150729
  0
VERTEX
  8
0
 10
0.135851
 20
0.148763
 30
0.0
 40
0.150729
 41
0.150729
  0
SEQEND
 8
0
  0
POLYLINE
  8
0
 62
     0
 66
     1
 10
0
 20
0
 30
0.0
 40
10.8525
 41
10.8525
  0
VERTEX
  8
0
 10
3.40511
 20
24.6215
 30
0.0
 40
0.150729
 41
0.150729
  0
VERTEX
  8
0
 10
0.135851
 20
27.3817
 30
0.0
 40
0.150729
 41
0.150729
  0
SEQEND
 8
0
  0
ENDSEC
  0
EOF
