%TF.GenerationSoftware,KiCad,Pcbnew,(5.1.10)-1*%
%TF.CreationDate,2021-10-08T21:35:03-04:00*%
%TF.ProjectId,mino_board,6d696e6f-5f62-46f6-9172-642e6b696361,rev?*%
%TF.SameCoordinates,Original*%
%TF.FileFunction,Paste,Bot*%
%TF.FilePolarity,Positive*%
%FSLAX46Y46*%
G04 Gerber Fmt 4.6, Leading zero omitted, Abs format (unit mm)*
G04 Created by KiCad (PCBNEW (5.1.10)-1) date 2021-10-08 21:35:03*
%MOMM*%
%LPD*%
G01*
G04 APERTURE LIST*
%ADD10C,0.100000*%
%ADD11R,2.600000X2.600000*%
G04 APERTURE END LIST*
D10*
%TO.C,L2*%
G36*
X267055527Y-88294238D02*
G01*
X265755527Y-86042572D01*
X268007193Y-84742572D01*
X269307193Y-86994238D01*
X267055527Y-88294238D01*
G37*
G36*
X255952934Y-92163982D02*
G01*
X254652934Y-89912316D01*
X256904600Y-88612316D01*
X258204600Y-90863982D01*
X255952934Y-92163982D01*
G37*
%TD*%
%TO.C,R2*%
G36*
X257657527Y-71793938D02*
G01*
X256357527Y-69542272D01*
X258609193Y-68242272D01*
X259909193Y-70493938D01*
X257657527Y-71793938D01*
G37*
G36*
X246554934Y-75663682D02*
G01*
X245254934Y-73412016D01*
X247506600Y-72112016D01*
X248806600Y-74363682D01*
X246554934Y-75663682D01*
G37*
%TD*%
%TO.C,LEFT1*%
G36*
X66066527Y-84931738D02*
G01*
X67366527Y-82680072D01*
X69618193Y-83980072D01*
X68318193Y-86231738D01*
X66066527Y-84931738D01*
G37*
G36*
X57163934Y-77251482D02*
G01*
X58463934Y-74999816D01*
X60715600Y-76299816D01*
X59415600Y-78551482D01*
X57163934Y-77251482D01*
G37*
%TD*%
%TO.C,DOWN1*%
G36*
X82576527Y-94461638D02*
G01*
X83876527Y-92209972D01*
X86128193Y-93509972D01*
X84828193Y-95761638D01*
X82576527Y-94461638D01*
G37*
G36*
X73673934Y-86781382D02*
G01*
X74973934Y-84529716D01*
X77225600Y-85829716D01*
X75925600Y-88081382D01*
X73673934Y-86781382D01*
G37*
%TD*%
%TO.C,RIGHT1*%
G36*
X99203727Y-103986738D02*
G01*
X100503727Y-101735072D01*
X102755393Y-103035072D01*
X101455393Y-105286738D01*
X99203727Y-103986738D01*
G37*
G36*
X90301134Y-96306482D02*
G01*
X91601134Y-94054816D01*
X93852800Y-95354816D01*
X92552800Y-97606482D01*
X90301134Y-96306482D01*
G37*
%TD*%
%TO.C,UP1*%
G36*
X83261834Y-70183482D02*
G01*
X84561834Y-67931816D01*
X86813500Y-69231816D01*
X85513500Y-71483482D01*
X83261834Y-70183482D01*
G37*
G36*
X92164427Y-77863738D02*
G01*
X93464427Y-75612072D01*
X95716093Y-76912072D01*
X94416093Y-79163738D01*
X92164427Y-77863738D01*
G37*
%TD*%
%TO.C,UP3*%
G36*
X199246384Y-144158647D02*
G01*
X197575136Y-142166931D01*
X199566852Y-140495683D01*
X201238100Y-142487399D01*
X199246384Y-144158647D01*
G37*
G36*
X209508330Y-138419748D02*
G01*
X207837082Y-136428032D01*
X209828798Y-134756784D01*
X211500046Y-136748500D01*
X209508330Y-138419748D01*
G37*
%TD*%
D11*
%TO.C,HOME1*%
X154325000Y-92770000D03*
X142775000Y-90570000D03*
%TD*%
%TO.C,R3*%
X173375000Y-111820000D03*
X161825000Y-109620000D03*
%TD*%
%TO.C,L3*%
X135275000Y-111820000D03*
X123725000Y-109620000D03*
%TD*%
%TO.C,START1*%
X161825000Y-90570000D03*
X173375000Y-92770000D03*
%TD*%
%TO.C,RIGHT2*%
X234335000Y-130870000D03*
X222785000Y-128670000D03*
%TD*%
%TO.C,SELECT1*%
X123725000Y-90570000D03*
X135275000Y-92770000D03*
%TD*%
%TO.C,LEFT2*%
X72925000Y-128670000D03*
X84475000Y-130870000D03*
%TD*%
D10*
%TO.C,UP2*%
G36*
X103437989Y-147386635D02*
G01*
X105109237Y-145394919D01*
X107100953Y-147066167D01*
X105429705Y-149057883D01*
X103437989Y-147386635D01*
G37*
G36*
X96004309Y-138277140D02*
G01*
X97675557Y-136285424D01*
X99667273Y-137956672D01*
X97996025Y-139948388D01*
X96004309Y-138277140D01*
G37*
%TD*%
%TO.C,L1*%
G36*
X247761527Y-92866238D02*
G01*
X246461527Y-90614572D01*
X248713193Y-89314572D01*
X250013193Y-91566238D01*
X247761527Y-92866238D01*
G37*
G36*
X236658934Y-96735982D02*
G01*
X235358934Y-94484316D01*
X237610600Y-93184316D01*
X238910600Y-95435982D01*
X236658934Y-96735982D01*
G37*
%TD*%
%TO.C,Y1*%
G36*
X219831527Y-83223938D02*
G01*
X218531527Y-80972272D01*
X220783193Y-79672272D01*
X222083193Y-81923938D01*
X219831527Y-83223938D01*
G37*
G36*
X208728934Y-87093682D02*
G01*
X207428934Y-84842016D01*
X209680600Y-83542016D01*
X210980600Y-85793682D01*
X208728934Y-87093682D01*
G37*
%TD*%
%TO.C,A1*%
G36*
X215015527Y-113775738D02*
G01*
X213715527Y-111524072D01*
X215967193Y-110224072D01*
X217267193Y-112475738D01*
X215015527Y-113775738D01*
G37*
G36*
X203912934Y-117645482D02*
G01*
X202612934Y-115393816D01*
X204864600Y-114093816D01*
X206164600Y-116345482D01*
X203912934Y-117645482D01*
G37*
%TD*%
%TO.C,R1*%
G36*
X238363527Y-76365938D02*
G01*
X237063527Y-74114272D01*
X239315193Y-72814272D01*
X240615193Y-75065938D01*
X238363527Y-76365938D01*
G37*
G36*
X227260934Y-80235682D02*
G01*
X225960934Y-77984016D01*
X228212600Y-76684016D01*
X229512600Y-78935682D01*
X227260934Y-80235682D01*
G37*
%TD*%
%TO.C,X1*%
G36*
X205617527Y-97275738D02*
G01*
X204317527Y-95024072D01*
X206569193Y-93724072D01*
X207869193Y-95975738D01*
X205617527Y-97275738D01*
G37*
G36*
X194514934Y-101145482D02*
G01*
X193214934Y-98893816D01*
X195466600Y-97593816D01*
X196766600Y-99845482D01*
X194514934Y-101145482D01*
G37*
%TD*%
%TO.C,B1*%
G36*
X229229527Y-99724738D02*
G01*
X227929527Y-97473072D01*
X230181193Y-96173072D01*
X231481193Y-98424738D01*
X229229527Y-99724738D01*
G37*
G36*
X218126934Y-103594482D02*
G01*
X216826934Y-101342816D01*
X219078600Y-100042816D01*
X220378600Y-102294482D01*
X218126934Y-103594482D01*
G37*
%TD*%
D11*
%TO.C,TOUCHPAD1*%
X142775000Y-109620000D03*
X154325000Y-111820000D03*
%TD*%
M02*
