%TF.GenerationSoftware,KiCad,Pcbnew,(5.1.10)-1*%
%TF.CreationDate,2021-10-08T21:35:03-04:00*%
%TF.ProjectId,mino_board,6d696e6f-5f62-46f6-9172-642e6b696361,rev?*%
%TF.SameCoordinates,Original*%
%TF.FileFunction,Legend,Top*%
%TF.FilePolarity,Positive*%
%FSLAX46Y46*%
G04 Gerber Fmt 4.6, Leading zero omitted, Abs format (unit mm)*
G04 Created by KiCad (PCBNEW (5.1.10)-1) date 2021-10-08 21:35:03*
%MOMM*%
%LPD*%
G01*
G04 APERTURE LIST*
%ADD10C,0.008000*%
%ADD11C,0.300000*%
%ADD12C,0.100000*%
%ADD13C,0.150000*%
%ADD14C,0.120000*%
G04 APERTURE END LIST*
D10*
X61314880Y-150869792D02*
X61314880Y-146702686D01*
X60762880Y-140623606D02*
X66209440Y-140623606D01*
X55875102Y-150865756D02*
X55221250Y-151536134D01*
X66895820Y-146708906D02*
X71120000Y-146708906D01*
X61314880Y-150869792D02*
X60762880Y-151523656D01*
X66209440Y-140623606D02*
X66209440Y-145996586D01*
X66343800Y-146156906D02*
X66895820Y-146708906D01*
X60594220Y-146089546D02*
X60042200Y-146641586D01*
X61314880Y-145342726D02*
X60762880Y-145996586D01*
X60042200Y-150865756D02*
X60594220Y-151536134D01*
X55875102Y-146641586D02*
X55221250Y-146089546D01*
X66343800Y-146156906D02*
X71790359Y-146156906D01*
X65539060Y-141175626D02*
X66209440Y-140623606D01*
X61314880Y-146702686D02*
X65539080Y-146702686D01*
X60042200Y-146641586D02*
X60042200Y-146641586D01*
X55875102Y-146641586D02*
X60042200Y-146641586D01*
X60594220Y-146089546D02*
X60594220Y-146089546D01*
X60762880Y-145996586D02*
X60762880Y-140623606D01*
X61314880Y-146702686D02*
X61314880Y-146702686D01*
X55221250Y-146089546D02*
X60594220Y-146089546D01*
X65539080Y-141175626D02*
X65539080Y-145342726D01*
X60042200Y-150865766D02*
X55875102Y-150865766D01*
X66895820Y-150876000D02*
X66343800Y-151529862D01*
X71120000Y-150876000D02*
X71790359Y-151529862D01*
X66343800Y-151529862D02*
X66343800Y-146156906D01*
X71120000Y-146708906D02*
X71120000Y-150876000D01*
X60762880Y-140623606D02*
X61314880Y-141175626D01*
X55875102Y-150865766D02*
X55875102Y-146641586D01*
X60594220Y-151536134D02*
X55221250Y-151536134D01*
X66895820Y-146708906D02*
X66895820Y-146708906D01*
X65539080Y-146702686D02*
X65539080Y-150869792D01*
X65539080Y-150869792D02*
X61314880Y-150869792D01*
X65539060Y-145342726D02*
X66209440Y-145996586D01*
X60762880Y-146150686D02*
X61314880Y-146702726D01*
X61314880Y-145342726D02*
X61314880Y-141175626D01*
X71790359Y-146156906D02*
X71790359Y-151529862D01*
X66895820Y-150876000D02*
X66895820Y-146708906D01*
X60762880Y-146150686D02*
X60762880Y-146150686D01*
X61314880Y-141175626D02*
X65539080Y-141175626D01*
X55221250Y-151536134D02*
X55221250Y-146089546D01*
X60594220Y-146089546D02*
X60594220Y-151536134D01*
X71120000Y-146708906D02*
X71790359Y-146156906D01*
X61314880Y-141175626D02*
X61314880Y-141175626D01*
X71790359Y-151529862D02*
X66343800Y-151529862D01*
X60762880Y-151523656D02*
X60762880Y-146150686D01*
X66209440Y-151523656D02*
X60762880Y-151523656D01*
X60762880Y-140623606D02*
X60762880Y-140623606D01*
X65539060Y-150869792D02*
X66209440Y-151523656D01*
X60762880Y-146150686D02*
X66209440Y-146150686D01*
X66209440Y-146150686D02*
X66209440Y-151523656D01*
X65539080Y-145342726D02*
X61314880Y-145342726D01*
X65539060Y-146702726D02*
X66209440Y-146150686D01*
X66209440Y-145996586D02*
X60762880Y-145996586D01*
X66343800Y-146156906D02*
X66343800Y-146156906D01*
X60042200Y-146641586D02*
X60042200Y-150865766D01*
X71120000Y-150876000D02*
X66895820Y-150876000D01*
D11*
X253369428Y-151554571D02*
X253369428Y-150554571D01*
X253369428Y-150840285D02*
X253440857Y-150697428D01*
X253512285Y-150626000D01*
X253655142Y-150554571D01*
X253798000Y-150554571D01*
X254869428Y-151483142D02*
X254726571Y-151554571D01*
X254440857Y-151554571D01*
X254298000Y-151483142D01*
X254226571Y-151340285D01*
X254226571Y-150768857D01*
X254298000Y-150626000D01*
X254440857Y-150554571D01*
X254726571Y-150554571D01*
X254869428Y-150626000D01*
X254940857Y-150768857D01*
X254940857Y-150911714D01*
X254226571Y-151054571D01*
X255440857Y-150554571D02*
X255798000Y-151554571D01*
X256155142Y-150554571D01*
X258155142Y-150054571D02*
X258298000Y-150054571D01*
X258440857Y-150126000D01*
X258512285Y-150197428D01*
X258583714Y-150340285D01*
X258655142Y-150626000D01*
X258655142Y-150983142D01*
X258583714Y-151268857D01*
X258512285Y-151411714D01*
X258440857Y-151483142D01*
X258298000Y-151554571D01*
X258155142Y-151554571D01*
X258012285Y-151483142D01*
X257940857Y-151411714D01*
X257869428Y-151268857D01*
X257798000Y-150983142D01*
X257798000Y-150626000D01*
X257869428Y-150340285D01*
X257940857Y-150197428D01*
X258012285Y-150126000D01*
X258155142Y-150054571D01*
X259298000Y-151411714D02*
X259369428Y-151483142D01*
X259298000Y-151554571D01*
X259226571Y-151483142D01*
X259298000Y-151411714D01*
X259298000Y-151554571D01*
X259940857Y-150197428D02*
X260012285Y-150126000D01*
X260155142Y-150054571D01*
X260512285Y-150054571D01*
X260655142Y-150126000D01*
X260726571Y-150197428D01*
X260798000Y-150340285D01*
X260798000Y-150483142D01*
X260726571Y-150697428D01*
X259869428Y-151554571D01*
X260798000Y-151554571D01*
D12*
X257785730Y-145793498D02*
X257785730Y-147537128D01*
X253463181Y-146645518D02*
X253534979Y-146572291D01*
X253534979Y-146572291D02*
X253540111Y-146567762D01*
X254270260Y-145682858D02*
X254166882Y-145682585D01*
X254166882Y-145682585D02*
X254075793Y-145687474D01*
X254075793Y-145687474D02*
X253973967Y-145698719D01*
X253973967Y-145698719D02*
X253884821Y-145713700D01*
X255265025Y-147033534D02*
X255259053Y-146925577D01*
X255259053Y-146925577D02*
X255250998Y-146817760D01*
X255250998Y-146817760D02*
X255241870Y-146719892D01*
X253884821Y-145713700D02*
X253786060Y-145739017D01*
X253786060Y-145739017D02*
X253728436Y-145759643D01*
X253796322Y-146483286D02*
X253897454Y-146492314D01*
X253897454Y-146492314D02*
X253904122Y-146493556D01*
X254206977Y-146799909D02*
X254231060Y-146901496D01*
X254231060Y-146901496D02*
X254243516Y-146992785D01*
X259383131Y-145712908D02*
X259284766Y-145741896D01*
X259284766Y-145741896D02*
X259252651Y-145753654D01*
X258791671Y-145948189D02*
X258791671Y-145793498D01*
X252504205Y-145731741D02*
X252400441Y-145708237D01*
X252400441Y-145708237D02*
X252295281Y-145692151D01*
X252295281Y-145692151D02*
X252281176Y-145690571D01*
X259025235Y-145882343D02*
X258948599Y-145947582D01*
X258948599Y-145947582D02*
X258920208Y-145974900D01*
X253308890Y-146021961D02*
X253238657Y-146097069D01*
X253238657Y-146097069D02*
X253221298Y-146120096D01*
X253359469Y-146827402D02*
X253402672Y-146731526D01*
X253402672Y-146731526D02*
X253463181Y-146645518D01*
X253147696Y-146222584D02*
X253092409Y-146147755D01*
X252700142Y-145804331D02*
X252603927Y-145763302D01*
X252603927Y-145763302D02*
X252504205Y-145731741D01*
X257785730Y-149280759D02*
X258288700Y-149280759D01*
X258920208Y-145974900D02*
X258791671Y-146102880D01*
X258288700Y-149280759D02*
X258791671Y-149280759D01*
X255281526Y-148224521D02*
X255281384Y-148109909D01*
X255281384Y-148109909D02*
X255281075Y-147995297D01*
X255281075Y-147995297D02*
X255280598Y-147880687D01*
X255280598Y-147880687D02*
X255279953Y-147766078D01*
X255279953Y-147766078D02*
X255279140Y-147651470D01*
X255279140Y-147651470D02*
X255278159Y-147536863D01*
X255278159Y-147536863D02*
X255277720Y-147491021D01*
X259252651Y-145753654D02*
X259159771Y-145795670D01*
X259159771Y-145795670D02*
X259134686Y-145809336D01*
X253540111Y-146567762D02*
X253614123Y-146518645D01*
X258795219Y-147562151D02*
X258797132Y-147459591D01*
X258797132Y-147459591D02*
X258800768Y-147357084D01*
X258800768Y-147357084D02*
X258806127Y-147254650D01*
X258806127Y-147254650D02*
X258809849Y-147197783D01*
X254135723Y-146646369D02*
X254183618Y-146734988D01*
X254183618Y-146734988D02*
X254206977Y-146799909D01*
X253433836Y-145921528D02*
X253354345Y-145982571D01*
X253354345Y-145982571D02*
X253308890Y-146021961D01*
X253221298Y-146120096D02*
X253147696Y-146222584D01*
X258791671Y-148254933D02*
X258791757Y-148146683D01*
X258791757Y-148146683D02*
X258792017Y-148038435D01*
X258792017Y-148038435D02*
X258792450Y-147930187D01*
X258792450Y-147930187D02*
X258793057Y-147821939D01*
X258793057Y-147821939D02*
X258793836Y-147713693D01*
X258793836Y-147713693D02*
X258794789Y-147605448D01*
X258794789Y-147605448D02*
X258795219Y-147562151D01*
X253614123Y-146518645D02*
X253695932Y-146492081D01*
X254279343Y-149280759D02*
X254780700Y-149280759D01*
X258791671Y-145793498D02*
X258288700Y-145793498D01*
X253728436Y-145759643D02*
X253633935Y-145801608D01*
X253633935Y-145801608D02*
X253578920Y-145830316D01*
X255277720Y-147491021D02*
X255276339Y-147390910D01*
X255276339Y-147390910D02*
X255274177Y-147290816D01*
X255274177Y-147290816D02*
X255271232Y-147190741D01*
X255271232Y-147190741D02*
X255267505Y-147090692D01*
X255267505Y-147090692D02*
X255265025Y-147033534D01*
X252794534Y-145861075D02*
X252706330Y-145807374D01*
X252706330Y-145807374D02*
X252700142Y-145804331D01*
X254925039Y-145967155D02*
X254848322Y-145896446D01*
X254848322Y-145896446D02*
X254764041Y-145835145D01*
X254764041Y-145835145D02*
X254704066Y-145799818D01*
X254260804Y-147321638D02*
X254262283Y-147423318D01*
X254262283Y-147423318D02*
X254263674Y-147524999D01*
X254263674Y-147524999D02*
X254264977Y-147626681D01*
X254264977Y-147626681D02*
X254266191Y-147728364D01*
X254266191Y-147728364D02*
X254267316Y-147830048D01*
X254267316Y-147830048D02*
X254268353Y-147931733D01*
X254268353Y-147931733D02*
X254269301Y-148033419D01*
X254269301Y-148033419D02*
X254270161Y-148135106D01*
X258288700Y-145793498D02*
X257785730Y-145793498D01*
X254073950Y-146575343D02*
X254135723Y-146646369D01*
X253092409Y-146147755D02*
X253028937Y-146070290D01*
X253028937Y-146070290D02*
X253009800Y-146049772D01*
X253695932Y-146492081D02*
X253796322Y-146483286D01*
X252281176Y-145690571D02*
X252175410Y-145683020D01*
X252175410Y-145683020D02*
X252069384Y-145683008D01*
X252069384Y-145683008D02*
X252055250Y-145683577D01*
X255092657Y-146201428D02*
X255037947Y-146107858D01*
X255037947Y-146107858D02*
X254973333Y-146020970D01*
X254973333Y-146020970D02*
X254925039Y-145967155D01*
X253904122Y-146493556D02*
X253996826Y-146524169D01*
X259134686Y-145809336D02*
X259048249Y-145865011D01*
X259048249Y-145865011D02*
X259025235Y-145882343D01*
X255282056Y-149280759D02*
X255281526Y-148224521D01*
X255241870Y-146719892D02*
X255228611Y-146620639D01*
X255228611Y-146620639D02*
X255209228Y-146522412D01*
X255209228Y-146522412D02*
X255202573Y-146494576D01*
X254270161Y-148135106D02*
X254271008Y-148240832D01*
X254271008Y-148240832D02*
X254271931Y-148355998D01*
X254271931Y-148355998D02*
X254273066Y-148497596D01*
X254273066Y-148497596D02*
X254273895Y-148601086D01*
X254273895Y-148601086D02*
X254274752Y-148707931D01*
X254274752Y-148707931D02*
X254275608Y-148814777D01*
X254275608Y-148814777D02*
X254276437Y-148918266D01*
X254276437Y-148918266D02*
X254277572Y-149059865D01*
X254277572Y-149059865D02*
X254278495Y-149175032D01*
X254278495Y-149175032D02*
X254279316Y-149277472D01*
X254279316Y-149277472D02*
X254279343Y-149280759D01*
X259925636Y-147403288D02*
X259926923Y-147507334D01*
X259926923Y-147507334D02*
X259928045Y-147611383D01*
X259928045Y-147611383D02*
X259929000Y-147715433D01*
X259929000Y-147715433D02*
X259929791Y-147819484D01*
X259929791Y-147819484D02*
X259930415Y-147923537D01*
X259930415Y-147923537D02*
X259930874Y-148027590D01*
X259930874Y-148027590D02*
X259931166Y-148131644D01*
X259931166Y-148131644D02*
X259931294Y-148235699D01*
X260437121Y-145884798D02*
X260347896Y-145827551D01*
X260347896Y-145827551D02*
X260253158Y-145779979D01*
X260917662Y-149280759D02*
X260910283Y-147989801D01*
X259759574Y-146626084D02*
X259823695Y-146707725D01*
X259823695Y-146707725D02*
X259852413Y-146772919D01*
X256042100Y-145793498D02*
X256042100Y-147537128D01*
X259675504Y-146559730D02*
X259754670Y-146621509D01*
X259754670Y-146621509D02*
X259759574Y-146626084D01*
X259588249Y-146516031D02*
X259675504Y-146559730D01*
X256042100Y-149280759D02*
X256533893Y-149280759D01*
X259852413Y-146772919D02*
X259879941Y-146873268D01*
X259879941Y-146873268D02*
X259898292Y-146975663D01*
X259898292Y-146975663D02*
X259901831Y-147005208D01*
X259520976Y-145691447D02*
X259421514Y-145704537D01*
X259421514Y-145704537D02*
X259383131Y-145712908D01*
X260049539Y-145714571D02*
X259949070Y-145697823D01*
X259949070Y-145697823D02*
X259895959Y-145692565D01*
X259706318Y-145685135D02*
X259602004Y-145687018D01*
X259602004Y-145687018D02*
X259520976Y-145691447D01*
X260910283Y-147989801D02*
X260902904Y-146698844D01*
X259368498Y-146484027D02*
X259470262Y-146489522D01*
X259470262Y-146489522D02*
X259489013Y-146491790D01*
X256533893Y-145793498D02*
X256042100Y-145793498D01*
X260812583Y-146413277D02*
X260779559Y-146326114D01*
X256533893Y-149280759D02*
X257025686Y-149280759D01*
X260253158Y-145779979D02*
X260159382Y-145744145D01*
X260159382Y-145744145D02*
X260062629Y-145717432D01*
X260062629Y-145717432D02*
X260049539Y-145714571D01*
X258809849Y-147197783D02*
X258819713Y-147094450D01*
X258819713Y-147094450D02*
X258834760Y-146991753D01*
X258834760Y-146991753D02*
X258840008Y-146962555D01*
X260902904Y-146698844D02*
X260840695Y-146497656D01*
X259895959Y-145692565D02*
X259795278Y-145686886D01*
X259795278Y-145686886D02*
X259706318Y-145685135D01*
X259211406Y-146503619D02*
X259313999Y-146486428D01*
X259313999Y-146486428D02*
X259368498Y-146484027D01*
X260779559Y-146326114D02*
X260746671Y-146248346D01*
X259489013Y-146491790D02*
X259588249Y-146516031D01*
X257025686Y-149280759D02*
X257025686Y-147537128D01*
X260424699Y-149280759D02*
X260917662Y-149280759D01*
X260719930Y-146196201D02*
X260661722Y-146107481D01*
X260661722Y-146107481D02*
X260594605Y-146025294D01*
X259931294Y-148235699D02*
X259931348Y-148363843D01*
X259931348Y-148363843D02*
X259931396Y-148478083D01*
X259931396Y-148478083D02*
X259931453Y-148612989D01*
X259931453Y-148612989D02*
X259931515Y-148758228D01*
X259931515Y-148758228D02*
X259931577Y-148903468D01*
X259931577Y-148903468D02*
X259931634Y-149038374D01*
X259931634Y-149038374D02*
X259931682Y-149152614D01*
X259931682Y-149152614D02*
X259931726Y-149254925D01*
X259931726Y-149254925D02*
X259931737Y-149280759D01*
X260746671Y-146248346D02*
X260719930Y-146196201D01*
X259931737Y-149280759D02*
X260424699Y-149280759D01*
X257025686Y-145793498D02*
X256533893Y-145793498D01*
X260840695Y-146497656D02*
X260812583Y-146413277D01*
X259901831Y-147005208D02*
X259912272Y-147116924D01*
X259912272Y-147116924D02*
X259919783Y-147228861D01*
X259919783Y-147228861D02*
X259924361Y-147340961D01*
X259924361Y-147340961D02*
X259925636Y-147403288D01*
X260594605Y-146025294D02*
X260519570Y-145950889D01*
X260519570Y-145950889D02*
X260437121Y-145884798D01*
X256042100Y-147537128D02*
X256042100Y-149280759D01*
X257025686Y-147537128D02*
X257025686Y-145793498D01*
X261488086Y-146900066D02*
X261462909Y-146998334D01*
X261462909Y-146998334D02*
X261441855Y-147097524D01*
X261441855Y-147097524D02*
X261424949Y-147197503D01*
X261424949Y-147197503D02*
X261412217Y-147298144D01*
X263259895Y-146567992D02*
X263362261Y-146580784D01*
X263362261Y-146580784D02*
X263462736Y-146604010D01*
X263462736Y-146604010D02*
X263490984Y-146612541D01*
X263047640Y-149385719D02*
X263155837Y-149392390D01*
X263155837Y-149392390D02*
X263264195Y-149394663D01*
X263264195Y-149394663D02*
X263362730Y-149392910D01*
X263081622Y-148496300D02*
X262983062Y-148473258D01*
X262983062Y-148473258D02*
X262961024Y-148465379D01*
X264565943Y-146218722D02*
X264493839Y-146148014D01*
X264493839Y-146148014D02*
X264417781Y-146081750D01*
X264417781Y-146081750D02*
X264337972Y-146020095D01*
X264337972Y-146020095D02*
X264254621Y-145963210D01*
X264254621Y-145963210D02*
X264205480Y-145932910D01*
X261839387Y-148804838D02*
X261908433Y-148879114D01*
X261908433Y-148879114D02*
X261981456Y-148949372D01*
X261981456Y-148949372D02*
X262058281Y-149015452D01*
X262058281Y-149015452D02*
X262138734Y-149077195D01*
X262562481Y-146971761D02*
X262619849Y-146888848D01*
X262619849Y-146888848D02*
X262684448Y-146811435D01*
X265002139Y-147022981D02*
X264975691Y-146924616D01*
X264975691Y-146924616D02*
X264943696Y-146828025D01*
X264943696Y-146828025D02*
X264906244Y-146733443D01*
X264906244Y-146733443D02*
X264863422Y-146641102D01*
X264863422Y-146641102D02*
X264836577Y-146589432D01*
X262480119Y-149264403D02*
X262576372Y-149298852D01*
X262576372Y-149298852D02*
X262674643Y-149326902D01*
X262674643Y-149326902D02*
X262741122Y-149342002D01*
X265049207Y-147819413D02*
X265058637Y-147719458D01*
X265058637Y-147719458D02*
X265063674Y-147619331D01*
X265063674Y-147619331D02*
X265064328Y-147519174D01*
X265064328Y-147519174D02*
X265060607Y-147419132D01*
X265060607Y-147419132D02*
X265052519Y-147319348D01*
X265052519Y-147319348D02*
X265040072Y-147219965D01*
X265040072Y-147219965D02*
X265023276Y-147121128D01*
X265023276Y-147121128D02*
X265002139Y-147022981D01*
X264205480Y-145932910D02*
X264115924Y-145883115D01*
X264115924Y-145883115D02*
X264023798Y-145838496D01*
X264023798Y-145838496D02*
X263929324Y-145799148D01*
X263929324Y-145799148D02*
X263832729Y-145765167D01*
X263832729Y-145765167D02*
X263776665Y-145748198D01*
X261412217Y-147298144D02*
X261403326Y-147402818D01*
X261403326Y-147402818D02*
X261398690Y-147507723D01*
X261398690Y-147507723D02*
X261398311Y-147612730D01*
X261398311Y-147612730D02*
X261402193Y-147717710D01*
X262485820Y-145815073D02*
X262386380Y-145859479D01*
X262386380Y-145859479D02*
X262290005Y-145910014D01*
X262290005Y-145910014D02*
X262196980Y-145966523D01*
X262196980Y-145966523D02*
X262146851Y-146000441D01*
X262138734Y-149077195D02*
X262229890Y-149138424D01*
X262229890Y-149138424D02*
X262325034Y-149193043D01*
X262325034Y-149193043D02*
X262423808Y-149240854D01*
X262423808Y-149240854D02*
X262480119Y-149264403D01*
X263649994Y-149360412D02*
X263762201Y-149335026D01*
X263762201Y-149335026D02*
X263872194Y-149302287D01*
X263872194Y-149302287D02*
X263979619Y-149262345D01*
X263979619Y-149262345D02*
X264084124Y-149215350D01*
X264084124Y-149215350D02*
X264185356Y-149161453D01*
X264185356Y-149161453D02*
X264282962Y-149100803D01*
X264282962Y-149100803D02*
X264320910Y-149074686D01*
X264836577Y-146589432D02*
X264786065Y-146502245D01*
X264786065Y-146502245D02*
X264730554Y-146418288D01*
X264730554Y-146418288D02*
X264670199Y-146337775D01*
X264670199Y-146337775D02*
X264605155Y-146260917D01*
X264605155Y-146260917D02*
X264565943Y-146218722D01*
X263884331Y-146950273D02*
X263935832Y-147040718D01*
X263935832Y-147040718D02*
X263956224Y-147083433D01*
X264044916Y-147537129D02*
X264040997Y-147638266D01*
X264040997Y-147638266D02*
X264029269Y-147738775D01*
X264029269Y-147738775D02*
X264024489Y-147767314D01*
X264035225Y-147371887D02*
X264043551Y-147475038D01*
X264043551Y-147475038D02*
X264044916Y-147537129D01*
X263698903Y-146740351D02*
X263774581Y-146811899D01*
X263774581Y-146811899D02*
X263802279Y-146841820D01*
X263589755Y-146659008D02*
X263672680Y-146718611D01*
X263672680Y-146718611D02*
X263698903Y-146740351D01*
X263956224Y-147083433D02*
X263992861Y-147178090D01*
X263992861Y-147178090D02*
X264006125Y-147222306D01*
X263802279Y-146841820D02*
X263865465Y-146921938D01*
X263865465Y-146921938D02*
X263884331Y-146950273D01*
X263490984Y-146612541D02*
X263583963Y-146655350D01*
X263583963Y-146655350D02*
X263589755Y-146659008D01*
X264006125Y-147222306D02*
X264027755Y-147319991D01*
X264027755Y-147319991D02*
X264035225Y-147371887D01*
X253276382Y-147483871D02*
X253279215Y-147381869D01*
X253279215Y-147381869D02*
X253284617Y-147279988D01*
X253284617Y-147279988D02*
X253292584Y-147178275D01*
X253292584Y-147178275D02*
X253303115Y-147076779D01*
X251728688Y-145752038D02*
X251635463Y-145795559D01*
X251635463Y-145795559D02*
X251618839Y-145804905D01*
X253303115Y-147076779D02*
X253319603Y-146974056D01*
X253319603Y-146974056D02*
X253344876Y-146873180D01*
X253344876Y-146873180D02*
X253359469Y-146827402D01*
X252253591Y-147527034D02*
X252254744Y-147632662D01*
X252254744Y-147632662D02*
X252255802Y-147738291D01*
X252255802Y-147738291D02*
X252256764Y-147843921D01*
X252256764Y-147843921D02*
X252257630Y-147949552D01*
X252257630Y-147949552D02*
X252258400Y-148055184D01*
X252258400Y-148055184D02*
X252258636Y-148090395D01*
X253270175Y-148302174D02*
X253270271Y-148199882D01*
X253270271Y-148199882D02*
X253270562Y-148097590D01*
X253270562Y-148097590D02*
X253271047Y-147995300D01*
X253271047Y-147995300D02*
X253271726Y-147893010D01*
X253271726Y-147893010D02*
X253272598Y-147790722D01*
X253272598Y-147790722D02*
X253273665Y-147688436D01*
X253273665Y-147688436D02*
X253274926Y-147586152D01*
X253274926Y-147586152D02*
X253276382Y-147483871D01*
X252768294Y-149280759D02*
X253270175Y-149280759D01*
X250777677Y-145793498D02*
X250274707Y-145793498D01*
X255983200Y-144110534D02*
X255957940Y-144210453D01*
X255957940Y-144210453D02*
X255955864Y-144229490D01*
X256299173Y-143789576D02*
X256210778Y-143840173D01*
X256210778Y-143840173D02*
X256198870Y-143848576D01*
X256032000Y-144018000D02*
X255984382Y-144107473D01*
X255984382Y-144107473D02*
X255983200Y-144110534D01*
X256106823Y-143927653D02*
X256040492Y-144006017D01*
X256040492Y-144006017D02*
X256032000Y-144018000D01*
X252258636Y-148090395D02*
X252266413Y-149280759D01*
X251514558Y-145875676D02*
X251437830Y-145941144D01*
X251437830Y-145941144D02*
X251409184Y-145968312D01*
X256958110Y-143918042D02*
X256876645Y-143850978D01*
X256876645Y-143850978D02*
X256785185Y-143798572D01*
X256785185Y-143798572D02*
X256757481Y-143786463D01*
X251518672Y-146560682D02*
X251568552Y-146527847D01*
X257112336Y-144374301D02*
X257114501Y-144270188D01*
X257114501Y-144270188D02*
X257111922Y-144229490D01*
X252266413Y-149280759D02*
X252768294Y-149280759D01*
X253270175Y-149280759D02*
X253270175Y-148302174D01*
X252075403Y-146586499D02*
X252136031Y-146652140D01*
X256693742Y-144888466D02*
X256790990Y-144856461D01*
X256790990Y-144856461D02*
X256826828Y-144838335D01*
X256198870Y-143848576D02*
X256120319Y-143914296D01*
X256120319Y-143914296D02*
X256106823Y-143927653D01*
X252246401Y-147156286D02*
X252249023Y-147260546D01*
X252249023Y-147260546D02*
X252251176Y-147364817D01*
X252251176Y-147364817D02*
X252252859Y-147469097D01*
X252252859Y-147469097D02*
X252253591Y-147527034D01*
X255202573Y-146494576D02*
X255172439Y-146391016D01*
X255172439Y-146391016D02*
X255134237Y-146290235D01*
X255134237Y-146290235D02*
X255092657Y-146201428D01*
X251351087Y-146825315D02*
X251385178Y-146731277D01*
X251385178Y-146731277D02*
X251393070Y-146714490D01*
X251846657Y-146490082D02*
X251904736Y-146495609D01*
X251904736Y-146495609D02*
X251953192Y-146509875D01*
X251850681Y-145713224D02*
X251754929Y-145742192D01*
X251754929Y-145742192D02*
X251728688Y-145752038D01*
X253578920Y-145830316D02*
X253491523Y-145882493D01*
X253491523Y-145882493D02*
X253433836Y-145921528D01*
X252136031Y-146652140D02*
X252186142Y-146730659D01*
X255955864Y-144229490D02*
X255953103Y-144333588D01*
X255953103Y-144333588D02*
X255955450Y-144374301D01*
X256826828Y-144838335D02*
X256911342Y-144778397D01*
X256911342Y-144778397D02*
X256940667Y-144750261D01*
X258970480Y-146653313D02*
X259044018Y-146583125D01*
X259044018Y-146583125D02*
X259076929Y-146560578D01*
X252237533Y-146894038D02*
X252241539Y-147000562D01*
X252241539Y-147000562D02*
X252244993Y-147107106D01*
X252244993Y-147107106D02*
X252246401Y-147156286D01*
X251618839Y-145804905D02*
X251533317Y-145861265D01*
X251533317Y-145861265D02*
X251514558Y-145875676D01*
X259076929Y-146560578D02*
X259167551Y-146516915D01*
X259167551Y-146516915D02*
X259211406Y-146503619D01*
X257043103Y-144620063D02*
X257084954Y-144528709D01*
X257084954Y-144528709D02*
X257088809Y-144514811D01*
X251280648Y-145793498D02*
X250777677Y-145793498D01*
X252223781Y-146819163D02*
X252237533Y-146894038D01*
X256024683Y-144620063D02*
X256085732Y-144703805D01*
X256085732Y-144703805D02*
X256127119Y-144750261D01*
X250274707Y-145793498D02*
X250274707Y-147537128D01*
X251280648Y-149280759D02*
X251280648Y-148221402D01*
X251409184Y-145968312D02*
X251280648Y-146093880D01*
X255978977Y-144514811D02*
X256017158Y-144607758D01*
X256017158Y-144607758D02*
X256024683Y-144620063D01*
X251280648Y-148221402D02*
X251280696Y-148114960D01*
X251280696Y-148114960D02*
X251280842Y-148008518D01*
X251280842Y-148008518D02*
X251281086Y-147902076D01*
X251281086Y-147902076D02*
X251281427Y-147795635D01*
X251281427Y-147795635D02*
X251281866Y-147689195D01*
X251281866Y-147689195D02*
X251282034Y-147653715D01*
X251315819Y-146976636D02*
X251337547Y-146876996D01*
X251337547Y-146876996D02*
X251351087Y-146825315D01*
X256240958Y-144838335D02*
X256335153Y-144878444D01*
X256335153Y-144878444D02*
X256374044Y-144888466D01*
X251280648Y-145943689D02*
X251280648Y-145793498D01*
X257088809Y-144514811D02*
X257108128Y-144414200D01*
X257108128Y-144414200D02*
X257112336Y-144374301D01*
X256127119Y-144750261D02*
X256206358Y-144817015D01*
X256206358Y-144817015D02*
X256240958Y-144838335D01*
X258791671Y-146102880D02*
X258791671Y-145948189D01*
X253009800Y-146049772D02*
X252938167Y-145979439D01*
X252938167Y-145979439D02*
X252904241Y-145948912D01*
X251287400Y-147329826D02*
X251291422Y-147224421D01*
X251291422Y-147224421D02*
X251297531Y-147119118D01*
X251953192Y-146509875D02*
X252006499Y-146536259D01*
X258840008Y-146962555D02*
X258864515Y-146862829D01*
X258864515Y-146862829D02*
X258895278Y-146777582D01*
X251568552Y-146527847D02*
X251614792Y-146508489D01*
X251280648Y-146093880D02*
X251280648Y-145943689D01*
X258791671Y-149280759D02*
X258791671Y-148254933D01*
X258895278Y-146777582D02*
X258943040Y-146689687D01*
X258943040Y-146689687D02*
X258970480Y-146653313D01*
X254243516Y-146992785D02*
X254251570Y-147095402D01*
X254251570Y-147095402D02*
X254257215Y-147198173D01*
X254257215Y-147198173D02*
X254260447Y-147301052D01*
X254260447Y-147301052D02*
X254260804Y-147321638D01*
X255955450Y-144374301D02*
X255969957Y-144475717D01*
X255969957Y-144475717D02*
X255978977Y-144514811D01*
X254780700Y-149280759D02*
X255282056Y-149280759D01*
X256757481Y-143786463D02*
X256657032Y-143755012D01*
X256657032Y-143755012D02*
X256552832Y-143740911D01*
X256552832Y-143740911D02*
X256522682Y-143740130D01*
X251282034Y-147653715D02*
X251282897Y-147552487D01*
X251282897Y-147552487D02*
X251284500Y-147451268D01*
X251284500Y-147451268D02*
X251286842Y-147350064D01*
X251286842Y-147350064D02*
X251287400Y-147329826D01*
X251393070Y-146714490D02*
X251447114Y-146629962D01*
X250274707Y-147537128D02*
X250274707Y-149280759D01*
X251447114Y-146629962D02*
X251518672Y-146560682D01*
X251671661Y-146497609D02*
X251759187Y-146491467D01*
X250777677Y-149280759D02*
X251280648Y-149280759D01*
X251759187Y-146491467D02*
X251846657Y-146490082D01*
X257084586Y-144110534D02*
X257039594Y-144019623D01*
X257039594Y-144019623D02*
X256978373Y-143938910D01*
X256978373Y-143938910D02*
X256958110Y-143918042D01*
X254437601Y-145702800D02*
X254338642Y-145687480D01*
X254338642Y-145687480D02*
X254270260Y-145682858D01*
X252186142Y-146730659D02*
X252223781Y-146819163D01*
X252006499Y-146536259D02*
X252075403Y-146586499D01*
X252055250Y-145683577D02*
X251952231Y-145693335D01*
X251952231Y-145693335D02*
X251850681Y-145713224D01*
X252904241Y-145948912D02*
X252826165Y-145884800D01*
X252826165Y-145884800D02*
X252794534Y-145861075D01*
X251614792Y-146508489D02*
X251671661Y-146497609D01*
X253996826Y-146524169D02*
X254073950Y-146575343D01*
X257111922Y-144229490D02*
X257091027Y-144128567D01*
X257091027Y-144128567D02*
X257084586Y-144110534D01*
X256533893Y-144905303D02*
X256634238Y-144898712D01*
X256634238Y-144898712D02*
X256693742Y-144888466D01*
X257785730Y-147537128D02*
X257785730Y-149280759D01*
X250274707Y-149280759D02*
X250777677Y-149280759D01*
X256940667Y-144750261D02*
X257007691Y-144671219D01*
X257007691Y-144671219D02*
X257043103Y-144620063D01*
X256522682Y-143740130D02*
X256422299Y-143749626D01*
X256422299Y-143749626D02*
X256325697Y-143778058D01*
X256325697Y-143778058D02*
X256299173Y-143789576D01*
X256374044Y-144888466D02*
X256473560Y-144902927D01*
X256473560Y-144902927D02*
X256533893Y-144905303D01*
X251297531Y-147119118D02*
X251308953Y-147016476D01*
X251308953Y-147016476D02*
X251315819Y-146976636D01*
X254704066Y-145799818D02*
X254607514Y-145754426D01*
X254607514Y-145754426D02*
X254506719Y-145719775D01*
X254506719Y-145719775D02*
X254437601Y-145702800D01*
X264320910Y-149074686D02*
X264412289Y-149005239D01*
X264412289Y-149005239D02*
X264498577Y-148929993D01*
X264498577Y-148929993D02*
X264579514Y-148849235D01*
X264579514Y-148849235D02*
X264654837Y-148763251D01*
X264654837Y-148763251D02*
X264724285Y-148672327D01*
X264724285Y-148672327D02*
X264787597Y-148576751D01*
X264787597Y-148576751D02*
X264811145Y-148537283D01*
X262741122Y-149342002D02*
X262845878Y-149361162D01*
X262845878Y-149361162D02*
X262951313Y-149375998D01*
X262951313Y-149375998D02*
X263047640Y-149385719D01*
X264024489Y-147767314D02*
X264001626Y-147865712D01*
X264001626Y-147865712D02*
X263968818Y-147961236D01*
X263968818Y-147961236D02*
X263963705Y-147973715D01*
X263605946Y-148408576D02*
X263514813Y-148458186D01*
X263514813Y-148458186D02*
X263496948Y-148465379D01*
X263717886Y-148319807D02*
X263638748Y-148385301D01*
X263638748Y-148385301D02*
X263605946Y-148408576D01*
X261624452Y-146575896D02*
X261573056Y-146673382D01*
X261573056Y-146673382D02*
X261529563Y-146774528D01*
X261529563Y-146774528D02*
X261494173Y-146878859D01*
X261494173Y-146878859D02*
X261488086Y-146900066D01*
X262961024Y-148465379D02*
X262868156Y-148419099D01*
X262868156Y-148419099D02*
X262852027Y-148408576D01*
X262863806Y-145705328D02*
X262755239Y-145728065D01*
X262755239Y-145728065D02*
X262648292Y-145757206D01*
X262648292Y-145757206D02*
X262543249Y-145792669D01*
X262543249Y-145792669D02*
X262485820Y-145815073D01*
X262852027Y-148408576D02*
X262770223Y-148346443D01*
X262770223Y-148346443D02*
X262740087Y-148319807D01*
X263496948Y-148465379D02*
X263399461Y-148492602D01*
X263399461Y-148492602D02*
X263376351Y-148496300D01*
X263776665Y-145748198D02*
X263675364Y-145724589D01*
X263675364Y-145724589D02*
X263595261Y-145713122D01*
X263228987Y-148506434D02*
X263127510Y-148501640D01*
X263127510Y-148501640D02*
X263081622Y-148496300D01*
X262413322Y-147554598D02*
X262417016Y-147451401D01*
X262417016Y-147451401D02*
X262427786Y-147348710D01*
X262427786Y-147348710D02*
X262429755Y-147335076D01*
X261857085Y-146256711D02*
X261784927Y-146341457D01*
X261784927Y-146341457D02*
X261717947Y-146430258D01*
X261717947Y-146430258D02*
X261656316Y-146522877D01*
X261656316Y-146522877D02*
X261624452Y-146575896D01*
X262146851Y-146000441D02*
X262059638Y-146065892D01*
X262059638Y-146065892D02*
X261976773Y-146136638D01*
X261976773Y-146136638D02*
X261898498Y-146212466D01*
X261898498Y-146212466D02*
X261857085Y-146256711D01*
X263324305Y-145692605D02*
X263222154Y-145688912D01*
X263222154Y-145688912D02*
X263119952Y-145687429D01*
X263119952Y-145687429D02*
X263051806Y-145687667D01*
X264811145Y-148537283D02*
X264867511Y-148432230D01*
X264867511Y-148432230D02*
X264916946Y-148324037D01*
X264916946Y-148324037D02*
X264959334Y-148213047D01*
X264959334Y-148213047D02*
X264994561Y-148099607D01*
X264994561Y-148099607D02*
X265022513Y-147984060D01*
X265022513Y-147984060D02*
X265043076Y-147866752D01*
X265043076Y-147866752D02*
X265049207Y-147819413D01*
X263861416Y-148157303D02*
X263798297Y-148237140D01*
X263798297Y-148237140D02*
X263727815Y-148310536D01*
X263727815Y-148310536D02*
X263717886Y-148319807D01*
X263047556Y-146585966D02*
X263146363Y-146569205D01*
X263146363Y-146569205D02*
X263246525Y-146567148D01*
X263246525Y-146567148D02*
X263259895Y-146567992D01*
X261463048Y-148107161D02*
X261494406Y-148213280D01*
X261494406Y-148213280D02*
X261532984Y-148316884D01*
X261532984Y-148316884D02*
X261578634Y-148417603D01*
X261578634Y-148417603D02*
X261606998Y-148472177D01*
X263376351Y-148496300D02*
X263275173Y-148505442D01*
X263275173Y-148505442D02*
X263228987Y-148506434D01*
X261402193Y-147717710D02*
X261411593Y-147828364D01*
X261411593Y-147828364D02*
X261427051Y-147938269D01*
X261427051Y-147938269D02*
X261448529Y-148047178D01*
X261448529Y-148047178D02*
X261463048Y-148107161D01*
X262740087Y-148319807D02*
X262669734Y-148248394D01*
X262669734Y-148248394D02*
X262606585Y-148170559D01*
X262606585Y-148170559D02*
X262598735Y-148159724D01*
X262598735Y-148159724D02*
X262542403Y-148071126D01*
X262542403Y-148071126D02*
X262495997Y-147976950D01*
X261606998Y-148472177D02*
X261658081Y-148560098D01*
X261658081Y-148560098D02*
X261713930Y-148644978D01*
X261713930Y-148644978D02*
X261774410Y-148726622D01*
X261774410Y-148726622D02*
X261839387Y-148804838D01*
X262495997Y-147976950D02*
X262459574Y-147877185D01*
X262459574Y-147877185D02*
X262434020Y-147774099D01*
X262429755Y-147335076D02*
X262450804Y-147232085D01*
X262450804Y-147232085D02*
X262478443Y-147143531D01*
X263595261Y-145713122D02*
X263493793Y-145703608D01*
X263493793Y-145703608D02*
X263392149Y-145696277D01*
X263392149Y-145696277D02*
X263324305Y-145692605D01*
X262478443Y-147143531D02*
X262518587Y-147050067D01*
X262518587Y-147050067D02*
X262562481Y-146971761D01*
X263051806Y-145687667D02*
X262951560Y-145693162D01*
X262951560Y-145693162D02*
X262863806Y-145705328D01*
X262684448Y-146811435D02*
X262759923Y-146738511D01*
X262759923Y-146738511D02*
X262843833Y-146675521D01*
X262843833Y-146675521D02*
X262855609Y-146667915D01*
X262855609Y-146667915D02*
X262948261Y-146619162D01*
X262948261Y-146619162D02*
X263047556Y-146585966D01*
X263963705Y-147973715D02*
X263917731Y-148068389D01*
X263917731Y-148068389D02*
X263861416Y-148157303D01*
X263362730Y-149392910D02*
X263471011Y-149385871D01*
X263471011Y-149385871D02*
X263578683Y-149372648D01*
X263578683Y-149372648D02*
X263649994Y-149360412D01*
X262434020Y-147774099D02*
X262419096Y-147671708D01*
X262419096Y-147671708D02*
X262413384Y-147568407D01*
X262413384Y-147568407D02*
X262413322Y-147554598D01*
D13*
X141708857Y-70270666D02*
X142185047Y-70270666D01*
X141613619Y-70556380D02*
X141946952Y-69556380D01*
X142280285Y-70556380D01*
X142613619Y-69889714D02*
X142613619Y-70556380D01*
X142613619Y-69984952D02*
X142661238Y-69937333D01*
X142756476Y-69889714D01*
X142899333Y-69889714D01*
X142994571Y-69937333D01*
X143042190Y-70032571D01*
X143042190Y-70556380D01*
X143375523Y-69889714D02*
X143756476Y-69889714D01*
X143518380Y-69556380D02*
X143518380Y-70413523D01*
X143566000Y-70508761D01*
X143661238Y-70556380D01*
X143756476Y-70556380D01*
X144470761Y-70508761D02*
X144375523Y-70556380D01*
X144185047Y-70556380D01*
X144089809Y-70508761D01*
X144042190Y-70413523D01*
X144042190Y-70032571D01*
X144089809Y-69937333D01*
X144185047Y-69889714D01*
X144375523Y-69889714D01*
X144470761Y-69937333D01*
X144518380Y-70032571D01*
X144518380Y-70127809D01*
X144042190Y-70223047D01*
X144946952Y-69889714D02*
X144946952Y-70556380D01*
X144946952Y-69984952D02*
X144994571Y-69937333D01*
X145089809Y-69889714D01*
X145232666Y-69889714D01*
X145327904Y-69937333D01*
X145375523Y-70032571D01*
X145375523Y-70556380D01*
X145851714Y-69889714D02*
X145851714Y-70556380D01*
X145851714Y-69984952D02*
X145899333Y-69937333D01*
X145994571Y-69889714D01*
X146137428Y-69889714D01*
X146232666Y-69937333D01*
X146280285Y-70032571D01*
X146280285Y-70556380D01*
X147185047Y-70556380D02*
X147185047Y-70032571D01*
X147137428Y-69937333D01*
X147042190Y-69889714D01*
X146851714Y-69889714D01*
X146756476Y-69937333D01*
X147185047Y-70508761D02*
X147089809Y-70556380D01*
X146851714Y-70556380D01*
X146756476Y-70508761D01*
X146708857Y-70413523D01*
X146708857Y-70318285D01*
X146756476Y-70223047D01*
X146851714Y-70175428D01*
X147089809Y-70175428D01*
X147185047Y-70127809D01*
X148423142Y-70556380D02*
X148423142Y-69556380D01*
X148756476Y-70270666D01*
X149089809Y-69556380D01*
X149089809Y-70556380D01*
X149708857Y-70556380D02*
X149613619Y-70508761D01*
X149566000Y-70461142D01*
X149518380Y-70365904D01*
X149518380Y-70080190D01*
X149566000Y-69984952D01*
X149613619Y-69937333D01*
X149708857Y-69889714D01*
X149851714Y-69889714D01*
X149946952Y-69937333D01*
X149994571Y-69984952D01*
X150042190Y-70080190D01*
X150042190Y-70365904D01*
X149994571Y-70461142D01*
X149946952Y-70508761D01*
X149851714Y-70556380D01*
X149708857Y-70556380D01*
X150899333Y-69889714D02*
X150899333Y-70556380D01*
X150470761Y-69889714D02*
X150470761Y-70413523D01*
X150518380Y-70508761D01*
X150613619Y-70556380D01*
X150756476Y-70556380D01*
X150851714Y-70508761D01*
X150899333Y-70461142D01*
X151375523Y-69889714D02*
X151375523Y-70556380D01*
X151375523Y-69984952D02*
X151423142Y-69937333D01*
X151518380Y-69889714D01*
X151661238Y-69889714D01*
X151756476Y-69937333D01*
X151804095Y-70032571D01*
X151804095Y-70556380D01*
X152137428Y-69889714D02*
X152518380Y-69889714D01*
X152280285Y-69556380D02*
X152280285Y-70413523D01*
X152327904Y-70508761D01*
X152423142Y-70556380D01*
X152518380Y-70556380D01*
%TO.C,L2*%
X264802178Y-84341322D02*
X265302178Y-85207348D01*
X270936152Y-96965678D02*
X271802178Y-96465678D01*
X264802178Y-84341322D02*
X263936152Y-84841322D01*
X271302178Y-95599652D02*
X271802178Y-96465678D01*
X259677822Y-103465678D02*
X259177822Y-102599652D01*
X253543848Y-90841322D02*
X252677822Y-91341322D01*
X259677822Y-103465678D02*
X260543848Y-102965678D01*
X253177822Y-92207348D02*
X252677822Y-91341322D01*
%TO.C,R2*%
X255404178Y-67841022D02*
X255904178Y-68707048D01*
X261538152Y-80465378D02*
X262404178Y-79965378D01*
X255404178Y-67841022D02*
X254538152Y-68341022D01*
X261904178Y-79099352D02*
X262404178Y-79965378D01*
X250279822Y-86965378D02*
X249779822Y-86099352D01*
X244145848Y-74341022D02*
X243279822Y-74841022D01*
X250279822Y-86965378D02*
X251145848Y-86465378D01*
X243779822Y-75707048D02*
X243279822Y-74841022D01*
%TO.C,LEFT1*%
X68363178Y-81003822D02*
X67863178Y-81869848D01*
X60497152Y-92628178D02*
X61363178Y-93128178D01*
X68363178Y-81003822D02*
X67497152Y-80503822D01*
X61863178Y-92262152D02*
X61363178Y-93128178D01*
X49238822Y-86128178D02*
X49738822Y-85262152D01*
X57104848Y-74503822D02*
X56238822Y-74003822D01*
X49238822Y-86128178D02*
X50104848Y-86628178D01*
X55738822Y-74869848D02*
X56238822Y-74003822D01*
%TO.C,DOWN1*%
X84873178Y-90533722D02*
X84373178Y-91399748D01*
X77007152Y-102158078D02*
X77873178Y-102658078D01*
X84873178Y-90533722D02*
X84007152Y-90033722D01*
X78373178Y-101792052D02*
X77873178Y-102658078D01*
X65748822Y-95658078D02*
X66248822Y-94792052D01*
X73614848Y-84033722D02*
X72748822Y-83533722D01*
X65748822Y-95658078D02*
X66614848Y-96158078D01*
X72248822Y-84399748D02*
X72748822Y-83533722D01*
%TO.C,RIGHT1*%
X101500378Y-100058822D02*
X101000378Y-100924848D01*
X93634352Y-111683178D02*
X94500378Y-112183178D01*
X101500378Y-100058822D02*
X100634352Y-99558822D01*
X95000378Y-111317152D02*
X94500378Y-112183178D01*
X82376022Y-105183178D02*
X82876022Y-104317152D01*
X90242048Y-93558822D02*
X89376022Y-93058822D01*
X82376022Y-105183178D02*
X83242048Y-105683178D01*
X88876022Y-93924848D02*
X89376022Y-93058822D01*
%TO.C,UP1*%
X81836722Y-67801848D02*
X82336722Y-66935822D01*
X75336722Y-79060178D02*
X76202748Y-79560178D01*
X83202748Y-67435822D02*
X82336722Y-66935822D01*
X75336722Y-79060178D02*
X75836722Y-78194152D01*
X87961078Y-85194152D02*
X87461078Y-86060178D01*
X94461078Y-73935822D02*
X93595052Y-73435822D01*
X86595052Y-85560178D02*
X87461078Y-86060178D01*
X94461078Y-73935822D02*
X93961078Y-74801848D01*
%TO.C,UP3*%
X196520963Y-144683247D02*
X195878176Y-143917202D01*
X204877202Y-154641824D02*
X205643247Y-153999037D01*
X196644220Y-143274415D02*
X195878176Y-143917202D01*
X204877202Y-154641824D02*
X204234415Y-153875780D01*
X214959037Y-144876753D02*
X215601824Y-145642798D01*
X206602798Y-134918176D02*
X205836753Y-135560963D01*
X214835780Y-146285585D02*
X215601824Y-145642798D01*
X206602798Y-134918176D02*
X207245585Y-135684220D01*
%TO.C,HOME1*%
X153050000Y-89520000D02*
X153050000Y-90520000D01*
X152050000Y-103520000D02*
X153050000Y-103520000D01*
X153050000Y-89520000D02*
X152050000Y-89520000D01*
X153050000Y-102520000D02*
X153050000Y-103520000D01*
X139050000Y-103520000D02*
X139050000Y-102520000D01*
X140050000Y-89520000D02*
X139050000Y-89520000D01*
X139050000Y-103520000D02*
X140050000Y-103520000D01*
X139050000Y-90520000D02*
X139050000Y-89520000D01*
%TO.C,R3*%
X172100000Y-108570000D02*
X172100000Y-109570000D01*
X171100000Y-122570000D02*
X172100000Y-122570000D01*
X172100000Y-108570000D02*
X171100000Y-108570000D01*
X172100000Y-121570000D02*
X172100000Y-122570000D01*
X158100000Y-122570000D02*
X158100000Y-121570000D01*
X159100000Y-108570000D02*
X158100000Y-108570000D01*
X158100000Y-122570000D02*
X159100000Y-122570000D01*
X158100000Y-109570000D02*
X158100000Y-108570000D01*
%TO.C,L3*%
X134000000Y-108570000D02*
X134000000Y-109570000D01*
X133000000Y-122570000D02*
X134000000Y-122570000D01*
X134000000Y-108570000D02*
X133000000Y-108570000D01*
X134000000Y-121570000D02*
X134000000Y-122570000D01*
X120000000Y-122570000D02*
X120000000Y-121570000D01*
X121000000Y-108570000D02*
X120000000Y-108570000D01*
X120000000Y-122570000D02*
X121000000Y-122570000D01*
X120000000Y-109570000D02*
X120000000Y-108570000D01*
%TO.C,START1*%
X158100000Y-90520000D02*
X158100000Y-89520000D01*
X158100000Y-103520000D02*
X159100000Y-103520000D01*
X159100000Y-89520000D02*
X158100000Y-89520000D01*
X158100000Y-103520000D02*
X158100000Y-102520000D01*
X172100000Y-102520000D02*
X172100000Y-103520000D01*
X172100000Y-89520000D02*
X171100000Y-89520000D01*
X171100000Y-103520000D02*
X172100000Y-103520000D01*
X172100000Y-89520000D02*
X172100000Y-90520000D01*
%TO.C,RIGHT2*%
X233060000Y-127620000D02*
X233060000Y-128620000D01*
X232060000Y-141620000D02*
X233060000Y-141620000D01*
X233060000Y-127620000D02*
X232060000Y-127620000D01*
X233060000Y-140620000D02*
X233060000Y-141620000D01*
X219060000Y-141620000D02*
X219060000Y-140620000D01*
X220060000Y-127620000D02*
X219060000Y-127620000D01*
X219060000Y-141620000D02*
X220060000Y-141620000D01*
X219060000Y-128620000D02*
X219060000Y-127620000D01*
%TO.C,SELECT1*%
X120000000Y-90520000D02*
X120000000Y-89520000D01*
X120000000Y-103520000D02*
X121000000Y-103520000D01*
X121000000Y-89520000D02*
X120000000Y-89520000D01*
X120000000Y-103520000D02*
X120000000Y-102520000D01*
X134000000Y-102520000D02*
X134000000Y-103520000D01*
X134000000Y-89520000D02*
X133000000Y-89520000D01*
X133000000Y-103520000D02*
X134000000Y-103520000D01*
X134000000Y-89520000D02*
X134000000Y-90520000D01*
%TO.C,LEFT2*%
X69200000Y-128620000D02*
X69200000Y-127620000D01*
X69200000Y-141620000D02*
X70200000Y-141620000D01*
X70200000Y-127620000D02*
X69200000Y-127620000D01*
X69200000Y-141620000D02*
X69200000Y-140620000D01*
X83200000Y-140620000D02*
X83200000Y-141620000D01*
X83200000Y-127620000D02*
X82200000Y-127620000D01*
X82200000Y-141620000D02*
X83200000Y-141620000D01*
X83200000Y-127620000D02*
X83200000Y-128620000D01*
%TO.C,UP2*%
X106381824Y-143917202D02*
X105739037Y-144683247D01*
X96616753Y-153999037D02*
X97382798Y-154641824D01*
X106381824Y-143917202D02*
X105615780Y-143274415D01*
X98025585Y-153875780D02*
X97382798Y-154641824D01*
X86658176Y-145642798D02*
X87300963Y-144876753D01*
X96423247Y-135560963D02*
X95657202Y-134918176D01*
X86658176Y-145642798D02*
X87424220Y-146285585D01*
X95014415Y-135684220D02*
X95657202Y-134918176D01*
%TO.C,L1*%
X245508178Y-88913322D02*
X246008178Y-89779348D01*
X251642152Y-101537678D02*
X252508178Y-101037678D01*
X245508178Y-88913322D02*
X244642152Y-89413322D01*
X252008178Y-100171652D02*
X252508178Y-101037678D01*
X240383822Y-108037678D02*
X239883822Y-107171652D01*
X234249848Y-95413322D02*
X233383822Y-95913322D01*
X240383822Y-108037678D02*
X241249848Y-107537678D01*
X233883822Y-96779348D02*
X233383822Y-95913322D01*
%TO.C,Y1*%
X217578178Y-79271022D02*
X218078178Y-80137048D01*
X223712152Y-91895378D02*
X224578178Y-91395378D01*
X217578178Y-79271022D02*
X216712152Y-79771022D01*
X224078178Y-90529352D02*
X224578178Y-91395378D01*
X212453822Y-98395378D02*
X211953822Y-97529352D01*
X206319848Y-85771022D02*
X205453822Y-86271022D01*
X212453822Y-98395378D02*
X213319848Y-97895378D01*
X205953822Y-87137048D02*
X205453822Y-86271022D01*
%TO.C,A1*%
X212762178Y-109822822D02*
X213262178Y-110688848D01*
X218896152Y-122447178D02*
X219762178Y-121947178D01*
X212762178Y-109822822D02*
X211896152Y-110322822D01*
X219262178Y-121081152D02*
X219762178Y-121947178D01*
X207637822Y-128947178D02*
X207137822Y-128081152D01*
X201503848Y-116322822D02*
X200637822Y-116822822D01*
X207637822Y-128947178D02*
X208503848Y-128447178D01*
X201137822Y-117688848D02*
X200637822Y-116822822D01*
%TO.C,R1*%
X236110178Y-72413022D02*
X236610178Y-73279048D01*
X242244152Y-85037378D02*
X243110178Y-84537378D01*
X236110178Y-72413022D02*
X235244152Y-72913022D01*
X242610178Y-83671352D02*
X243110178Y-84537378D01*
X230985822Y-91537378D02*
X230485822Y-90671352D01*
X224851848Y-78913022D02*
X223985822Y-79413022D01*
X230985822Y-91537378D02*
X231851848Y-91037378D01*
X224485822Y-80279048D02*
X223985822Y-79413022D01*
%TO.C,X1*%
X203364178Y-93322822D02*
X203864178Y-94188848D01*
X209498152Y-105947178D02*
X210364178Y-105447178D01*
X203364178Y-93322822D02*
X202498152Y-93822822D01*
X209864178Y-104581152D02*
X210364178Y-105447178D01*
X198239822Y-112447178D02*
X197739822Y-111581152D01*
X192105848Y-99822822D02*
X191239822Y-100322822D01*
X198239822Y-112447178D02*
X199105848Y-111947178D01*
X191739822Y-101188848D02*
X191239822Y-100322822D01*
%TO.C,B1*%
X226976178Y-95771822D02*
X227476178Y-96637848D01*
X233110152Y-108396178D02*
X233976178Y-107896178D01*
X226976178Y-95771822D02*
X226110152Y-96271822D01*
X233476178Y-107030152D02*
X233976178Y-107896178D01*
X221851822Y-114896178D02*
X221351822Y-114030152D01*
X215717848Y-102271822D02*
X214851822Y-102771822D01*
X221851822Y-114896178D02*
X222717848Y-114396178D01*
X215351822Y-103637848D02*
X214851822Y-102771822D01*
%TO.C,TOUCHPAD1*%
X139050000Y-109570000D02*
X139050000Y-108570000D01*
X139050000Y-122570000D02*
X140050000Y-122570000D01*
X140050000Y-108570000D02*
X139050000Y-108570000D01*
X139050000Y-122570000D02*
X139050000Y-121570000D01*
X153050000Y-121570000D02*
X153050000Y-122570000D01*
X153050000Y-108570000D02*
X152050000Y-108570000D01*
X152050000Y-122570000D02*
X153050000Y-122570000D01*
X153050000Y-108570000D02*
X153050000Y-109570000D01*
D14*
%TO.C,P4*%
X152110000Y-82584000D02*
X152110000Y-82740000D01*
X152110000Y-84900000D02*
X152110000Y-85056000D01*
X155342335Y-82741392D02*
G75*
G03*
X152110000Y-82584484I-1672335J-1078608D01*
G01*
X155342335Y-84898608D02*
G75*
G02*
X152110000Y-85055516I-1672335J1078608D01*
G01*
X154711130Y-82740163D02*
G75*
G03*
X152629039Y-82740000I-1041130J-1079837D01*
G01*
X154711130Y-84899837D02*
G75*
G02*
X152629039Y-84900000I-1041130J1079837D01*
G01*
%TO.C,P3*%
X147030000Y-84900000D02*
X147030000Y-85056000D01*
X147030000Y-82584000D02*
X147030000Y-82740000D01*
X149631130Y-84899837D02*
G75*
G02*
X147549039Y-84900000I-1041130J1079837D01*
G01*
X149631130Y-82740163D02*
G75*
G03*
X147549039Y-82740000I-1041130J-1079837D01*
G01*
X150262335Y-84898608D02*
G75*
G02*
X147030000Y-85055516I-1672335J1078608D01*
G01*
X150262335Y-82741392D02*
G75*
G03*
X147030000Y-82584484I-1672335J-1078608D01*
G01*
%TO.C,P2*%
X141950000Y-82584000D02*
X141950000Y-82740000D01*
X141950000Y-84900000D02*
X141950000Y-85056000D01*
X145182335Y-82741392D02*
G75*
G03*
X141950000Y-82584484I-1672335J-1078608D01*
G01*
X145182335Y-84898608D02*
G75*
G02*
X141950000Y-85055516I-1672335J1078608D01*
G01*
X144551130Y-82740163D02*
G75*
G03*
X142469039Y-82740000I-1041130J-1079837D01*
G01*
X144551130Y-84899837D02*
G75*
G02*
X142469039Y-84900000I-1041130J1079837D01*
G01*
%TO.C,P1*%
X136870000Y-84900000D02*
X136870000Y-85056000D01*
X136870000Y-82584000D02*
X136870000Y-82740000D01*
X139471130Y-84899837D02*
G75*
G02*
X137389039Y-84900000I-1041130J1079837D01*
G01*
X139471130Y-82740163D02*
G75*
G03*
X137389039Y-82740000I-1041130J-1079837D01*
G01*
X140102335Y-84898608D02*
G75*
G02*
X136870000Y-85055516I-1672335J1078608D01*
G01*
X140102335Y-82741392D02*
G75*
G03*
X136870000Y-82584484I-1672335J-1078608D01*
G01*
%TO.C,L2*%
D13*
X258194352Y-87229566D02*
X257781959Y-87467661D01*
X257281959Y-86601636D01*
X257989407Y-86303162D02*
X258006837Y-86238113D01*
X258065506Y-86149255D01*
X258271703Y-86030207D01*
X258377991Y-86023828D01*
X258443040Y-86041258D01*
X258531898Y-86099927D01*
X258579517Y-86182405D01*
X258609706Y-86329933D01*
X258400549Y-87110519D01*
X258936660Y-86800995D01*
%TO.C,BH1*%
X103211428Y-86868571D02*
X103354285Y-86916190D01*
X103401904Y-86963809D01*
X103449523Y-87059047D01*
X103449523Y-87201904D01*
X103401904Y-87297142D01*
X103354285Y-87344761D01*
X103259047Y-87392380D01*
X102878095Y-87392380D01*
X102878095Y-86392380D01*
X103211428Y-86392380D01*
X103306666Y-86440000D01*
X103354285Y-86487619D01*
X103401904Y-86582857D01*
X103401904Y-86678095D01*
X103354285Y-86773333D01*
X103306666Y-86820952D01*
X103211428Y-86868571D01*
X102878095Y-86868571D01*
X103878095Y-87392380D02*
X103878095Y-86392380D01*
X103878095Y-86868571D02*
X104449523Y-86868571D01*
X104449523Y-87392380D02*
X104449523Y-86392380D01*
X105449523Y-87392380D02*
X104878095Y-87392380D01*
X105163809Y-87392380D02*
X105163809Y-86392380D01*
X105068571Y-86535238D01*
X104973333Y-86630476D01*
X104878095Y-86678095D01*
%TO.C,BH2*%
X190971428Y-86868571D02*
X191114285Y-86916190D01*
X191161904Y-86963809D01*
X191209523Y-87059047D01*
X191209523Y-87201904D01*
X191161904Y-87297142D01*
X191114285Y-87344761D01*
X191019047Y-87392380D01*
X190638095Y-87392380D01*
X190638095Y-86392380D01*
X190971428Y-86392380D01*
X191066666Y-86440000D01*
X191114285Y-86487619D01*
X191161904Y-86582857D01*
X191161904Y-86678095D01*
X191114285Y-86773333D01*
X191066666Y-86820952D01*
X190971428Y-86868571D01*
X190638095Y-86868571D01*
X191638095Y-87392380D02*
X191638095Y-86392380D01*
X191638095Y-86868571D02*
X192209523Y-86868571D01*
X192209523Y-87392380D02*
X192209523Y-86392380D01*
X192638095Y-86487619D02*
X192685714Y-86440000D01*
X192780952Y-86392380D01*
X193019047Y-86392380D01*
X193114285Y-86440000D01*
X193161904Y-86487619D01*
X193209523Y-86582857D01*
X193209523Y-86678095D01*
X193161904Y-86820952D01*
X192590476Y-87392380D01*
X193209523Y-87392380D01*
%TO.C,BH4*%
X190841428Y-123778571D02*
X190984285Y-123826190D01*
X191031904Y-123873809D01*
X191079523Y-123969047D01*
X191079523Y-124111904D01*
X191031904Y-124207142D01*
X190984285Y-124254761D01*
X190889047Y-124302380D01*
X190508095Y-124302380D01*
X190508095Y-123302380D01*
X190841428Y-123302380D01*
X190936666Y-123350000D01*
X190984285Y-123397619D01*
X191031904Y-123492857D01*
X191031904Y-123588095D01*
X190984285Y-123683333D01*
X190936666Y-123730952D01*
X190841428Y-123778571D01*
X190508095Y-123778571D01*
X191508095Y-124302380D02*
X191508095Y-123302380D01*
X191508095Y-123778571D02*
X192079523Y-123778571D01*
X192079523Y-124302380D02*
X192079523Y-123302380D01*
X192984285Y-123635714D02*
X192984285Y-124302380D01*
X192746190Y-123254761D02*
X192508095Y-123969047D01*
X193127142Y-123969047D01*
%TO.C,R2*%
X248796352Y-70729266D02*
X248269582Y-70483540D01*
X248301481Y-71014981D02*
X247801481Y-70148955D01*
X248131395Y-69958479D01*
X248237683Y-69952099D01*
X248302732Y-69969529D01*
X248391591Y-70028198D01*
X248463019Y-70151916D01*
X248469399Y-70258204D01*
X248451969Y-70323253D01*
X248393300Y-70412111D01*
X248063386Y-70602587D01*
X248673886Y-69755243D02*
X248691316Y-69690194D01*
X248749985Y-69601336D01*
X248956181Y-69482288D01*
X249062469Y-69475909D01*
X249127518Y-69493338D01*
X249216377Y-69552008D01*
X249263996Y-69634486D01*
X249294185Y-69782014D01*
X249085028Y-70562600D01*
X249621139Y-70253076D01*
%TO.C,LEFT1*%
X61465130Y-76094447D02*
X61052737Y-75856352D01*
X61552737Y-74990327D01*
X62015710Y-75807481D02*
X62304385Y-75974148D01*
X62166198Y-76499209D02*
X61753805Y-76261114D01*
X62253805Y-75395088D01*
X62666198Y-75633184D01*
X63087932Y-76426529D02*
X62799257Y-76259862D01*
X62537352Y-76713495D02*
X63037352Y-75847469D01*
X63449745Y-76085565D01*
X63655941Y-76204612D02*
X64150813Y-76490327D01*
X63403377Y-77213495D02*
X63903377Y-76347469D01*
X64393121Y-77784923D02*
X63898249Y-77499209D01*
X64145685Y-77642066D02*
X64645685Y-76776041D01*
X64491778Y-76852140D01*
X64361680Y-76886999D01*
X64255392Y-76880620D01*
%TO.C,DOWN1*%
X77170963Y-85160061D02*
X77670963Y-84294036D01*
X77877160Y-84413084D01*
X77977068Y-84525752D01*
X78011928Y-84655849D01*
X78005548Y-84762137D01*
X77951549Y-84950904D01*
X77880121Y-85074622D01*
X77743643Y-85215770D01*
X77654785Y-85274439D01*
X77524687Y-85309298D01*
X77377160Y-85279109D01*
X77170963Y-85160061D01*
X78701946Y-84889274D02*
X78866903Y-84984512D01*
X78925572Y-85073371D01*
X78960432Y-85203468D01*
X78906433Y-85392235D01*
X78739766Y-85680910D01*
X78603289Y-85822058D01*
X78473191Y-85856917D01*
X78366903Y-85850538D01*
X78201946Y-85755300D01*
X78143277Y-85666441D01*
X78108417Y-85536344D01*
X78162416Y-85347577D01*
X78329083Y-85058902D01*
X78465560Y-84917754D01*
X78595658Y-84882894D01*
X78701946Y-84889274D01*
X79361775Y-85270227D02*
X79067971Y-86255300D01*
X79590072Y-85731948D01*
X79397886Y-86445776D01*
X80104082Y-85698798D01*
X79933997Y-86755300D02*
X80433997Y-85889274D01*
X80428869Y-87041014D01*
X80928869Y-86174988D01*
X81294894Y-87541014D02*
X80800022Y-87255300D01*
X81047458Y-87398157D02*
X81547458Y-86532131D01*
X81393551Y-86608230D01*
X81263453Y-86643090D01*
X81157165Y-86636710D01*
%TO.C,RIGHT1*%
X94272415Y-94958971D02*
X94221836Y-94379911D01*
X93777544Y-94673257D02*
X94277544Y-93807231D01*
X94607458Y-93997707D01*
X94666127Y-94086566D01*
X94683557Y-94151615D01*
X94677177Y-94257903D01*
X94605749Y-94381621D01*
X94516890Y-94440290D01*
X94451842Y-94457720D01*
X94345553Y-94451340D01*
X94015639Y-94260864D01*
X94643569Y-95173257D02*
X95143569Y-94307231D01*
X95985785Y-94848471D02*
X95927116Y-94759612D01*
X95803398Y-94688184D01*
X95655871Y-94657994D01*
X95525773Y-94692854D01*
X95436915Y-94751523D01*
X95300437Y-94892671D01*
X95229009Y-95016389D01*
X95175010Y-95205155D01*
X95168630Y-95311444D01*
X95203490Y-95441541D01*
X95303398Y-95554209D01*
X95385877Y-95601828D01*
X95533404Y-95632017D01*
X95598453Y-95614588D01*
X95765120Y-95325912D01*
X95600162Y-95230674D01*
X95921988Y-95911352D02*
X96421988Y-95045327D01*
X96183892Y-95457720D02*
X96678764Y-95743434D01*
X96416859Y-96197066D02*
X96916859Y-95331041D01*
X97205534Y-95497707D02*
X97700406Y-95783422D01*
X96952970Y-96506590D02*
X97452970Y-95640565D01*
X97942714Y-97078019D02*
X97447842Y-96792304D01*
X97695278Y-96935161D02*
X98195278Y-96069136D01*
X98041371Y-96145235D01*
X97911273Y-96180094D01*
X97804985Y-96173715D01*
%TO.C,UP1*%
X88207367Y-68243755D02*
X87802606Y-68944823D01*
X87796226Y-69051111D01*
X87813656Y-69116160D01*
X87872325Y-69205019D01*
X88037282Y-69300257D01*
X88143570Y-69306636D01*
X88208619Y-69289207D01*
X88297477Y-69230538D01*
X88702239Y-68529469D01*
X88614632Y-69633590D02*
X89114632Y-68767565D01*
X89444547Y-68958041D01*
X89503216Y-69046899D01*
X89520645Y-69111948D01*
X89514266Y-69218236D01*
X89442837Y-69341954D01*
X89353979Y-69400623D01*
X89288930Y-69418053D01*
X89182642Y-69411673D01*
X88852727Y-69221197D01*
X89934290Y-70395495D02*
X89439418Y-70109781D01*
X89686854Y-70252638D02*
X90186854Y-69386612D01*
X90032947Y-69462711D01*
X89902849Y-69497571D01*
X89796561Y-69491191D01*
%TO.C,UP3*%
X199115110Y-138847939D02*
X199635462Y-139468070D01*
X199733158Y-139510418D01*
X199800245Y-139516287D01*
X199903810Y-139491547D01*
X200049724Y-139369112D01*
X200092071Y-139271416D01*
X200097941Y-139204328D01*
X200073201Y-139100763D01*
X199552849Y-138480632D01*
X200560420Y-138940587D02*
X199917632Y-138174542D01*
X200209459Y-137929671D01*
X200313024Y-137904931D01*
X200380112Y-137910801D01*
X200477808Y-137953148D01*
X200569635Y-138062583D01*
X200594374Y-138166149D01*
X200588505Y-138233236D01*
X200546157Y-138330932D01*
X200254331Y-138575804D01*
X200610720Y-137592972D02*
X201084938Y-137195056D01*
X201074462Y-137701145D01*
X201183896Y-137609318D01*
X201287462Y-137584579D01*
X201354549Y-137590448D01*
X201452245Y-137632796D01*
X201605290Y-137815188D01*
X201630030Y-137918753D01*
X201624160Y-137985840D01*
X201581813Y-138083536D01*
X201362943Y-138267190D01*
X201259377Y-138291930D01*
X201192290Y-138286060D01*
%TO.C,HOME1*%
X143740476Y-88717380D02*
X143740476Y-87717380D01*
X143740476Y-88193571D02*
X144311904Y-88193571D01*
X144311904Y-88717380D02*
X144311904Y-87717380D01*
X144978571Y-87717380D02*
X145169047Y-87717380D01*
X145264285Y-87765000D01*
X145359523Y-87860238D01*
X145407142Y-88050714D01*
X145407142Y-88384047D01*
X145359523Y-88574523D01*
X145264285Y-88669761D01*
X145169047Y-88717380D01*
X144978571Y-88717380D01*
X144883333Y-88669761D01*
X144788095Y-88574523D01*
X144740476Y-88384047D01*
X144740476Y-88050714D01*
X144788095Y-87860238D01*
X144883333Y-87765000D01*
X144978571Y-87717380D01*
X145835714Y-88717380D02*
X145835714Y-87717380D01*
X146169047Y-88431666D01*
X146502380Y-87717380D01*
X146502380Y-88717380D01*
X146978571Y-88193571D02*
X147311904Y-88193571D01*
X147454761Y-88717380D02*
X146978571Y-88717380D01*
X146978571Y-87717380D01*
X147454761Y-87717380D01*
X148407142Y-88717380D02*
X147835714Y-88717380D01*
X148121428Y-88717380D02*
X148121428Y-87717380D01*
X148026190Y-87860238D01*
X147930952Y-87955476D01*
X147835714Y-88003095D01*
%TO.C,R3*%
X164933333Y-107767380D02*
X164600000Y-107291190D01*
X164361904Y-107767380D02*
X164361904Y-106767380D01*
X164742857Y-106767380D01*
X164838095Y-106815000D01*
X164885714Y-106862619D01*
X164933333Y-106957857D01*
X164933333Y-107100714D01*
X164885714Y-107195952D01*
X164838095Y-107243571D01*
X164742857Y-107291190D01*
X164361904Y-107291190D01*
X165266666Y-106767380D02*
X165885714Y-106767380D01*
X165552380Y-107148333D01*
X165695238Y-107148333D01*
X165790476Y-107195952D01*
X165838095Y-107243571D01*
X165885714Y-107338809D01*
X165885714Y-107576904D01*
X165838095Y-107672142D01*
X165790476Y-107719761D01*
X165695238Y-107767380D01*
X165409523Y-107767380D01*
X165314285Y-107719761D01*
X165266666Y-107672142D01*
%TO.C,L3*%
X126833333Y-107767380D02*
X126357142Y-107767380D01*
X126357142Y-106767380D01*
X127071428Y-106767380D02*
X127690476Y-106767380D01*
X127357142Y-107148333D01*
X127500000Y-107148333D01*
X127595238Y-107195952D01*
X127642857Y-107243571D01*
X127690476Y-107338809D01*
X127690476Y-107576904D01*
X127642857Y-107672142D01*
X127595238Y-107719761D01*
X127500000Y-107767380D01*
X127214285Y-107767380D01*
X127119047Y-107719761D01*
X127071428Y-107672142D01*
%TO.C,START1*%
X162647619Y-88669761D02*
X162790476Y-88717380D01*
X163028571Y-88717380D01*
X163123809Y-88669761D01*
X163171428Y-88622142D01*
X163219047Y-88526904D01*
X163219047Y-88431666D01*
X163171428Y-88336428D01*
X163123809Y-88288809D01*
X163028571Y-88241190D01*
X162838095Y-88193571D01*
X162742857Y-88145952D01*
X162695238Y-88098333D01*
X162647619Y-88003095D01*
X162647619Y-87907857D01*
X162695238Y-87812619D01*
X162742857Y-87765000D01*
X162838095Y-87717380D01*
X163076190Y-87717380D01*
X163219047Y-87765000D01*
X163504761Y-87717380D02*
X164076190Y-87717380D01*
X163790476Y-88717380D02*
X163790476Y-87717380D01*
X164361904Y-88431666D02*
X164838095Y-88431666D01*
X164266666Y-88717380D02*
X164600000Y-87717380D01*
X164933333Y-88717380D01*
X165838095Y-88717380D02*
X165504761Y-88241190D01*
X165266666Y-88717380D02*
X165266666Y-87717380D01*
X165647619Y-87717380D01*
X165742857Y-87765000D01*
X165790476Y-87812619D01*
X165838095Y-87907857D01*
X165838095Y-88050714D01*
X165790476Y-88145952D01*
X165742857Y-88193571D01*
X165647619Y-88241190D01*
X165266666Y-88241190D01*
X166123809Y-87717380D02*
X166695238Y-87717380D01*
X166409523Y-88717380D02*
X166409523Y-87717380D01*
X167552380Y-88717380D02*
X166980952Y-88717380D01*
X167266666Y-88717380D02*
X167266666Y-87717380D01*
X167171428Y-87860238D01*
X167076190Y-87955476D01*
X166980952Y-88003095D01*
%TO.C,RIGHT2*%
X224250476Y-126817380D02*
X223917142Y-126341190D01*
X223679047Y-126817380D02*
X223679047Y-125817380D01*
X224060000Y-125817380D01*
X224155238Y-125865000D01*
X224202857Y-125912619D01*
X224250476Y-126007857D01*
X224250476Y-126150714D01*
X224202857Y-126245952D01*
X224155238Y-126293571D01*
X224060000Y-126341190D01*
X223679047Y-126341190D01*
X224679047Y-126817380D02*
X224679047Y-125817380D01*
X225679047Y-125865000D02*
X225583809Y-125817380D01*
X225440952Y-125817380D01*
X225298095Y-125865000D01*
X225202857Y-125960238D01*
X225155238Y-126055476D01*
X225107619Y-126245952D01*
X225107619Y-126388809D01*
X225155238Y-126579285D01*
X225202857Y-126674523D01*
X225298095Y-126769761D01*
X225440952Y-126817380D01*
X225536190Y-126817380D01*
X225679047Y-126769761D01*
X225726666Y-126722142D01*
X225726666Y-126388809D01*
X225536190Y-126388809D01*
X226155238Y-126817380D02*
X226155238Y-125817380D01*
X226155238Y-126293571D02*
X226726666Y-126293571D01*
X226726666Y-126817380D02*
X226726666Y-125817380D01*
X227060000Y-125817380D02*
X227631428Y-125817380D01*
X227345714Y-126817380D02*
X227345714Y-125817380D01*
X227917142Y-125912619D02*
X227964761Y-125865000D01*
X228060000Y-125817380D01*
X228298095Y-125817380D01*
X228393333Y-125865000D01*
X228440952Y-125912619D01*
X228488571Y-126007857D01*
X228488571Y-126103095D01*
X228440952Y-126245952D01*
X227869523Y-126817380D01*
X228488571Y-126817380D01*
%TO.C,SELECT1*%
X124047619Y-88669761D02*
X124190476Y-88717380D01*
X124428571Y-88717380D01*
X124523809Y-88669761D01*
X124571428Y-88622142D01*
X124619047Y-88526904D01*
X124619047Y-88431666D01*
X124571428Y-88336428D01*
X124523809Y-88288809D01*
X124428571Y-88241190D01*
X124238095Y-88193571D01*
X124142857Y-88145952D01*
X124095238Y-88098333D01*
X124047619Y-88003095D01*
X124047619Y-87907857D01*
X124095238Y-87812619D01*
X124142857Y-87765000D01*
X124238095Y-87717380D01*
X124476190Y-87717380D01*
X124619047Y-87765000D01*
X125047619Y-88193571D02*
X125380952Y-88193571D01*
X125523809Y-88717380D02*
X125047619Y-88717380D01*
X125047619Y-87717380D01*
X125523809Y-87717380D01*
X126428571Y-88717380D02*
X125952380Y-88717380D01*
X125952380Y-87717380D01*
X126761904Y-88193571D02*
X127095238Y-88193571D01*
X127238095Y-88717380D02*
X126761904Y-88717380D01*
X126761904Y-87717380D01*
X127238095Y-87717380D01*
X128238095Y-88622142D02*
X128190476Y-88669761D01*
X128047619Y-88717380D01*
X127952380Y-88717380D01*
X127809523Y-88669761D01*
X127714285Y-88574523D01*
X127666666Y-88479285D01*
X127619047Y-88288809D01*
X127619047Y-88145952D01*
X127666666Y-87955476D01*
X127714285Y-87860238D01*
X127809523Y-87765000D01*
X127952380Y-87717380D01*
X128047619Y-87717380D01*
X128190476Y-87765000D01*
X128238095Y-87812619D01*
X128523809Y-87717380D02*
X129095238Y-87717380D01*
X128809523Y-88717380D02*
X128809523Y-87717380D01*
X129952380Y-88717380D02*
X129380952Y-88717380D01*
X129666666Y-88717380D02*
X129666666Y-87717380D01*
X129571428Y-87860238D01*
X129476190Y-87955476D01*
X129380952Y-88003095D01*
%TO.C,LEFT2*%
X74771428Y-126817380D02*
X74295238Y-126817380D01*
X74295238Y-125817380D01*
X75104761Y-126293571D02*
X75438095Y-126293571D01*
X75580952Y-126817380D02*
X75104761Y-126817380D01*
X75104761Y-125817380D01*
X75580952Y-125817380D01*
X76342857Y-126293571D02*
X76009523Y-126293571D01*
X76009523Y-126817380D02*
X76009523Y-125817380D01*
X76485714Y-125817380D01*
X76723809Y-125817380D02*
X77295238Y-125817380D01*
X77009523Y-126817380D02*
X77009523Y-125817380D01*
X77580952Y-125912619D02*
X77628571Y-125865000D01*
X77723809Y-125817380D01*
X77961904Y-125817380D01*
X78057142Y-125865000D01*
X78104761Y-125912619D01*
X78152380Y-126007857D01*
X78152380Y-126103095D01*
X78104761Y-126245952D01*
X77533333Y-126817380D01*
X78152380Y-126817380D01*
%TO.C,UP2*%
X101211539Y-137225665D02*
X100691187Y-137845796D01*
X100666448Y-137949362D01*
X100672317Y-138016449D01*
X100714665Y-138114145D01*
X100860578Y-138236581D01*
X100964144Y-138261321D01*
X101031231Y-138255451D01*
X101128927Y-138213104D01*
X101649279Y-137592972D01*
X101371274Y-138665106D02*
X102014062Y-137899062D01*
X102305888Y-138143933D01*
X102348236Y-138241629D01*
X102354105Y-138308717D01*
X102329366Y-138412282D01*
X102237539Y-138521717D01*
X102139843Y-138564065D01*
X102072756Y-138569934D01*
X101969190Y-138545195D01*
X101677364Y-138300323D01*
X102682410Y-138584197D02*
X102749497Y-138578328D01*
X102853063Y-138603067D01*
X103035454Y-138756112D01*
X103077802Y-138853808D01*
X103083672Y-138920895D01*
X103058932Y-139024461D01*
X102997714Y-139097417D01*
X102869409Y-139176243D01*
X102064362Y-139246676D01*
X102538580Y-139644592D01*
%TO.C,L1*%
X238900352Y-91801566D02*
X238487959Y-92039661D01*
X237987959Y-91173636D01*
X239642660Y-91372995D02*
X239147788Y-91658709D01*
X239395224Y-91515852D02*
X238895224Y-90649827D01*
X238884174Y-90821164D01*
X238849314Y-90951261D01*
X238790645Y-91040120D01*
%TO.C,Y1*%
X210464202Y-81901635D02*
X210702297Y-82314028D01*
X209913622Y-81614669D02*
X210464202Y-81901635D01*
X210490972Y-81281336D01*
X211733280Y-81718790D02*
X211238408Y-82004504D01*
X211485844Y-81861647D02*
X210985844Y-80995622D01*
X210974794Y-81166959D01*
X210939934Y-81297056D01*
X210881265Y-81385915D01*
%TO.C,A1*%
X205537243Y-112737440D02*
X205949636Y-112499345D01*
X205597622Y-113032495D02*
X205386297Y-111999803D01*
X206174972Y-112699161D01*
X206917280Y-112270590D02*
X206422408Y-112556304D01*
X206669844Y-112413447D02*
X206169844Y-111547422D01*
X206158794Y-111718759D01*
X206123934Y-111848856D01*
X206065265Y-111937715D01*
%TO.C,R1*%
X229502352Y-75301266D02*
X228975582Y-75055540D01*
X229007481Y-75586981D02*
X228507481Y-74720955D01*
X228837395Y-74530479D01*
X228943683Y-74524099D01*
X229008732Y-74541529D01*
X229097591Y-74600198D01*
X229169019Y-74723916D01*
X229175399Y-74830204D01*
X229157969Y-74895253D01*
X229099300Y-74984111D01*
X228769386Y-75174587D01*
X230327139Y-74825076D02*
X229832267Y-75110790D01*
X230079703Y-74967933D02*
X229579703Y-74101907D01*
X229568653Y-74273244D01*
X229533793Y-74403342D01*
X229475124Y-74492200D01*
%TO.C,X1*%
X195699622Y-95666469D02*
X196776972Y-96199161D01*
X196276972Y-95333136D02*
X196199622Y-96532495D01*
X197560519Y-95746781D02*
X197065647Y-96032495D01*
X197313083Y-95889638D02*
X196813083Y-95023612D01*
X196802033Y-95194949D01*
X196767173Y-95325047D01*
X196708504Y-95413905D01*
%TO.C,B1*%
X219900251Y-98325481D02*
X220047779Y-98295292D01*
X220112827Y-98312722D01*
X220201686Y-98371391D01*
X220273114Y-98495109D01*
X220279494Y-98601397D01*
X220262064Y-98666446D01*
X220203395Y-98755304D01*
X219873481Y-98945781D01*
X219373481Y-98079755D01*
X219662156Y-97913088D01*
X219768444Y-97906709D01*
X219833493Y-97924138D01*
X219922351Y-97982808D01*
X219969970Y-98065286D01*
X219976350Y-98171574D01*
X219958920Y-98236623D01*
X219900251Y-98325481D01*
X219611576Y-98492148D01*
X221193139Y-98183876D02*
X220698267Y-98469590D01*
X220945703Y-98326733D02*
X220445703Y-97460707D01*
X220434653Y-97632044D01*
X220399793Y-97762142D01*
X220341124Y-97851000D01*
%TO.C,TOUCHPAD1*%
X141788095Y-106767380D02*
X142359523Y-106767380D01*
X142073809Y-107767380D02*
X142073809Y-106767380D01*
X142883333Y-106767380D02*
X143073809Y-106767380D01*
X143169047Y-106815000D01*
X143264285Y-106910238D01*
X143311904Y-107100714D01*
X143311904Y-107434047D01*
X143264285Y-107624523D01*
X143169047Y-107719761D01*
X143073809Y-107767380D01*
X142883333Y-107767380D01*
X142788095Y-107719761D01*
X142692857Y-107624523D01*
X142645238Y-107434047D01*
X142645238Y-107100714D01*
X142692857Y-106910238D01*
X142788095Y-106815000D01*
X142883333Y-106767380D01*
X143740476Y-106767380D02*
X143740476Y-107576904D01*
X143788095Y-107672142D01*
X143835714Y-107719761D01*
X143930952Y-107767380D01*
X144121428Y-107767380D01*
X144216666Y-107719761D01*
X144264285Y-107672142D01*
X144311904Y-107576904D01*
X144311904Y-106767380D01*
X145359523Y-107672142D02*
X145311904Y-107719761D01*
X145169047Y-107767380D01*
X145073809Y-107767380D01*
X144930952Y-107719761D01*
X144835714Y-107624523D01*
X144788095Y-107529285D01*
X144740476Y-107338809D01*
X144740476Y-107195952D01*
X144788095Y-107005476D01*
X144835714Y-106910238D01*
X144930952Y-106815000D01*
X145073809Y-106767380D01*
X145169047Y-106767380D01*
X145311904Y-106815000D01*
X145359523Y-106862619D01*
X145788095Y-107767380D02*
X145788095Y-106767380D01*
X145788095Y-107243571D02*
X146359523Y-107243571D01*
X146359523Y-107767380D02*
X146359523Y-106767380D01*
X146835714Y-107767380D02*
X146835714Y-106767380D01*
X147216666Y-106767380D01*
X147311904Y-106815000D01*
X147359523Y-106862619D01*
X147407142Y-106957857D01*
X147407142Y-107100714D01*
X147359523Y-107195952D01*
X147311904Y-107243571D01*
X147216666Y-107291190D01*
X146835714Y-107291190D01*
X147788095Y-107481666D02*
X148264285Y-107481666D01*
X147692857Y-107767380D02*
X148026190Y-106767380D01*
X148359523Y-107767380D01*
X148692857Y-107767380D02*
X148692857Y-106767380D01*
X148930952Y-106767380D01*
X149073809Y-106815000D01*
X149169047Y-106910238D01*
X149216666Y-107005476D01*
X149264285Y-107195952D01*
X149264285Y-107338809D01*
X149216666Y-107529285D01*
X149169047Y-107624523D01*
X149073809Y-107719761D01*
X148930952Y-107767380D01*
X148692857Y-107767380D01*
X150216666Y-107767380D02*
X149645238Y-107767380D01*
X149930952Y-107767380D02*
X149930952Y-106767380D01*
X149835714Y-106910238D01*
X149740476Y-107005476D01*
X149645238Y-107053095D01*
%TO.C,BH3*%
X103211428Y-123698571D02*
X103354285Y-123746190D01*
X103401904Y-123793809D01*
X103449523Y-123889047D01*
X103449523Y-124031904D01*
X103401904Y-124127142D01*
X103354285Y-124174761D01*
X103259047Y-124222380D01*
X102878095Y-124222380D01*
X102878095Y-123222380D01*
X103211428Y-123222380D01*
X103306666Y-123270000D01*
X103354285Y-123317619D01*
X103401904Y-123412857D01*
X103401904Y-123508095D01*
X103354285Y-123603333D01*
X103306666Y-123650952D01*
X103211428Y-123698571D01*
X102878095Y-123698571D01*
X103878095Y-124222380D02*
X103878095Y-123222380D01*
X103878095Y-123698571D02*
X104449523Y-123698571D01*
X104449523Y-124222380D02*
X104449523Y-123222380D01*
X104830476Y-123222380D02*
X105449523Y-123222380D01*
X105116190Y-123603333D01*
X105259047Y-123603333D01*
X105354285Y-123650952D01*
X105401904Y-123698571D01*
X105449523Y-123793809D01*
X105449523Y-124031904D01*
X105401904Y-124127142D01*
X105354285Y-124174761D01*
X105259047Y-124222380D01*
X104973333Y-124222380D01*
X104878095Y-124174761D01*
X104830476Y-124127142D01*
%TO.C,P4*%
X152931904Y-81312380D02*
X152931904Y-80312380D01*
X153312857Y-80312380D01*
X153408095Y-80360000D01*
X153455714Y-80407619D01*
X153503333Y-80502857D01*
X153503333Y-80645714D01*
X153455714Y-80740952D01*
X153408095Y-80788571D01*
X153312857Y-80836190D01*
X152931904Y-80836190D01*
X154360476Y-80645714D02*
X154360476Y-81312380D01*
X154122380Y-80264761D02*
X153884285Y-80979047D01*
X154503333Y-80979047D01*
%TO.C,P3*%
X147851904Y-81312380D02*
X147851904Y-80312380D01*
X148232857Y-80312380D01*
X148328095Y-80360000D01*
X148375714Y-80407619D01*
X148423333Y-80502857D01*
X148423333Y-80645714D01*
X148375714Y-80740952D01*
X148328095Y-80788571D01*
X148232857Y-80836190D01*
X147851904Y-80836190D01*
X148756666Y-80312380D02*
X149375714Y-80312380D01*
X149042380Y-80693333D01*
X149185238Y-80693333D01*
X149280476Y-80740952D01*
X149328095Y-80788571D01*
X149375714Y-80883809D01*
X149375714Y-81121904D01*
X149328095Y-81217142D01*
X149280476Y-81264761D01*
X149185238Y-81312380D01*
X148899523Y-81312380D01*
X148804285Y-81264761D01*
X148756666Y-81217142D01*
%TO.C,P2*%
X142771904Y-81312380D02*
X142771904Y-80312380D01*
X143152857Y-80312380D01*
X143248095Y-80360000D01*
X143295714Y-80407619D01*
X143343333Y-80502857D01*
X143343333Y-80645714D01*
X143295714Y-80740952D01*
X143248095Y-80788571D01*
X143152857Y-80836190D01*
X142771904Y-80836190D01*
X143724285Y-80407619D02*
X143771904Y-80360000D01*
X143867142Y-80312380D01*
X144105238Y-80312380D01*
X144200476Y-80360000D01*
X144248095Y-80407619D01*
X144295714Y-80502857D01*
X144295714Y-80598095D01*
X144248095Y-80740952D01*
X143676666Y-81312380D01*
X144295714Y-81312380D01*
%TO.C,P1*%
X137691904Y-81312380D02*
X137691904Y-80312380D01*
X138072857Y-80312380D01*
X138168095Y-80360000D01*
X138215714Y-80407619D01*
X138263333Y-80502857D01*
X138263333Y-80645714D01*
X138215714Y-80740952D01*
X138168095Y-80788571D01*
X138072857Y-80836190D01*
X137691904Y-80836190D01*
X139215714Y-81312380D02*
X138644285Y-81312380D01*
X138930000Y-81312380D02*
X138930000Y-80312380D01*
X138834761Y-80455238D01*
X138739523Y-80550476D01*
X138644285Y-80598095D01*
%TD*%
M02*
