M48
; DRILL file {KiCad (5.1.10)-1} date 10/16/21 10:52:30
; FORMAT={-:-/ absolute / inch / decimal}
; #@! TF.CreationDate,2021-10-16T10:52:30-04:00
; #@! TF.GenerationSoftware,Kicad,Pcbnew,(5.1.10)-1
; #@! TF.FileFunction,Plated,1,2,PTH
FMAT,2
INCH
T1C0.0157
T2C0.0276
T3C0.0315
T4C0.0354
T5C0.0374
T6C0.0394
T7C0.0472
T8C0.0500
T9C0.0551
T10C0.0906
%
G90
G05
T1
X4.1748Y-4.9496
X4.3068Y-4.8251
X5.4792Y-5.2337
X5.9056Y-5.4519
X6.7938Y-4.5037
T2
X8.475Y-2.7609
X8.5538Y-2.7609
X8.6325Y-2.7609
X8.79Y-2.7609
T3
X4.6763Y-5.295
X4.6763Y-5.595
X4.7763Y-5.295
X4.7763Y-5.595
X4.8763Y-5.295
X4.8763Y-5.595
X4.9763Y-5.295
X4.9763Y-5.595
X5.0763Y-5.295
X5.0763Y-5.595
X5.1763Y-5.295
X5.1763Y-5.595
X5.2763Y-5.295
X5.2763Y-5.595
X5.3763Y-5.295
X5.3763Y-5.595
X5.4763Y-5.295
X5.4763Y-5.595
X5.5763Y-5.295
X5.5763Y-5.595
X5.6213Y-5.0531
X5.6763Y-5.295
X5.6763Y-5.595
X5.7Y-5.0531
X5.7763Y-5.295
X5.7763Y-5.595
X5.7787Y-5.0531
X5.8575Y-5.0531
X5.9362Y-5.0531
X6.1331Y-5.0531
X6.2118Y-5.0531
X6.245Y-5.295
X6.245Y-5.595
X6.2906Y-5.0531
X6.345Y-5.295
X6.345Y-5.595
X6.3693Y-5.0531
X6.445Y-5.295
X6.445Y-5.595
X6.545Y-5.295
X6.545Y-5.595
X6.645Y-5.295
X6.645Y-5.595
X6.745Y-5.295
X6.745Y-5.595
X6.845Y-5.295
X6.845Y-5.595
X6.945Y-5.295
X6.945Y-5.595
X7.045Y-5.295
X7.045Y-5.595
X7.145Y-5.295
X7.145Y-5.595
X7.245Y-5.295
X7.245Y-5.595
X7.345Y-5.295
X7.345Y-5.595
T4
X5.4Y-3.3
X5.5Y-3.3
X5.6Y-3.3
X5.7Y-3.3
X5.8Y-3.3
X5.9Y-3.3
X6.0Y-3.3
X6.1Y-3.3
X6.7048Y-3.0175
X6.8623Y-3.0175
X7.0198Y-3.0175
T5
X7.7016Y-3.0713
X7.7016Y-3.15
X7.8Y-3.0713
X7.8Y-3.15
T6
X4.21Y-4.435
X4.21Y-4.535
X4.21Y-4.635
X4.21Y-4.735
X4.3569Y-5.0303
X4.3569Y-5.1303
X4.4569Y-5.0303
X4.4569Y-5.1303
X4.5569Y-5.0303
X4.5569Y-5.1303
X4.6569Y-5.0303
X4.6569Y-5.1303
X4.7569Y-5.0303
X4.7569Y-5.1303
X4.8569Y-5.0303
X4.8569Y-5.1303
X4.9569Y-5.0303
X4.9569Y-5.1303
X5.0569Y-5.0303
X5.0569Y-5.1303
X5.1569Y-5.0303
X5.1569Y-5.1303
X5.2569Y-5.0303
X5.2569Y-5.1303
X6.6638Y-4.9276
X6.7638Y-4.9276
X6.8638Y-4.9276
X6.955Y-5.05
X6.9638Y-4.9276
X7.055Y-5.05
T7
X6.6261Y-2.8502
X6.6261Y-3.0864
X7.0985Y-2.8502
X7.0985Y-3.0864
T8
X2.0672Y-3.3686
X2.1964Y-3.5387
X2.7772Y-3.6438
X2.8606Y-5.4821
X2.9064Y-3.8139
X3.0575Y-5.5648
X3.1547Y-2.9904
X3.2838Y-3.1604
X3.3272Y-4.1911
X3.4564Y-4.3612
X3.6105Y-5.7206
X3.7082Y-5.9105
X4.8031Y-3.9496
X4.8031Y-4.6996
X5.0Y-4.0323
X5.0Y-4.7823
X5.5531Y-3.9496
X5.5531Y-4.6996
X5.75Y-4.0323
X5.75Y-4.7823
X6.3031Y-3.9496
X6.3031Y-4.6996
X6.5Y-4.0323
X6.5Y-4.7823
X7.8099Y-4.2786
X8.0217Y-4.2518
X8.0479Y-5.9661
X8.1799Y-4.9282
X8.2518Y-5.9029
X8.3695Y-3.7254
X8.3917Y-4.9014
X8.5813Y-3.6985
X8.7057Y-5.4746
X8.7395Y-4.375
X8.9025Y-5.5573
X8.9513Y-4.3482
X9.0991Y-3.4554
X9.3109Y-3.4285
X9.4691Y-4.105
X9.6809Y-4.0782
X9.8587Y-3.2754
X10.0706Y-3.2485
X10.2287Y-3.925
X10.4406Y-3.8982
T9
X8.3235Y-2.7609
X8.9416Y-2.7609
T10
X7.5146Y-2.9587
X7.987Y-2.9587
T0
M30
