%TF.GenerationSoftware,KiCad,Pcbnew,(5.1.10)-1*%
%TF.CreationDate,2021-10-16T10:52:32-04:00*%
%TF.ProjectId,mino_board,6d696e6f-5f62-46f6-9172-642e6b696361,rev?*%
%TF.SameCoordinates,Original*%
%TF.FileFunction,Soldermask,Top*%
%TF.FilePolarity,Negative*%
%FSLAX46Y46*%
G04 Gerber Fmt 4.6, Leading zero omitted, Abs format (unit mm)*
G04 Created by KiCad (PCBNEW (5.1.10)-1) date 2021-10-16 10:52:32*
%MOMM*%
%LPD*%
G01*
G04 APERTURE LIST*
%ADD10R,1.600000X1.600000*%
%ADD11O,1.600000X1.600000*%
%ADD12O,1.700000X1.700000*%
%ADD13R,1.700000X1.700000*%
%ADD14C,2.000000*%
%ADD15C,1.700000*%
%ADD16C,3.000000*%
%ADD17C,2.032000*%
%ADD18C,3.429000*%
%ADD19C,1.701800*%
%ADD20C,4.000000*%
%ADD21C,1.600000*%
%ADD22O,1.350000X1.350000*%
%ADD23R,1.350000X1.350000*%
%ADD24R,1.800000X1.800000*%
%ADD25C,1.800000*%
G04 APERTURE END LIST*
D10*
%TO.C,DIP_LEFT1*%
X118778000Y-142113000D03*
D11*
X146718000Y-134493000D03*
X121318000Y-142113000D03*
X144178000Y-134493000D03*
X123858000Y-142113000D03*
X141638000Y-134493000D03*
X126398000Y-142113000D03*
X139098000Y-134493000D03*
X128938000Y-142113000D03*
X136558000Y-134493000D03*
X131478000Y-142113000D03*
X134018000Y-134493000D03*
X134018000Y-142113000D03*
X131478000Y-134493000D03*
X136558000Y-142113000D03*
X128938000Y-134493000D03*
X139098000Y-142113000D03*
X126398000Y-134493000D03*
X141638000Y-142113000D03*
X123858000Y-134493000D03*
X144178000Y-142113000D03*
X121318000Y-134493000D03*
X146718000Y-142113000D03*
X118778000Y-134493000D03*
%TD*%
%TO.C,DIP_RIGHT1*%
X158623000Y-134493000D03*
X186563000Y-142113000D03*
X161163000Y-134493000D03*
X184023000Y-142113000D03*
X163703000Y-134493000D03*
X181483000Y-142113000D03*
X166243000Y-134493000D03*
X178943000Y-142113000D03*
X168783000Y-134493000D03*
X176403000Y-142113000D03*
X171323000Y-134493000D03*
X173863000Y-142113000D03*
X173863000Y-134493000D03*
X171323000Y-142113000D03*
X176403000Y-134493000D03*
X168783000Y-142113000D03*
X178943000Y-134493000D03*
X166243000Y-142113000D03*
X181483000Y-134493000D03*
X163703000Y-142113000D03*
X184023000Y-134493000D03*
X161163000Y-142113000D03*
X186563000Y-134493000D03*
D10*
X158623000Y-142113000D03*
%TD*%
D12*
%TO.C,JSTICKTYPE1*%
X106934000Y-120269000D03*
X106934000Y-117729000D03*
X106934000Y-115189000D03*
D13*
X106934000Y-112649000D03*
%TD*%
D14*
%TO.C,SW_SOCD1*%
X168302000Y-78394500D03*
X180302000Y-78394500D03*
X180302000Y-72394500D03*
X168302000Y-72394500D03*
D15*
X170302000Y-76644500D03*
X174302000Y-76644500D03*
X178302000Y-76644500D03*
%TD*%
D12*
%TO.C,JSOCD1*%
X176657000Y-128270000D03*
D13*
X179197000Y-128270000D03*
%TD*%
D16*
%TO.C,L2*%
X259265000Y-88750649D03*
D17*
X265190000Y-99013050D03*
X259809873Y-99694397D03*
D18*
X262240000Y-93903500D03*
D16*
X264695127Y-88155905D03*
D19*
X267003140Y-91153500D03*
X257476860Y-96653500D03*
%TD*%
D20*
%TO.C,USB_B1*%
X202870000Y-75150000D03*
X190870000Y-75150000D03*
D21*
X198120000Y-78010000D03*
X195620000Y-78010000D03*
X195620000Y-80010000D03*
D10*
X198120000Y-80010000D03*
%TD*%
D16*
%TO.C,R2*%
X249867000Y-72250349D03*
D17*
X255792000Y-82512750D03*
X250411873Y-83194097D03*
D18*
X252842000Y-77403200D03*
D16*
X255297127Y-71655605D03*
D19*
X257605140Y-74653200D03*
X248078860Y-80153200D03*
%TD*%
D16*
%TO.C,LEFT1*%
X61712500Y-79619649D03*
D17*
X55787500Y-89882050D03*
X52507373Y-85563397D03*
D18*
X58737500Y-84772500D03*
D16*
X64942627Y-84024905D03*
D19*
X63500640Y-87522500D03*
X53974360Y-82022500D03*
%TD*%
D16*
%TO.C,DOWN1*%
X79746500Y-86609549D03*
D17*
X73821500Y-96871950D03*
X70541373Y-92553297D03*
D18*
X76771500Y-91762400D03*
D16*
X82976627Y-91014805D03*
D19*
X81534640Y-94512400D03*
X72008360Y-89012400D03*
%TD*%
D16*
%TO.C,RIGHT1*%
X93716500Y-100511149D03*
D17*
X87791500Y-110773550D03*
X84511373Y-106454897D03*
D18*
X90741500Y-105664000D03*
D16*
X96946627Y-104916405D03*
D19*
X95504640Y-108414000D03*
X85978360Y-102914000D03*
%TD*%
%TO.C,UP1*%
X81596260Y-72414500D03*
X91122540Y-77914500D03*
D16*
X92564527Y-74416905D03*
D18*
X86359400Y-75164500D03*
D17*
X80129273Y-75955397D03*
X83409400Y-80274050D03*
D16*
X89334400Y-70011649D03*
%TD*%
D19*
%TO.C,UP3*%
X201590756Y-148950332D03*
X210017244Y-141879668D03*
D16*
X207223769Y-139328395D03*
D18*
X205804000Y-145415000D03*
D17*
X204416371Y-151539907D03*
X209596447Y-149934662D03*
D16*
X201979414Y-140857036D03*
%TD*%
%TO.C,HOME1*%
X146050000Y-90570000D03*
D17*
X146050000Y-102420000D03*
X141050000Y-100320000D03*
D18*
X146050000Y-96520000D03*
D16*
X151050000Y-92770000D03*
D19*
X151550000Y-96520000D03*
X140550000Y-96520000D03*
%TD*%
D16*
%TO.C,R3*%
X165100000Y-109620000D03*
D17*
X165100000Y-121470000D03*
X160100000Y-119370000D03*
D18*
X165100000Y-115570000D03*
D16*
X170100000Y-111820000D03*
D19*
X170600000Y-115570000D03*
X159600000Y-115570000D03*
%TD*%
D16*
%TO.C,L3*%
X127000000Y-109620000D03*
D17*
X127000000Y-121470000D03*
X122000000Y-119370000D03*
D18*
X127000000Y-115570000D03*
D16*
X132000000Y-111820000D03*
D19*
X132500000Y-115570000D03*
X121500000Y-115570000D03*
%TD*%
%TO.C,START1*%
X159600000Y-96520000D03*
X170600000Y-96520000D03*
D16*
X170100000Y-92770000D03*
D18*
X165100000Y-96520000D03*
D17*
X160100000Y-100320000D03*
X165100000Y-102420000D03*
D16*
X165100000Y-90570000D03*
%TD*%
%TO.C,RIGHT2*%
X226124000Y-129305000D03*
D17*
X226124000Y-141155000D03*
X221124000Y-139055000D03*
D18*
X226124000Y-135255000D03*
D16*
X231124000Y-131505000D03*
D19*
X231624000Y-135255000D03*
X220624000Y-135255000D03*
%TD*%
%TO.C,SELECT1*%
X121500000Y-96520000D03*
X132500000Y-96520000D03*
D16*
X132000000Y-92770000D03*
D18*
X127000000Y-96520000D03*
D17*
X122000000Y-100320000D03*
X127000000Y-102420000D03*
D16*
X127000000Y-90570000D03*
%TD*%
D19*
%TO.C,LEFT2*%
X72160500Y-135446000D03*
X83160500Y-135446000D03*
D16*
X82660500Y-131696000D03*
D18*
X77660500Y-135446000D03*
D17*
X72660500Y-139246000D03*
X77660500Y-141346000D03*
D16*
X77660500Y-129496000D03*
%TD*%
%TO.C,UP2*%
X101805086Y-141048036D03*
D17*
X94188053Y-150125662D03*
X91707685Y-145303031D03*
D18*
X97980500Y-145606000D03*
D16*
X104221176Y-145947271D03*
D19*
X102193744Y-149141332D03*
X93767256Y-142070668D03*
%TD*%
D16*
%TO.C,L1*%
X239971000Y-93322649D03*
D17*
X245896000Y-103585050D03*
X240515873Y-104266397D03*
D18*
X242946000Y-98475500D03*
D16*
X245401127Y-92727905D03*
D19*
X247709140Y-95725500D03*
X238182860Y-101225500D03*
%TD*%
D16*
%TO.C,Y1*%
X212041000Y-83680349D03*
D17*
X217966000Y-93942750D03*
X212585873Y-94624097D03*
D18*
X215016000Y-88833200D03*
D16*
X217471127Y-83085605D03*
D19*
X219779140Y-86083200D03*
X210252860Y-91583200D03*
%TD*%
D16*
%TO.C,A1*%
X207225000Y-114232149D03*
D17*
X213150000Y-124494550D03*
X207769873Y-125175897D03*
D18*
X210200000Y-119385000D03*
D16*
X212655127Y-113637405D03*
D19*
X214963140Y-116635000D03*
X205436860Y-122135000D03*
%TD*%
D16*
%TO.C,R1*%
X230573000Y-76822349D03*
D17*
X236498000Y-87084750D03*
X231117873Y-87766097D03*
D18*
X233548000Y-81975200D03*
D16*
X236003127Y-76227605D03*
D19*
X238311140Y-79225200D03*
X228784860Y-84725200D03*
%TD*%
D16*
%TO.C,X1*%
X197827000Y-97732149D03*
D17*
X203752000Y-107994550D03*
X198371873Y-108675897D03*
D18*
X200802000Y-102885000D03*
D16*
X203257127Y-97137405D03*
D19*
X205565140Y-100135000D03*
X196038860Y-105635000D03*
%TD*%
D16*
%TO.C,B1*%
X221439000Y-100181149D03*
D17*
X227364000Y-110443550D03*
X221983873Y-111124897D03*
D18*
X224414000Y-105334000D03*
D16*
X226869127Y-99586405D03*
D19*
X229177140Y-102584000D03*
X219650860Y-108084000D03*
%TD*%
%TO.C,TOUCHPAD1*%
X140550000Y-115570000D03*
X151550000Y-115570000D03*
D16*
X151050000Y-111820000D03*
D18*
X146050000Y-115570000D03*
D17*
X141050000Y-119370000D03*
X146050000Y-121470000D03*
D16*
X146050000Y-109620000D03*
%TD*%
D12*
%TO.C,J4*%
X110665000Y-130310000D03*
X110665000Y-127770000D03*
X113205000Y-130310000D03*
X113205000Y-127770000D03*
X115745000Y-130310000D03*
X115745000Y-127770000D03*
X118285000Y-130310000D03*
X118285000Y-127770000D03*
X120825000Y-130310000D03*
X120825000Y-127770000D03*
X123365000Y-130310000D03*
X123365000Y-127770000D03*
X125905000Y-130310000D03*
X125905000Y-127770000D03*
X128445000Y-130310000D03*
X128445000Y-127770000D03*
X130985000Y-130310000D03*
X130985000Y-127770000D03*
X133525000Y-130310000D03*
D13*
X133525000Y-127770000D03*
%TD*%
D12*
%TO.C,J1-2*%
X169260000Y-125160000D03*
X171800000Y-125160000D03*
X174340000Y-125160000D03*
D13*
X176880000Y-125160000D03*
%TD*%
D22*
%TO.C,J2*%
X150780000Y-128350000D03*
X148780000Y-128350000D03*
X146780000Y-128350000D03*
X144780000Y-128350000D03*
D23*
X142780000Y-128350000D03*
%TD*%
D22*
%TO.C,J10*%
X161780000Y-128350000D03*
X159780000Y-128350000D03*
X157780000Y-128350000D03*
D23*
X155780000Y-128350000D03*
%TD*%
D24*
%TO.C,P4*%
X152400000Y-83820000D03*
D25*
X154940000Y-83820000D03*
%TD*%
%TO.C,P3*%
X149860000Y-83820000D03*
D24*
X147320000Y-83820000D03*
%TD*%
%TO.C,P2*%
X142240000Y-83820000D03*
D25*
X144780000Y-83820000D03*
%TD*%
%TO.C,P1*%
X139700000Y-83820000D03*
D24*
X137160000Y-83820000D03*
%TD*%
M02*
