%TF.GenerationSoftware,KiCad,Pcbnew,(5.1.10)-1*%
%TF.CreationDate,2021-10-08T21:35:03-04:00*%
%TF.ProjectId,mino_board,6d696e6f-5f62-46f6-9172-642e6b696361,rev?*%
%TF.SameCoordinates,Original*%
%TF.FileFunction,Copper,L2,Bot*%
%TF.FilePolarity,Positive*%
%FSLAX46Y46*%
G04 Gerber Fmt 4.6, Leading zero omitted, Abs format (unit mm)*
G04 Created by KiCad (PCBNEW (5.1.10)-1) date 2021-10-08 21:35:03*
%MOMM*%
%LPD*%
G01*
G04 APERTURE LIST*
%TA.AperFunction,SMDPad,CuDef*%
%ADD10C,0.100000*%
%TD*%
%TA.AperFunction,ComponentPad*%
%ADD11C,2.032000*%
%TD*%
%TA.AperFunction,ComponentPad*%
%ADD12C,4.000000*%
%TD*%
%TA.AperFunction,ComponentPad*%
%ADD13C,1.600000*%
%TD*%
%TA.AperFunction,ComponentPad*%
%ADD14R,1.600000X1.600000*%
%TD*%
%TA.AperFunction,SMDPad,CuDef*%
%ADD15R,2.600000X2.600000*%
%TD*%
%TA.AperFunction,ComponentPad*%
%ADD16O,1.700000X1.700000*%
%TD*%
%TA.AperFunction,ComponentPad*%
%ADD17R,1.700000X1.700000*%
%TD*%
%TA.AperFunction,ComponentPad*%
%ADD18O,1.350000X1.350000*%
%TD*%
%TA.AperFunction,ComponentPad*%
%ADD19R,1.350000X1.350000*%
%TD*%
%TA.AperFunction,ComponentPad*%
%ADD20R,1.800000X1.800000*%
%TD*%
%TA.AperFunction,ComponentPad*%
%ADD21C,1.800000*%
%TD*%
%TA.AperFunction,ViaPad*%
%ADD22C,0.800000*%
%TD*%
%TA.AperFunction,Conductor*%
%ADD23C,0.250000*%
%TD*%
G04 APERTURE END LIST*
%TA.AperFunction,SMDPad,CuDef*%
D10*
%TO.P,L2,2*%
%TO.N,Net-(A1-Pad2)*%
G36*
X267055527Y-88294238D02*
G01*
X265755527Y-86042572D01*
X268007193Y-84742572D01*
X269307193Y-86994238D01*
X267055527Y-88294238D01*
G37*
%TD.AperFunction*%
D11*
%TO.P,L2,1*%
%TO.N,Net-(J4-Pad16)*%
X265190000Y-99013050D03*
%TO.P,L2,2*%
%TO.N,Net-(A1-Pad2)*%
X259809873Y-99694397D03*
%TA.AperFunction,SMDPad,CuDef*%
D10*
%TO.P,L2,1*%
%TO.N,Net-(J4-Pad16)*%
G36*
X255952934Y-92163982D02*
G01*
X254652934Y-89912316D01*
X256904600Y-88612316D01*
X258204600Y-90863982D01*
X255952934Y-92163982D01*
G37*
%TD.AperFunction*%
%TD*%
D12*
%TO.P,USB_B1,5*%
%TO.N,Net-(USB_B1-Pad5)*%
X202870000Y-75150000D03*
X190870000Y-75150000D03*
D13*
%TO.P,USB_B1,4*%
%TO.N,Net-(J1-2-Pad4)*%
X198120000Y-78010000D03*
%TO.P,USB_B1,3*%
%TO.N,Net-(J1-2-Pad3)*%
X195620000Y-78010000D03*
%TO.P,USB_B1,2*%
%TO.N,Net-(J1-2-Pad2)*%
X195620000Y-80010000D03*
D14*
%TO.P,USB_B1,1*%
%TO.N,Net-(J1-2-Pad1)*%
X198120000Y-80010000D03*
%TD*%
%TA.AperFunction,SMDPad,CuDef*%
D10*
%TO.P,R2,2*%
%TO.N,Net-(A1-Pad2)*%
G36*
X257657527Y-71793938D02*
G01*
X256357527Y-69542272D01*
X258609193Y-68242272D01*
X259909193Y-70493938D01*
X257657527Y-71793938D01*
G37*
%TD.AperFunction*%
D11*
%TO.P,R2,1*%
%TO.N,Net-(J4-Pad15)*%
X255792000Y-82512750D03*
%TO.P,R2,2*%
%TO.N,Net-(A1-Pad2)*%
X250411873Y-83194097D03*
%TA.AperFunction,SMDPad,CuDef*%
D10*
%TO.P,R2,1*%
%TO.N,Net-(J4-Pad15)*%
G36*
X246554934Y-75663682D02*
G01*
X245254934Y-73412016D01*
X247506600Y-72112016D01*
X248806600Y-74363682D01*
X246554934Y-75663682D01*
G37*
%TD.AperFunction*%
%TD*%
%TA.AperFunction,SMDPad,CuDef*%
%TO.P,LEFT1,2*%
%TO.N,Net-(A1-Pad2)*%
G36*
X66066527Y-84931738D02*
G01*
X67366527Y-82680072D01*
X69618193Y-83980072D01*
X68318193Y-86231738D01*
X66066527Y-84931738D01*
G37*
%TD.AperFunction*%
D11*
%TO.P,LEFT1,1*%
%TO.N,Net-(J4-Pad4)*%
X55851000Y-88675550D03*
%TO.P,LEFT1,2*%
%TO.N,Net-(A1-Pad2)*%
X52570873Y-84356897D03*
%TA.AperFunction,SMDPad,CuDef*%
D10*
%TO.P,LEFT1,1*%
%TO.N,Net-(J4-Pad4)*%
G36*
X57163934Y-77251482D02*
G01*
X58463934Y-74999816D01*
X60715600Y-76299816D01*
X59415600Y-78551482D01*
X57163934Y-77251482D01*
G37*
%TD.AperFunction*%
%TD*%
%TA.AperFunction,SMDPad,CuDef*%
%TO.P,DOWN1,2*%
%TO.N,Net-(A1-Pad2)*%
G36*
X82576527Y-94461638D02*
G01*
X83876527Y-92209972D01*
X86128193Y-93509972D01*
X84828193Y-95761638D01*
X82576527Y-94461638D01*
G37*
%TD.AperFunction*%
D11*
%TO.P,DOWN1,1*%
%TO.N,Net-(DOWN1-Pad1)*%
X72361000Y-98205450D03*
%TO.P,DOWN1,2*%
%TO.N,Net-(A1-Pad2)*%
X69080873Y-93886797D03*
%TA.AperFunction,SMDPad,CuDef*%
D10*
%TO.P,DOWN1,1*%
%TO.N,Net-(DOWN1-Pad1)*%
G36*
X73673934Y-86781382D02*
G01*
X74973934Y-84529716D01*
X77225600Y-85829716D01*
X75925600Y-88081382D01*
X73673934Y-86781382D01*
G37*
%TD.AperFunction*%
%TD*%
%TA.AperFunction,SMDPad,CuDef*%
%TO.P,RIGHT1,2*%
%TO.N,Net-(A1-Pad2)*%
G36*
X99203727Y-103986738D02*
G01*
X100503727Y-101735072D01*
X102755393Y-103035072D01*
X101455393Y-105286738D01*
X99203727Y-103986738D01*
G37*
%TD.AperFunction*%
D11*
%TO.P,RIGHT1,1*%
%TO.N,Net-(J4-Pad3)*%
X88988200Y-107730550D03*
%TO.P,RIGHT1,2*%
%TO.N,Net-(A1-Pad2)*%
X85708073Y-103411897D03*
%TA.AperFunction,SMDPad,CuDef*%
D10*
%TO.P,RIGHT1,1*%
%TO.N,Net-(J4-Pad3)*%
G36*
X90301134Y-96306482D02*
G01*
X91601134Y-94054816D01*
X93852800Y-95354816D01*
X92552800Y-97606482D01*
X90301134Y-96306482D01*
G37*
%TD.AperFunction*%
%TD*%
%TA.AperFunction,SMDPad,CuDef*%
%TO.P,UP1,1*%
%TO.N,Net-(J4-Pad1)*%
G36*
X83261834Y-70183482D02*
G01*
X84561834Y-67931816D01*
X86813500Y-69231816D01*
X85513500Y-71483482D01*
X83261834Y-70183482D01*
G37*
%TD.AperFunction*%
D11*
%TO.P,UP1,2*%
%TO.N,Net-(A1-Pad2)*%
X78668773Y-77288897D03*
%TO.P,UP1,1*%
%TO.N,Net-(J4-Pad1)*%
X81948900Y-81607550D03*
%TA.AperFunction,SMDPad,CuDef*%
D10*
%TO.P,UP1,2*%
%TO.N,Net-(A1-Pad2)*%
G36*
X92164427Y-77863738D02*
G01*
X93464427Y-75612072D01*
X95716093Y-76912072D01*
X94416093Y-79163738D01*
X92164427Y-77863738D01*
G37*
%TD.AperFunction*%
%TD*%
%TA.AperFunction,SMDPad,CuDef*%
%TO.P,UP3,1*%
%TO.N,Net-(J4-Pad1)*%
G36*
X199246384Y-144158647D02*
G01*
X197575136Y-142166931D01*
X199566852Y-140495683D01*
X201238100Y-142487399D01*
X199246384Y-144158647D01*
G37*
%TD.AperFunction*%
D11*
%TO.P,UP3,2*%
%TO.N,Net-(A1-Pad2)*%
X204352371Y-150904907D03*
%TO.P,UP3,1*%
%TO.N,Net-(J4-Pad1)*%
X209532447Y-149299662D03*
%TA.AperFunction,SMDPad,CuDef*%
D10*
%TO.P,UP3,2*%
%TO.N,Net-(A1-Pad2)*%
G36*
X209508330Y-138419748D02*
G01*
X207837082Y-136428032D01*
X209828798Y-134756784D01*
X211500046Y-136748500D01*
X209508330Y-138419748D01*
G37*
%TD.AperFunction*%
%TD*%
D15*
%TO.P,HOME1,2*%
%TO.N,Net-(A1-Pad2)*%
X154325000Y-92770000D03*
D11*
%TO.P,HOME1,1*%
%TO.N,Net-(HOME1-Pad1)*%
X146050000Y-102420000D03*
%TO.P,HOME1,2*%
%TO.N,Net-(A1-Pad2)*%
X141050000Y-100320000D03*
D15*
%TO.P,HOME1,1*%
%TO.N,Net-(HOME1-Pad1)*%
X142775000Y-90570000D03*
%TD*%
%TO.P,R3,2*%
%TO.N,Net-(J10-Pad4)*%
X173375000Y-111820000D03*
D11*
%TO.P,R3,1*%
%TO.N,Net-(J10-Pad3)*%
X165100000Y-121470000D03*
%TO.P,R3,2*%
%TO.N,Net-(J10-Pad4)*%
X160100000Y-119370000D03*
D15*
%TO.P,R3,1*%
%TO.N,Net-(J10-Pad3)*%
X161825000Y-109620000D03*
%TD*%
%TO.P,L3,2*%
%TO.N,Net-(J10-Pad4)*%
X135275000Y-111820000D03*
D11*
%TO.P,L3,1*%
%TO.N,Net-(J10-Pad2)*%
X127000000Y-121470000D03*
%TO.P,L3,2*%
%TO.N,Net-(J10-Pad4)*%
X122000000Y-119370000D03*
D15*
%TO.P,L3,1*%
%TO.N,Net-(J10-Pad2)*%
X123725000Y-109620000D03*
%TD*%
%TO.P,START1,1*%
%TO.N,Net-(J4-Pad7)*%
X161825000Y-90570000D03*
D11*
%TO.P,START1,2*%
%TO.N,Net-(A1-Pad2)*%
X160100000Y-100320000D03*
%TO.P,START1,1*%
%TO.N,Net-(J4-Pad7)*%
X165100000Y-102420000D03*
D15*
%TO.P,START1,2*%
%TO.N,Net-(A1-Pad2)*%
X173375000Y-92770000D03*
%TD*%
%TO.P,RIGHT2,2*%
%TO.N,Net-(A1-Pad2)*%
X234335000Y-130870000D03*
D11*
%TO.P,RIGHT2,1*%
%TO.N,Net-(J4-Pad3)*%
X226060000Y-140520000D03*
%TO.P,RIGHT2,2*%
%TO.N,Net-(A1-Pad2)*%
X221060000Y-138420000D03*
D15*
%TO.P,RIGHT2,1*%
%TO.N,Net-(J4-Pad3)*%
X222785000Y-128670000D03*
%TD*%
%TO.P,SELECT1,1*%
%TO.N,Net-(J4-Pad5)*%
X123725000Y-90570000D03*
D11*
%TO.P,SELECT1,2*%
%TO.N,Net-(A1-Pad2)*%
X122000000Y-100320000D03*
%TO.P,SELECT1,1*%
%TO.N,Net-(J4-Pad5)*%
X127000000Y-102420000D03*
D15*
%TO.P,SELECT1,2*%
%TO.N,Net-(A1-Pad2)*%
X135275000Y-92770000D03*
%TD*%
%TO.P,LEFT2,1*%
%TO.N,Net-(J4-Pad4)*%
X72925000Y-128670000D03*
D11*
%TO.P,LEFT2,2*%
%TO.N,Net-(A1-Pad2)*%
X71200000Y-138420000D03*
%TO.P,LEFT2,1*%
%TO.N,Net-(J4-Pad4)*%
X76200000Y-140520000D03*
D15*
%TO.P,LEFT2,2*%
%TO.N,Net-(A1-Pad2)*%
X84475000Y-130870000D03*
%TD*%
%TA.AperFunction,SMDPad,CuDef*%
D10*
%TO.P,UP2,2*%
%TO.N,Net-(A1-Pad2)*%
G36*
X103437989Y-147386635D02*
G01*
X105109237Y-145394919D01*
X107100953Y-147066167D01*
X105429705Y-149057883D01*
X103437989Y-147386635D01*
G37*
%TD.AperFunction*%
D11*
%TO.P,UP2,1*%
%TO.N,Net-(J4-Pad1)*%
X92727553Y-149299662D03*
%TO.P,UP2,2*%
%TO.N,Net-(A1-Pad2)*%
X90247185Y-144477031D03*
%TA.AperFunction,SMDPad,CuDef*%
D10*
%TO.P,UP2,1*%
%TO.N,Net-(J4-Pad1)*%
G36*
X96004309Y-138277140D02*
G01*
X97675557Y-136285424D01*
X99667273Y-137956672D01*
X97996025Y-139948388D01*
X96004309Y-138277140D01*
G37*
%TD.AperFunction*%
%TD*%
%TA.AperFunction,SMDPad,CuDef*%
%TO.P,L1,2*%
%TO.N,Net-(A1-Pad2)*%
G36*
X247761527Y-92866238D02*
G01*
X246461527Y-90614572D01*
X248713193Y-89314572D01*
X250013193Y-91566238D01*
X247761527Y-92866238D01*
G37*
%TD.AperFunction*%
D11*
%TO.P,L1,1*%
%TO.N,Net-(J4-Pad11)*%
X245896000Y-103585050D03*
%TO.P,L1,2*%
%TO.N,Net-(A1-Pad2)*%
X240515873Y-104266397D03*
%TA.AperFunction,SMDPad,CuDef*%
D10*
%TO.P,L1,1*%
%TO.N,Net-(J4-Pad11)*%
G36*
X236658934Y-96735982D02*
G01*
X235358934Y-94484316D01*
X237610600Y-93184316D01*
X238910600Y-95435982D01*
X236658934Y-96735982D01*
G37*
%TD.AperFunction*%
%TD*%
%TA.AperFunction,SMDPad,CuDef*%
%TO.P,Y1,2*%
%TO.N,Net-(A1-Pad2)*%
G36*
X219831527Y-83223938D02*
G01*
X218531527Y-80972272D01*
X220783193Y-79672272D01*
X222083193Y-81923938D01*
X219831527Y-83223938D01*
G37*
%TD.AperFunction*%
D11*
%TO.P,Y1,1*%
%TO.N,Net-(J4-Pad9)*%
X217966000Y-93942750D03*
%TO.P,Y1,2*%
%TO.N,Net-(A1-Pad2)*%
X212585873Y-94624097D03*
%TA.AperFunction,SMDPad,CuDef*%
D10*
%TO.P,Y1,1*%
%TO.N,Net-(J4-Pad9)*%
G36*
X208728934Y-87093682D02*
G01*
X207428934Y-84842016D01*
X209680600Y-83542016D01*
X210980600Y-85793682D01*
X208728934Y-87093682D01*
G37*
%TD.AperFunction*%
%TD*%
%TA.AperFunction,SMDPad,CuDef*%
%TO.P,A1,2*%
%TO.N,Net-(A1-Pad2)*%
G36*
X215015527Y-113775738D02*
G01*
X213715527Y-111524072D01*
X215967193Y-110224072D01*
X217267193Y-112475738D01*
X215015527Y-113775738D01*
G37*
%TD.AperFunction*%
D11*
%TO.P,A1,1*%
%TO.N,Net-(A1-Pad1)*%
X213150000Y-124494550D03*
%TO.P,A1,2*%
%TO.N,Net-(A1-Pad2)*%
X207769873Y-125175897D03*
%TA.AperFunction,SMDPad,CuDef*%
D10*
%TO.P,A1,1*%
%TO.N,Net-(A1-Pad1)*%
G36*
X203912934Y-117645482D02*
G01*
X202612934Y-115393816D01*
X204864600Y-114093816D01*
X206164600Y-116345482D01*
X203912934Y-117645482D01*
G37*
%TD.AperFunction*%
%TD*%
%TA.AperFunction,SMDPad,CuDef*%
%TO.P,R1,2*%
%TO.N,Net-(A1-Pad2)*%
G36*
X238363527Y-76365938D02*
G01*
X237063527Y-74114272D01*
X239315193Y-72814272D01*
X240615193Y-75065938D01*
X238363527Y-76365938D01*
G37*
%TD.AperFunction*%
D11*
%TO.P,R1,1*%
%TO.N,Net-(J4-Pad10)*%
X236498000Y-87084750D03*
%TO.P,R1,2*%
%TO.N,Net-(A1-Pad2)*%
X231117873Y-87766097D03*
%TA.AperFunction,SMDPad,CuDef*%
D10*
%TO.P,R1,1*%
%TO.N,Net-(J4-Pad10)*%
G36*
X227260934Y-80235682D02*
G01*
X225960934Y-77984016D01*
X228212600Y-76684016D01*
X229512600Y-78935682D01*
X227260934Y-80235682D01*
G37*
%TD.AperFunction*%
%TD*%
%TA.AperFunction,SMDPad,CuDef*%
%TO.P,X1,2*%
%TO.N,Net-(A1-Pad2)*%
G36*
X205617527Y-97275738D02*
G01*
X204317527Y-95024072D01*
X206569193Y-93724072D01*
X207869193Y-95975738D01*
X205617527Y-97275738D01*
G37*
%TD.AperFunction*%
D11*
%TO.P,X1,1*%
%TO.N,Net-(J4-Pad8)*%
X203752000Y-107994550D03*
%TO.P,X1,2*%
%TO.N,Net-(A1-Pad2)*%
X198371873Y-108675897D03*
%TA.AperFunction,SMDPad,CuDef*%
D10*
%TO.P,X1,1*%
%TO.N,Net-(J4-Pad8)*%
G36*
X194514934Y-101145482D02*
G01*
X193214934Y-98893816D01*
X195466600Y-97593816D01*
X196766600Y-99845482D01*
X194514934Y-101145482D01*
G37*
%TD.AperFunction*%
%TD*%
%TA.AperFunction,SMDPad,CuDef*%
%TO.P,B1,2*%
%TO.N,Net-(A1-Pad2)*%
G36*
X229229527Y-99724738D02*
G01*
X227929527Y-97473072D01*
X230181193Y-96173072D01*
X231481193Y-98424738D01*
X229229527Y-99724738D01*
G37*
%TD.AperFunction*%
D11*
%TO.P,B1,1*%
%TO.N,Net-(B1-Pad1)*%
X227364000Y-110443550D03*
%TO.P,B1,2*%
%TO.N,Net-(A1-Pad2)*%
X221983873Y-111124897D03*
%TA.AperFunction,SMDPad,CuDef*%
D10*
%TO.P,B1,1*%
%TO.N,Net-(B1-Pad1)*%
G36*
X218126934Y-103594482D02*
G01*
X216826934Y-101342816D01*
X219078600Y-100042816D01*
X220378600Y-102294482D01*
X218126934Y-103594482D01*
G37*
%TD.AperFunction*%
%TD*%
D15*
%TO.P,TOUCHPAD1,1*%
%TO.N,Net-(J10-Pad1)*%
X142775000Y-109620000D03*
D11*
%TO.P,TOUCHPAD1,2*%
%TO.N,Net-(J10-Pad4)*%
X141050000Y-119370000D03*
%TO.P,TOUCHPAD1,1*%
%TO.N,Net-(J10-Pad1)*%
X146050000Y-121470000D03*
D15*
%TO.P,TOUCHPAD1,2*%
%TO.N,Net-(J10-Pad4)*%
X154325000Y-111820000D03*
%TD*%
D16*
%TO.P,J4,20*%
%TO.N,Net-(J4-Pad20)*%
X110665000Y-130310000D03*
%TO.P,J4,19*%
%TO.N,Net-(J4-Pad19)*%
X110665000Y-127770000D03*
%TO.P,J4,18*%
%TO.N,Net-(J4-Pad18)*%
X113205000Y-130310000D03*
%TO.P,J4,17*%
%TO.N,Net-(A1-Pad2)*%
X113205000Y-127770000D03*
%TO.P,J4,16*%
%TO.N,Net-(J4-Pad16)*%
X115745000Y-130310000D03*
%TO.P,J4,15*%
%TO.N,Net-(J4-Pad15)*%
X115745000Y-127770000D03*
%TO.P,J4,14*%
%TO.N,Net-(B1-Pad1)*%
X118285000Y-130310000D03*
%TO.P,J4,13*%
%TO.N,Net-(A1-Pad1)*%
X118285000Y-127770000D03*
%TO.P,J4,12*%
%TO.N,Net-(J4-Pad12)*%
X120825000Y-130310000D03*
%TO.P,J4,11*%
%TO.N,Net-(J4-Pad11)*%
X120825000Y-127770000D03*
%TO.P,J4,10*%
%TO.N,Net-(J4-Pad10)*%
X123365000Y-130310000D03*
%TO.P,J4,9*%
%TO.N,Net-(J4-Pad9)*%
X123365000Y-127770000D03*
%TO.P,J4,8*%
%TO.N,Net-(J4-Pad8)*%
X125905000Y-130310000D03*
%TO.P,J4,7*%
%TO.N,Net-(J4-Pad7)*%
X125905000Y-127770000D03*
%TO.P,J4,6*%
%TO.N,Net-(HOME1-Pad1)*%
X128445000Y-130310000D03*
%TO.P,J4,5*%
%TO.N,Net-(J4-Pad5)*%
X128445000Y-127770000D03*
%TO.P,J4,4*%
%TO.N,Net-(J4-Pad4)*%
X130985000Y-130310000D03*
%TO.P,J4,3*%
%TO.N,Net-(J4-Pad3)*%
X130985000Y-127770000D03*
%TO.P,J4,2*%
%TO.N,Net-(DOWN1-Pad1)*%
X133525000Y-130310000D03*
D17*
%TO.P,J4,1*%
%TO.N,Net-(J4-Pad1)*%
X133525000Y-127770000D03*
%TD*%
D16*
%TO.P,J1-2,4*%
%TO.N,Net-(J1-2-Pad4)*%
X169260000Y-125160000D03*
%TO.P,J1-2,3*%
%TO.N,Net-(J1-2-Pad3)*%
X171800000Y-125160000D03*
%TO.P,J1-2,2*%
%TO.N,Net-(J1-2-Pad2)*%
X174340000Y-125160000D03*
D17*
%TO.P,J1-2,1*%
%TO.N,Net-(J1-2-Pad1)*%
X176880000Y-125160000D03*
%TD*%
D18*
%TO.P,J2,5*%
%TO.N,Net-(J2-Pad5)*%
X150780000Y-128350000D03*
%TO.P,J2,4*%
%TO.N,Net-(J2-Pad4)*%
X148780000Y-128350000D03*
%TO.P,J2,3*%
%TO.N,Net-(J2-Pad3)*%
X146780000Y-128350000D03*
%TO.P,J2,2*%
%TO.N,Net-(J2-Pad2)*%
X144780000Y-128350000D03*
D19*
%TO.P,J2,1*%
%TO.N,Net-(J2-Pad1)*%
X142780000Y-128350000D03*
%TD*%
D18*
%TO.P,J10,4*%
%TO.N,Net-(J10-Pad4)*%
X161780000Y-128350000D03*
%TO.P,J10,3*%
%TO.N,Net-(J10-Pad3)*%
X159780000Y-128350000D03*
%TO.P,J10,2*%
%TO.N,Net-(J10-Pad2)*%
X157780000Y-128350000D03*
D19*
%TO.P,J10,1*%
%TO.N,Net-(J10-Pad1)*%
X155780000Y-128350000D03*
%TD*%
D20*
%TO.P,P4,1*%
%TO.N,Net-(J2-Pad5)*%
X152400000Y-83820000D03*
D21*
%TO.P,P4,2*%
%TO.N,Net-(J2-Pad1)*%
X154940000Y-83820000D03*
%TD*%
%TO.P,P3,2*%
%TO.N,Net-(J2-Pad1)*%
X149860000Y-83820000D03*
D20*
%TO.P,P3,1*%
%TO.N,Net-(J2-Pad4)*%
X147320000Y-83820000D03*
%TD*%
%TO.P,P2,1*%
%TO.N,Net-(J2-Pad3)*%
X142240000Y-83820000D03*
D21*
%TO.P,P2,2*%
%TO.N,Net-(J2-Pad1)*%
X144780000Y-83820000D03*
%TD*%
%TO.P,P1,2*%
%TO.N,Net-(J2-Pad1)*%
X139700000Y-83820000D03*
D20*
%TO.P,P1,1*%
%TO.N,Net-(J2-Pad2)*%
X137160000Y-83820000D03*
%TD*%
D22*
%TO.N,Net-(J4-Pad9)*%
X219697000Y-131670000D03*
%TO.N,Net-(J4-Pad7)*%
X150450000Y-123324000D03*
%TO.N,Net-(J10-Pad3)*%
X161744300Y-125240900D03*
%TO.N,Net-(J10-Pad2)*%
X133641000Y-117737000D03*
%TD*%
D23*
%TO.N,Net-(A1-Pad2)*%
X90549400Y-90265500D02*
X92909900Y-87905000D01*
X92909900Y-87905000D02*
X92909900Y-79172700D01*
X92909900Y-79172700D02*
X92909800Y-79172600D01*
X85922600Y-94892400D02*
X85922600Y-94892300D01*
X85922600Y-94892300D02*
X90549400Y-90265500D01*
X90549400Y-90265500D02*
X102010000Y-101726200D01*
X100979600Y-103510900D02*
X102010000Y-101726200D01*
X93940300Y-77387900D02*
X92909800Y-79172600D01*
X85708100Y-103411900D02*
X85922600Y-103197400D01*
X85922600Y-103197400D02*
X85922600Y-94892400D01*
X100979600Y-103510900D02*
X102764200Y-104541300D01*
X85864400Y-94858800D02*
X85922600Y-94892400D01*
X84352400Y-93985800D02*
X85864400Y-94858800D01*
X211500300Y-138420000D02*
X211022400Y-137942100D01*
X211022400Y-137942100D02*
X210804800Y-137942100D01*
X210804800Y-137942100D02*
X210804700Y-137942200D01*
X221060000Y-138420000D02*
X211500300Y-138420000D01*
X211500300Y-138420000D02*
X211500300Y-149288200D01*
X211500300Y-149288200D02*
X209883600Y-150904900D01*
X209883600Y-150904900D02*
X204352400Y-150904900D01*
X234335000Y-130870000D02*
X234335000Y-134162000D01*
X234335000Y-134162000D02*
X226603400Y-141893600D01*
X226603400Y-141893600D02*
X224533600Y-141893600D01*
X224533600Y-141893600D02*
X221060000Y-138420000D01*
X209668600Y-136588300D02*
X210804700Y-137942200D01*
X105269500Y-147226400D02*
X104133300Y-148580400D01*
X104133300Y-148580400D02*
X104133200Y-148580300D01*
X104133200Y-148580300D02*
X103915600Y-148580300D01*
X103915600Y-148580300D02*
X101841000Y-150654900D01*
X101841000Y-150654900D02*
X92175500Y-150654900D01*
X92175500Y-150654900D02*
X90247200Y-148726600D01*
X90247200Y-148726600D02*
X90247200Y-144477000D01*
X84475000Y-138704800D02*
X90247200Y-144477000D01*
X69627000Y-85486300D02*
X70471400Y-85486300D01*
X70471400Y-85486300D02*
X78668800Y-77288900D01*
X69080900Y-93886800D02*
X69080900Y-86032400D01*
X69080900Y-86032400D02*
X69627000Y-85486300D01*
X246398500Y-88458800D02*
X246398500Y-88497300D01*
X246398500Y-88497300D02*
X247206900Y-89305700D01*
X246398500Y-83194100D02*
X246398500Y-88458800D01*
X231117900Y-87766100D02*
X231810600Y-88458800D01*
X231810600Y-88458800D02*
X246398500Y-88458800D01*
X228675000Y-89178600D02*
X230087500Y-87766100D01*
X230087500Y-87766100D02*
X231117900Y-87766100D01*
X228675000Y-89178600D02*
X227283600Y-89178600D01*
X227283600Y-89178600D02*
X221337800Y-83232800D01*
X228674900Y-96164200D02*
X228675000Y-96164100D01*
X228675000Y-96164100D02*
X228675000Y-89178600D01*
X67842400Y-84455900D02*
X69627000Y-85486300D01*
X239869800Y-76374800D02*
X246398500Y-82903500D01*
X246398500Y-82903500D02*
X246398500Y-83194100D01*
X246398500Y-83194100D02*
X250411900Y-83194100D01*
X248237400Y-91090400D02*
X247206900Y-89305700D01*
X259163800Y-83867700D02*
X264152400Y-83867700D01*
X264152400Y-83867700D02*
X265018400Y-84733700D01*
X265018400Y-84733700D02*
X266500900Y-84733700D01*
X250411900Y-83194100D02*
X251085500Y-83867700D01*
X251085500Y-83867700D02*
X259163800Y-83867700D01*
X259163800Y-83867700D02*
X259163800Y-71802800D01*
X258133400Y-70018100D02*
X259163800Y-71802800D01*
X267531400Y-86518400D02*
X266500900Y-84733700D01*
X248237400Y-91090400D02*
X249267800Y-92875100D01*
X259809900Y-99694400D02*
X256841400Y-99694400D01*
X256841400Y-99694400D02*
X250022000Y-92875000D01*
X250022000Y-92875000D02*
X249267900Y-92875000D01*
X249267900Y-92875000D02*
X249267800Y-92875100D01*
X238839400Y-74590100D02*
X239869800Y-76374800D01*
X227908200Y-111856400D02*
X222715400Y-111856400D01*
X222715400Y-111856400D02*
X221983900Y-111124900D01*
X233956800Y-104266400D02*
X233956800Y-105807800D01*
X233956800Y-105807800D02*
X227908200Y-111856400D01*
X234335000Y-130870000D02*
X234335000Y-118283200D01*
X234335000Y-118283200D02*
X227908200Y-111856400D01*
X230735800Y-99733600D02*
X233956800Y-102954600D01*
X233956800Y-102954600D02*
X233956800Y-104266400D01*
X240515900Y-104266400D02*
X233956800Y-104266400D01*
X198371900Y-108675900D02*
X203357400Y-103690400D01*
X203357400Y-103690400D02*
X203357400Y-100653800D01*
X203357400Y-100653800D02*
X206291100Y-97720100D01*
X206291100Y-97720100D02*
X206688300Y-97720100D01*
X206688300Y-97720100D02*
X207123800Y-97284600D01*
X160100000Y-100320000D02*
X155950300Y-96170300D01*
X155950300Y-96170300D02*
X155950300Y-92770000D01*
X141050000Y-100320000D02*
X135275000Y-94545000D01*
X135275000Y-94545000D02*
X135275000Y-92770000D01*
X113205000Y-109115000D02*
X122000000Y-100320000D01*
X113205000Y-127770000D02*
X113205000Y-109115000D01*
X113205000Y-109115000D02*
X107337900Y-109115000D01*
X107337900Y-109115000D02*
X102764200Y-104541300D01*
X84475000Y-138704800D02*
X84475000Y-130870000D01*
X154325000Y-92770000D02*
X155950300Y-92770000D01*
X155950300Y-92770000D02*
X159991000Y-88729300D01*
X159991000Y-88729300D02*
X169334300Y-88729300D01*
X169334300Y-88729300D02*
X173375000Y-92770000D01*
X229705400Y-97948900D02*
X230735800Y-99733600D01*
X229705400Y-97948900D02*
X228674900Y-96164200D01*
X212585900Y-94624100D02*
X209784300Y-94624100D01*
X209784300Y-94624100D02*
X207123800Y-97284600D01*
X215491400Y-111999900D02*
X217276000Y-110969500D01*
X209668600Y-136588300D02*
X208532400Y-135234300D01*
X220307400Y-81448100D02*
X221337800Y-83232800D01*
X206093400Y-95499900D02*
X207123800Y-97284600D01*
X221983900Y-111124900D02*
X217431400Y-111124900D01*
X217431400Y-111124900D02*
X217276000Y-110969500D01*
X208532400Y-135234300D02*
X207769900Y-134471800D01*
X207769900Y-134471800D02*
X207769900Y-125175900D01*
X71200000Y-138420000D02*
X74657300Y-141877300D01*
X74657300Y-141877300D02*
X81302500Y-141877300D01*
X81302500Y-141877300D02*
X84475000Y-138704800D01*
%TO.N,Net-(A1-Pad1)*%
X204388800Y-115869600D02*
X205419300Y-117654300D01*
X205419300Y-117654300D02*
X205548900Y-117654300D01*
X205548900Y-117654300D02*
X212389100Y-124494500D01*
X212389100Y-124494500D02*
X213150000Y-124494500D01*
%TO.N,Net-(B1-Pad1)*%
X218602800Y-101818600D02*
X219633300Y-103603300D01*
X219633300Y-103603300D02*
X219762900Y-103603300D01*
X219762900Y-103603300D02*
X226603100Y-110443500D01*
X226603100Y-110443500D02*
X227364000Y-110443500D01*
%TO.N,Net-(DOWN1-Pad1)*%
X73208200Y-98205400D02*
X72361000Y-98205400D01*
X132349700Y-130310000D02*
X132349700Y-130677300D01*
X132349700Y-130677300D02*
X130570500Y-132456500D01*
X130570500Y-132456500D02*
X111149200Y-132456500D01*
X111149200Y-132456500D02*
X108090400Y-129397700D01*
X108090400Y-129397700D02*
X108090400Y-129277200D01*
X108090400Y-129277200D02*
X77018600Y-98205400D01*
X77018600Y-98205400D02*
X73208200Y-98205400D01*
X73208200Y-98205400D02*
X73208200Y-89301400D01*
X73208200Y-89301400D02*
X74419300Y-88090300D01*
X75449800Y-86305500D02*
X74419300Y-88090300D01*
X133525000Y-130310000D02*
X132349700Y-130310000D01*
%TO.N,Net-(HOME1-Pad1)*%
X142775000Y-90570000D02*
X142775000Y-92195300D01*
X146050000Y-102420000D02*
X146050000Y-99573600D01*
X146050000Y-99573600D02*
X143225300Y-96748900D01*
X143225300Y-96748900D02*
X143225300Y-92645600D01*
X143225300Y-92645600D02*
X142775000Y-92195300D01*
%TO.N,Net-(J2-Pad5)*%
X150780000Y-128350000D02*
X150780000Y-127349700D01*
X152400000Y-83820000D02*
X152400000Y-85045300D01*
X152400000Y-85045300D02*
X148751200Y-88694100D01*
X148751200Y-88694100D02*
X148751200Y-102317400D01*
X148751200Y-102317400D02*
X144023400Y-107045200D01*
X144023400Y-107045200D02*
X142215600Y-107045200D01*
X142215600Y-107045200D02*
X141149700Y-108111100D01*
X141149700Y-108111100D02*
X141149700Y-111054800D01*
X141149700Y-111054800D02*
X143808000Y-113713100D01*
X143808000Y-113713100D02*
X143808000Y-117159500D01*
X143808000Y-117159500D02*
X144324200Y-117675700D01*
X144324200Y-117675700D02*
X144324200Y-121644100D01*
X144324200Y-121644100D02*
X150029800Y-127349700D01*
X150029800Y-127349700D02*
X150780000Y-127349700D01*
%TO.N,Net-(J2-Pad4)*%
X147320000Y-85045300D02*
X148090000Y-85815300D01*
X148090000Y-85815300D02*
X148090000Y-102286200D01*
X148090000Y-102286200D02*
X143781300Y-106594900D01*
X143781300Y-106594900D02*
X142029000Y-106594900D01*
X142029000Y-106594900D02*
X140699400Y-107924500D01*
X140699400Y-107924500D02*
X140699400Y-111241400D01*
X140699400Y-111241400D02*
X143357700Y-113899700D01*
X143357700Y-113899700D02*
X143357700Y-117571400D01*
X143357700Y-117571400D02*
X143808000Y-118021700D01*
X143808000Y-118021700D02*
X143808000Y-122377700D01*
X143808000Y-122377700D02*
X148780000Y-127349700D01*
X148780000Y-128350000D02*
X148780000Y-127349700D01*
X147320000Y-83820000D02*
X147320000Y-85045300D01*
%TO.N,Net-(J2-Pad3)*%
X142240000Y-85045300D02*
X141115800Y-86169500D01*
X141115800Y-86169500D02*
X141115800Y-92000900D01*
X141115800Y-92000900D02*
X142712400Y-93597500D01*
X142712400Y-93597500D02*
X142712400Y-97752300D01*
X142712400Y-97752300D02*
X143306600Y-98346500D01*
X143306600Y-98346500D02*
X143306600Y-104680400D01*
X143306600Y-104680400D02*
X140249100Y-107737900D01*
X140249100Y-107737900D02*
X140249100Y-111428000D01*
X140249100Y-111428000D02*
X142907400Y-114086300D01*
X142907400Y-114086300D02*
X142907400Y-117758000D01*
X142907400Y-117758000D02*
X143357700Y-118208300D01*
X143357700Y-118208300D02*
X143357700Y-123927500D01*
X143357700Y-123927500D02*
X143357800Y-123927500D01*
X143357800Y-123927500D02*
X146780000Y-127349700D01*
X146780000Y-128350000D02*
X146780000Y-127349700D01*
X142240000Y-83820000D02*
X142240000Y-85045300D01*
%TO.N,Net-(J2-Pad2)*%
X137160000Y-83820000D02*
X137160000Y-89432000D01*
X137160000Y-89432000D02*
X142176700Y-94448700D01*
X142176700Y-94448700D02*
X142176700Y-97974800D01*
X142176700Y-97974800D02*
X142848700Y-98646800D01*
X142848700Y-98646800D02*
X142848700Y-104501400D01*
X142848700Y-104501400D02*
X139798800Y-107551300D01*
X139798800Y-107551300D02*
X139798800Y-111614600D01*
X139798800Y-111614600D02*
X142457100Y-114272900D01*
X142457100Y-114272900D02*
X142457100Y-117944600D01*
X142457100Y-117944600D02*
X142885800Y-118373300D01*
X142885800Y-118373300D02*
X142885800Y-125455500D01*
X142885800Y-125455500D02*
X144780000Y-127349700D01*
X144780000Y-128350000D02*
X144780000Y-127349700D01*
%TO.N,Net-(J2-Pad1)*%
X139700000Y-83820000D02*
X138474600Y-82594600D01*
X138474600Y-82594600D02*
X136087800Y-82594600D01*
X136087800Y-82594600D02*
X135934600Y-82747800D01*
X135934600Y-82747800D02*
X135934600Y-90044200D01*
X135934600Y-90044200D02*
X141726300Y-95835900D01*
X141726300Y-95835900D02*
X141726300Y-98733200D01*
X141726300Y-98733200D02*
X142398300Y-99405200D01*
X142398300Y-99405200D02*
X142398300Y-104314900D01*
X142398300Y-104314900D02*
X139348500Y-107364700D01*
X139348500Y-107364700D02*
X139348500Y-111948900D01*
X139348500Y-111948900D02*
X142006800Y-114607200D01*
X142006800Y-114607200D02*
X142006800Y-118131200D01*
X142006800Y-118131200D02*
X142435400Y-118559800D01*
X142435400Y-118559800D02*
X142435400Y-127005100D01*
X142435400Y-127005100D02*
X142780000Y-127349700D01*
X144780000Y-83820000D02*
X143554600Y-82594600D01*
X143554600Y-82594600D02*
X140925400Y-82594600D01*
X140925400Y-82594600D02*
X139700000Y-83820000D01*
X142780000Y-128350000D02*
X142780000Y-127349700D01*
%TO.N,Net-(J4-Pad16)*%
X256428800Y-90388100D02*
X257459300Y-92172800D01*
X257459300Y-92172800D02*
X257588900Y-92172800D01*
X257588900Y-92172800D02*
X264429100Y-99013000D01*
X264429100Y-99013000D02*
X265190000Y-99013000D01*
%TO.N,Net-(J4-Pad15)*%
X247030800Y-73887800D02*
X246000300Y-72103100D01*
X115745000Y-127770000D02*
X115745000Y-108622700D01*
X115745000Y-108622700D02*
X123341500Y-101026200D01*
X123341500Y-101026200D02*
X123341500Y-99764400D01*
X123341500Y-99764400D02*
X122816200Y-99239100D01*
X122816200Y-99239100D02*
X122816200Y-94540100D01*
X122816200Y-94540100D02*
X122099600Y-93823500D01*
X122099600Y-93823500D02*
X122099600Y-89134400D01*
X122099600Y-89134400D02*
X139592700Y-71641300D01*
X139592700Y-71641300D02*
X244784300Y-71641300D01*
X244784300Y-71641300D02*
X245246100Y-72103100D01*
X245246100Y-72103100D02*
X246000300Y-72103100D01*
X247030800Y-73887800D02*
X248061300Y-75672500D01*
X248061300Y-75672500D02*
X248190900Y-75672500D01*
X248190900Y-75672500D02*
X255031100Y-82512700D01*
X255031100Y-82512700D02*
X255792000Y-82512700D01*
%TO.N,Net-(J4-Pad10)*%
X227736800Y-78459800D02*
X228767300Y-80244500D01*
X236498000Y-87084700D02*
X235695400Y-87084700D01*
X235695400Y-87084700D02*
X228855200Y-80244500D01*
X228855200Y-80244500D02*
X228767300Y-80244500D01*
X227736800Y-78459800D02*
X225952000Y-79490300D01*
X123365000Y-129134700D02*
X123732400Y-129134700D01*
X123732400Y-129134700D02*
X124540300Y-128326800D01*
X124540300Y-128326800D02*
X124540300Y-127470500D01*
X124540300Y-127470500D02*
X125917600Y-126093200D01*
X125917600Y-126093200D02*
X136375300Y-126093200D01*
X136375300Y-126093200D02*
X140137000Y-129854900D01*
X140137000Y-129854900D02*
X174400300Y-129854900D01*
X174400300Y-129854900D02*
X178224700Y-126030500D01*
X178224700Y-126030500D02*
X178224700Y-118213500D01*
X178224700Y-118213500D02*
X178674900Y-117763300D01*
X178674900Y-117763300D02*
X178674900Y-112926600D01*
X178674900Y-112926600D02*
X212274500Y-79327000D01*
X212274500Y-79327000D02*
X225788700Y-79327000D01*
X225788700Y-79327000D02*
X225952000Y-79490300D01*
X123365000Y-130310000D02*
X123365000Y-129134700D01*
%TO.N,Net-(J4-Pad9)*%
X217140300Y-94007500D02*
X210800700Y-100347100D01*
X210800700Y-100347100D02*
X210800700Y-115079500D01*
X210800700Y-115079500D02*
X219697000Y-123975800D01*
X219697000Y-123975800D02*
X219697000Y-131670000D01*
X217966000Y-93942700D02*
X217205100Y-93942700D01*
X217205100Y-93942700D02*
X217140300Y-94007500D01*
X210235300Y-87102500D02*
X217140300Y-94007500D01*
X209204800Y-85317800D02*
X210235300Y-87102500D01*
%TO.N,Net-(J4-Pad8)*%
X127080300Y-130310000D02*
X127080300Y-129942600D01*
X127080300Y-129942600D02*
X127888200Y-129134700D01*
X127888200Y-129134700D02*
X128744500Y-129134700D01*
X128744500Y-129134700D02*
X129715000Y-128164200D01*
X129715000Y-128164200D02*
X129715000Y-127281200D01*
X129715000Y-127281200D02*
X130401600Y-126594600D01*
X130401600Y-126594600D02*
X136014800Y-126594600D01*
X136014800Y-126594600D02*
X139725400Y-130305200D01*
X139725400Y-130305200D02*
X174586900Y-130305200D01*
X174586900Y-130305200D02*
X193206000Y-111686100D01*
X193206000Y-111686100D02*
X193206000Y-110054000D01*
X193206000Y-110054000D02*
X193206000Y-100400100D01*
X203752000Y-107994500D02*
X201692500Y-110054000D01*
X201692500Y-110054000D02*
X193206000Y-110054000D01*
X194990800Y-99369600D02*
X193206000Y-100400100D01*
X125905000Y-130310000D02*
X127080300Y-130310000D01*
%TO.N,Net-(J4-Pad7)*%
X161825000Y-102420000D02*
X165100000Y-102420000D01*
X150450000Y-123324000D02*
X149201600Y-122075600D01*
X149201600Y-122075600D02*
X149201600Y-111067400D01*
X149201600Y-111067400D02*
X157849000Y-102420000D01*
X157849000Y-102420000D02*
X161825000Y-102420000D01*
X161825000Y-102420000D02*
X161825000Y-90570000D01*
%TO.N,Net-(J4-Pad5)*%
X127000000Y-102420000D02*
X123725000Y-99145000D01*
X123725000Y-99145000D02*
X123725000Y-92195300D01*
X123725000Y-90570000D02*
X123725000Y-92195300D01*
X127269700Y-127770000D02*
X127269700Y-128137400D01*
X127269700Y-128137400D02*
X126461800Y-128945300D01*
X126461800Y-128945300D02*
X125541500Y-128945300D01*
X125541500Y-128945300D02*
X124668400Y-129818400D01*
X124668400Y-129818400D02*
X124668400Y-130693200D01*
X124668400Y-130693200D02*
X123846600Y-131515000D01*
X123846600Y-131515000D02*
X120354500Y-131515000D01*
X120354500Y-131515000D02*
X119555000Y-130715500D01*
X119555000Y-130715500D02*
X119555000Y-129915800D01*
X119555000Y-129915800D02*
X118584500Y-128945300D01*
X118584500Y-128945300D02*
X117742400Y-128945300D01*
X117742400Y-128945300D02*
X117106600Y-128309500D01*
X117106600Y-128309500D02*
X117106600Y-112313400D01*
X117106600Y-112313400D02*
X127000000Y-102420000D01*
X128445000Y-127770000D02*
X127269700Y-127770000D01*
%TO.N,Net-(J4-Pad3)*%
X92077000Y-95830600D02*
X91046500Y-97615400D01*
X88988200Y-107730500D02*
X88988200Y-99673700D01*
X88988200Y-99673700D02*
X91046500Y-97615400D01*
X130985000Y-128945300D02*
X130617600Y-128945300D01*
X130617600Y-128945300D02*
X129809700Y-129753200D01*
X129809700Y-129753200D02*
X129809700Y-130643600D01*
X129809700Y-130643600D02*
X128488000Y-131965300D01*
X128488000Y-131965300D02*
X115657600Y-131965300D01*
X115657600Y-131965300D02*
X114475000Y-130782700D01*
X114475000Y-130782700D02*
X114475000Y-129879000D01*
X114475000Y-129879000D02*
X113730600Y-129134600D01*
X113730600Y-129134600D02*
X110366800Y-129134600D01*
X110366800Y-129134600D02*
X88988200Y-107756000D01*
X88988200Y-107756000D02*
X88988200Y-107730500D01*
X130985000Y-127770000D02*
X130985000Y-128945300D01*
X222785000Y-128670000D02*
X222785000Y-137245000D01*
X222785000Y-137245000D02*
X226060000Y-140520000D01*
%TO.N,Net-(J4-Pad1)*%
X99193600Y-136541300D02*
X128958400Y-136541300D01*
X128958400Y-136541300D02*
X134703500Y-130796200D01*
X98972000Y-136762900D02*
X99193600Y-136541300D01*
X99193600Y-136541300D02*
X71018500Y-108366200D01*
X71018500Y-108366200D02*
X71018500Y-96377200D01*
X71018500Y-96377200D02*
X72108500Y-95287200D01*
X72108500Y-95287200D02*
X72108500Y-86877000D01*
X72108500Y-86877000D02*
X77378000Y-81607500D01*
X77378000Y-81607500D02*
X81948900Y-81607500D01*
X97835800Y-138116900D02*
X98972000Y-136762900D01*
X81948900Y-81607500D02*
X81948900Y-73645000D01*
X81948900Y-73645000D02*
X84007300Y-71586600D01*
X84007300Y-71586600D02*
X84007300Y-71492500D01*
X84007300Y-71492500D02*
X84007200Y-71492400D01*
X97835800Y-138116900D02*
X96699600Y-139470900D01*
X96699600Y-139470900D02*
X92727600Y-143442900D01*
X92727600Y-143442900D02*
X92727600Y-149299700D01*
X133525000Y-128945300D02*
X133892300Y-128945300D01*
X133892300Y-128945300D02*
X134703500Y-129756500D01*
X134703500Y-129756500D02*
X134703500Y-130796200D01*
X134703500Y-130796200D02*
X187875600Y-130796200D01*
X187875600Y-130796200D02*
X198052700Y-140973300D01*
X198052700Y-140973300D02*
X198270300Y-140973300D01*
X198270300Y-140973300D02*
X198270400Y-140973200D01*
X199406600Y-142327200D02*
X198270400Y-140973200D01*
X199406600Y-142327200D02*
X200542800Y-143681100D01*
X133525000Y-127770000D02*
X133525000Y-128945300D01*
X85037700Y-69707600D02*
X84007200Y-71492400D01*
X209532400Y-149299700D02*
X206379100Y-149299700D01*
X206379100Y-149299700D02*
X200760500Y-143681100D01*
X200760500Y-143681100D02*
X200542800Y-143681100D01*
%TO.N,Net-(J10-Pad4)*%
X162303700Y-126826000D02*
X169280100Y-126826000D01*
X169280100Y-126826000D02*
X170530000Y-125576100D01*
X170530000Y-125576100D02*
X170530000Y-119520000D01*
X170530000Y-119520000D02*
X173375000Y-116675000D01*
X173375000Y-116675000D02*
X173375000Y-111820000D01*
X161780000Y-127349700D02*
X162303700Y-126826000D01*
X160100000Y-119370000D02*
X160100000Y-124622300D01*
X160100000Y-124622300D02*
X162303700Y-126826000D01*
X161780000Y-128350000D02*
X161780000Y-127349700D01*
X135275000Y-113595000D02*
X135275000Y-111820000D01*
X141050000Y-119370000D02*
X135275000Y-113595000D01*
X122000000Y-119370000D02*
X127031600Y-119370000D01*
X127031600Y-119370000D02*
X132806600Y-113595000D01*
X132806600Y-113595000D02*
X135275000Y-113595000D01*
X160100000Y-119370000D02*
X154325000Y-113595000D01*
X154325000Y-113595000D02*
X154325000Y-111820000D01*
%TO.N,Net-(J10-Pad3)*%
X161744300Y-125240900D02*
X165100000Y-121885200D01*
X165100000Y-121885200D02*
X165100000Y-121470000D01*
X161825000Y-109620000D02*
X161825000Y-118195000D01*
X161825000Y-118195000D02*
X165100000Y-121470000D01*
%TO.N,Net-(J10-Pad2)*%
X123725000Y-109620000D02*
X123725000Y-111245300D01*
X123725000Y-111245300D02*
X120318400Y-114651900D01*
X120318400Y-114651900D02*
X120318400Y-119635300D01*
X120318400Y-119635300D02*
X122153100Y-121470000D01*
X122153100Y-121470000D02*
X127000000Y-121470000D01*
X133641000Y-121098200D02*
X141912800Y-129370000D01*
X141912800Y-129370000D02*
X156760000Y-129370000D01*
X156760000Y-129370000D02*
X157780000Y-128350000D01*
X133641000Y-117737000D02*
X133641000Y-121098200D01*
X133641000Y-121098200D02*
X127371800Y-121098200D01*
X127371800Y-121098200D02*
X127000000Y-121470000D01*
%TO.N,Net-(J10-Pad1)*%
X146790600Y-120729400D02*
X148090200Y-119429800D01*
X148090200Y-119429800D02*
X148090200Y-114657400D01*
X148090200Y-114657400D02*
X143052800Y-109620000D01*
X143052800Y-109620000D02*
X142775000Y-109620000D01*
X146050000Y-121470000D02*
X146790600Y-120729400D01*
X155780000Y-128350000D02*
X154411100Y-128350000D01*
X154411100Y-128350000D02*
X146790600Y-120729400D01*
%TO.N,Net-(J1-2-Pad4)*%
X169260000Y-125160000D02*
X169260000Y-123984700D01*
X169260000Y-123984700D02*
X168272500Y-122997200D01*
X168272500Y-122997200D02*
X168272500Y-103763800D01*
X168272500Y-103763800D02*
X195196100Y-76840200D01*
X195196100Y-76840200D02*
X196950200Y-76840200D01*
X196950200Y-76840200D02*
X198120000Y-78010000D01*
%TO.N,Net-(J1-2-Pad3)*%
X171800000Y-123984700D02*
X175000300Y-120784400D01*
X175000300Y-120784400D02*
X175000300Y-98629700D01*
X175000300Y-98629700D02*
X195620000Y-78010000D01*
X171800000Y-125160000D02*
X171800000Y-123984700D01*
%TO.N,Net-(J1-2-Pad2)*%
X174340000Y-123984700D02*
X175900900Y-122423800D01*
X175900900Y-122423800D02*
X175900900Y-99729100D01*
X175900900Y-99729100D02*
X195620000Y-80010000D01*
X174340000Y-125160000D02*
X174340000Y-123984700D01*
%TO.N,Net-(J1-2-Pad1)*%
X198120000Y-80010000D02*
X198120000Y-81135300D01*
X176880000Y-125160000D02*
X176880000Y-102375300D01*
X176880000Y-102375300D02*
X198120000Y-81135300D01*
%TO.N,Net-(J4-Pad11)*%
X237134800Y-94960100D02*
X238165300Y-96744800D01*
X238165300Y-96744800D02*
X238294900Y-96744800D01*
X238294900Y-96744800D02*
X245135100Y-103585000D01*
X245135100Y-103585000D02*
X245896000Y-103585000D01*
%TO.N,Net-(J4-Pad4)*%
X72925000Y-128670000D02*
X72925000Y-127044700D01*
X72925000Y-127044700D02*
X55851000Y-109970700D01*
X55851000Y-109970700D02*
X55851000Y-88675500D01*
X76200000Y-140520000D02*
X72925000Y-137245000D01*
X72925000Y-137245000D02*
X72925000Y-128670000D01*
X58939800Y-76775600D02*
X57909300Y-78560400D01*
X57909300Y-78560400D02*
X55851000Y-80618700D01*
X55851000Y-80618700D02*
X55851000Y-88675500D01*
%TD*%
M02*
