M48
; DRILL file {KiCad (5.1.10)-1} date 10/08/21 21:35:01
; FORMAT={-:-/ absolute / inch / decimal}
; #@! TF.CreationDate,2021-10-08T21:35:01-04:00
; #@! TF.GenerationSoftware,Kicad,Pcbnew,(5.1.10)-1
; #@! TF.FileFunction,Plated,1,2,PTH
FMAT,2
INCH
T1C0.0157
T2C0.0315
T3C0.0354
T4C0.0374
T5C0.0394
T6C0.0500
T7C0.0906
%
G90
G05
T1
X5.2615Y-4.6353
X5.9232Y-4.8553
X6.3679Y-4.9307
X8.6495Y-5.1839
T2
X5.6213Y-5.0531
X5.7Y-5.0531
X5.7787Y-5.0531
X5.8575Y-5.0531
X5.9362Y-5.0531
X6.1331Y-5.0531
X6.2118Y-5.0531
X6.2906Y-5.0531
X6.3693Y-5.0531
T3
X5.4Y-3.3
X5.5Y-3.3
X5.6Y-3.3
X5.7Y-3.3
X5.8Y-3.3
X5.9Y-3.3
X6.0Y-3.3
X6.1Y-3.3
T4
X7.7016Y-3.0713
X7.7016Y-3.15
X7.8Y-3.0713
X7.8Y-3.15
T5
X4.3569Y-5.0303
X4.3569Y-5.1303
X4.4569Y-5.0303
X4.4569Y-5.1303
X4.5569Y-5.0303
X4.5569Y-5.1303
X4.6569Y-5.0303
X4.6569Y-5.1303
X4.7569Y-5.0303
X4.7569Y-5.1303
X4.8569Y-5.0303
X4.8569Y-5.1303
X4.9569Y-5.0303
X4.9569Y-5.1303
X5.0569Y-5.0303
X5.0569Y-5.1303
X5.1569Y-5.0303
X5.1569Y-5.1303
X5.2569Y-5.0303
X5.2569Y-5.1303
X6.6638Y-4.9276
X6.7638Y-4.9276
X6.8638Y-4.9276
X6.9638Y-4.9276
T6
X2.0697Y-3.3211
X2.1989Y-3.4912
X2.7197Y-3.6963
X2.8031Y-5.4496
X2.8489Y-3.8664
X3.0Y-5.5323
X3.0972Y-3.0429
X3.2263Y-3.2129
X3.3743Y-4.0713
X3.5035Y-4.2414
X3.553Y-5.6881
X3.6507Y-5.8779
X4.8031Y-3.9496
X4.8031Y-4.6996
X5.0Y-4.0323
X5.0Y-4.7823
X5.5531Y-3.9496
X5.5531Y-4.6996
X5.75Y-4.0323
X5.75Y-4.7823
X6.3031Y-3.9496
X6.3031Y-4.6996
X6.5Y-4.0323
X6.5Y-4.7823
X7.8099Y-4.2786
X8.0217Y-4.2518
X8.0454Y-5.9411
X8.1799Y-4.9282
X8.2493Y-5.8779
X8.3695Y-3.7254
X8.3917Y-4.9014
X8.5813Y-3.6985
X8.7031Y-5.4496
X8.7395Y-4.375
X8.9Y-5.5323
X8.9513Y-4.3482
X9.0991Y-3.4554
X9.3109Y-3.4285
X9.4691Y-4.105
X9.6809Y-4.0782
X9.8587Y-3.2754
X10.0706Y-3.2485
X10.2287Y-3.925
X10.4406Y-3.8982
T7
X7.5146Y-2.9587
X7.987Y-2.9587
T0
M30
