%TF.GenerationSoftware,KiCad,Pcbnew,(5.1.10)-1*%
%TF.CreationDate,2021-10-16T10:52:32-04:00*%
%TF.ProjectId,mino_board,6d696e6f-5f62-46f6-9172-642e6b696361,rev?*%
%TF.SameCoordinates,Original*%
%TF.FileFunction,Paste,Bot*%
%TF.FilePolarity,Positive*%
%FSLAX46Y46*%
G04 Gerber Fmt 4.6, Leading zero omitted, Abs format (unit mm)*
G04 Created by KiCad (PCBNEW (5.1.10)-1) date 2021-10-16 10:52:32*
%MOMM*%
%LPD*%
G01*
G04 APERTURE LIST*
%ADD10C,0.100000*%
%ADD11R,2.600000X2.600000*%
G04 APERTURE END LIST*
D10*
%TO.C,L2*%
G36*
X267055527Y-88294238D02*
G01*
X265755527Y-86042572D01*
X268007193Y-84742572D01*
X269307193Y-86994238D01*
X267055527Y-88294238D01*
G37*
G36*
X255952934Y-92163982D02*
G01*
X254652934Y-89912316D01*
X256904600Y-88612316D01*
X258204600Y-90863982D01*
X255952934Y-92163982D01*
G37*
%TD*%
%TO.C,R2*%
G36*
X257657527Y-71793938D02*
G01*
X256357527Y-69542272D01*
X258609193Y-68242272D01*
X259909193Y-70493938D01*
X257657527Y-71793938D01*
G37*
G36*
X246554934Y-75663682D02*
G01*
X245254934Y-73412016D01*
X247506600Y-72112016D01*
X248806600Y-74363682D01*
X246554934Y-75663682D01*
G37*
%TD*%
%TO.C,LEFT1*%
G36*
X66003027Y-86138238D02*
G01*
X67303027Y-83886572D01*
X69554693Y-85186572D01*
X68254693Y-87438238D01*
X66003027Y-86138238D01*
G37*
G36*
X57100434Y-78457982D02*
G01*
X58400434Y-76206316D01*
X60652100Y-77506316D01*
X59352100Y-79757982D01*
X57100434Y-78457982D01*
G37*
%TD*%
%TO.C,DOWN1*%
G36*
X84037027Y-93128138D02*
G01*
X85337027Y-90876472D01*
X87588693Y-92176472D01*
X86288693Y-94428138D01*
X84037027Y-93128138D01*
G37*
G36*
X75134434Y-85447882D02*
G01*
X76434434Y-83196216D01*
X78686100Y-84496216D01*
X77386100Y-86747882D01*
X75134434Y-85447882D01*
G37*
%TD*%
%TO.C,RIGHT1*%
G36*
X98007027Y-107029738D02*
G01*
X99307027Y-104778072D01*
X101558693Y-106078072D01*
X100258693Y-108329738D01*
X98007027Y-107029738D01*
G37*
G36*
X89104434Y-99349482D02*
G01*
X90404434Y-97097816D01*
X92656100Y-98397816D01*
X91356100Y-100649482D01*
X89104434Y-99349482D01*
G37*
%TD*%
%TO.C,UP1*%
G36*
X84722334Y-68849982D02*
G01*
X86022334Y-66598316D01*
X88274000Y-67898316D01*
X86974000Y-70149982D01*
X84722334Y-68849982D01*
G37*
G36*
X93624927Y-76530238D02*
G01*
X94924927Y-74278572D01*
X97176593Y-75578572D01*
X95876593Y-77830238D01*
X93624927Y-76530238D01*
G37*
%TD*%
%TO.C,UP3*%
G36*
X199310384Y-144793647D02*
G01*
X197639136Y-142801931D01*
X199630852Y-141130683D01*
X201302100Y-143122399D01*
X199310384Y-144793647D01*
G37*
G36*
X209572330Y-139054748D02*
G01*
X207901082Y-137063032D01*
X209892798Y-135391784D01*
X211564046Y-137383500D01*
X209572330Y-139054748D01*
G37*
%TD*%
D11*
%TO.C,HOME1*%
X154325000Y-92770000D03*
X142775000Y-90570000D03*
%TD*%
%TO.C,R3*%
X173375000Y-111820000D03*
X161825000Y-109620000D03*
%TD*%
%TO.C,L3*%
X135275000Y-111820000D03*
X123725000Y-109620000D03*
%TD*%
%TO.C,START1*%
X161825000Y-90570000D03*
X173375000Y-92770000D03*
%TD*%
%TO.C,RIGHT2*%
X234399000Y-131505000D03*
X222849000Y-129305000D03*
%TD*%
%TO.C,SELECT1*%
X123725000Y-90570000D03*
X135275000Y-92770000D03*
%TD*%
%TO.C,LEFT2*%
X74385500Y-129496000D03*
X85935500Y-131696000D03*
%TD*%
D10*
%TO.C,UP2*%
G36*
X104898489Y-148212635D02*
G01*
X106569737Y-146220919D01*
X108561453Y-147892167D01*
X106890205Y-149883883D01*
X104898489Y-148212635D01*
G37*
G36*
X97464809Y-139103140D02*
G01*
X99136057Y-137111424D01*
X101127773Y-138782672D01*
X99456525Y-140774388D01*
X97464809Y-139103140D01*
G37*
%TD*%
%TO.C,L1*%
G36*
X247761527Y-92866238D02*
G01*
X246461527Y-90614572D01*
X248713193Y-89314572D01*
X250013193Y-91566238D01*
X247761527Y-92866238D01*
G37*
G36*
X236658934Y-96735982D02*
G01*
X235358934Y-94484316D01*
X237610600Y-93184316D01*
X238910600Y-95435982D01*
X236658934Y-96735982D01*
G37*
%TD*%
%TO.C,Y1*%
G36*
X219831527Y-83223938D02*
G01*
X218531527Y-80972272D01*
X220783193Y-79672272D01*
X222083193Y-81923938D01*
X219831527Y-83223938D01*
G37*
G36*
X208728934Y-87093682D02*
G01*
X207428934Y-84842016D01*
X209680600Y-83542016D01*
X210980600Y-85793682D01*
X208728934Y-87093682D01*
G37*
%TD*%
%TO.C,A1*%
G36*
X215015527Y-113775738D02*
G01*
X213715527Y-111524072D01*
X215967193Y-110224072D01*
X217267193Y-112475738D01*
X215015527Y-113775738D01*
G37*
G36*
X203912934Y-117645482D02*
G01*
X202612934Y-115393816D01*
X204864600Y-114093816D01*
X206164600Y-116345482D01*
X203912934Y-117645482D01*
G37*
%TD*%
%TO.C,R1*%
G36*
X238363527Y-76365938D02*
G01*
X237063527Y-74114272D01*
X239315193Y-72814272D01*
X240615193Y-75065938D01*
X238363527Y-76365938D01*
G37*
G36*
X227260934Y-80235682D02*
G01*
X225960934Y-77984016D01*
X228212600Y-76684016D01*
X229512600Y-78935682D01*
X227260934Y-80235682D01*
G37*
%TD*%
%TO.C,X1*%
G36*
X205617527Y-97275738D02*
G01*
X204317527Y-95024072D01*
X206569193Y-93724072D01*
X207869193Y-95975738D01*
X205617527Y-97275738D01*
G37*
G36*
X194514934Y-101145482D02*
G01*
X193214934Y-98893816D01*
X195466600Y-97593816D01*
X196766600Y-99845482D01*
X194514934Y-101145482D01*
G37*
%TD*%
%TO.C,B1*%
G36*
X229229527Y-99724738D02*
G01*
X227929527Y-97473072D01*
X230181193Y-96173072D01*
X231481193Y-98424738D01*
X229229527Y-99724738D01*
G37*
G36*
X218126934Y-103594482D02*
G01*
X216826934Y-101342816D01*
X219078600Y-100042816D01*
X220378600Y-102294482D01*
X218126934Y-103594482D01*
G37*
%TD*%
D11*
%TO.C,TOUCHPAD1*%
X142775000Y-109620000D03*
X154325000Y-111820000D03*
%TD*%
M02*
