M48
; DRILL file {KiCad (5.1.10)-1} date 10/16/21 10:52:30
; FORMAT={-:-/ absolute / inch / decimal}
; #@! TF.CreationDate,2021-10-16T10:52:30-04:00
; #@! TF.GenerationSoftware,Kicad,Pcbnew,(5.1.10)-1
; #@! TF.FileFunction,NonPlated,1,2,NPTH
FMAT,2
INCH
T1C0.0670
T2C0.1181
T3C0.1350
%
G90
G05
T1
X2.125Y-3.2292
X2.5Y-3.4458
X2.835Y-3.5044
X2.841Y-5.3325
X3.21Y-3.721
X3.2125Y-2.851
X3.274Y-5.3325
X3.385Y-4.0517
X3.5875Y-3.0675
X3.6916Y-5.5933
X3.76Y-4.2683
X4.0234Y-5.8717
X4.7835Y-3.8
X4.7835Y-4.55
X5.2165Y-3.8
X5.2165Y-4.55
X5.5335Y-3.8
X5.5335Y-4.55
X5.9665Y-3.8
X5.9665Y-4.55
X6.2835Y-3.8
X6.2835Y-4.55
X6.7165Y-3.8
X6.7165Y-4.55
X7.7181Y-4.1589
X7.9366Y-5.8642
X8.0881Y-4.8085
X8.0931Y-3.9423
X8.2684Y-5.5858
X8.2777Y-3.6056
X8.4631Y-4.5919
X8.6477Y-4.2553
X8.6527Y-3.3891
X8.686Y-5.325
X9.0073Y-3.3356
X9.0227Y-4.0387
X9.1191Y-5.325
X9.3773Y-3.9853
X9.3823Y-3.1191
X9.7523Y-3.7687
X9.7669Y-3.1556
X10.1369Y-3.8053
X10.1419Y-2.9391
X10.5119Y-3.5887
T2
X2.4296Y-3.1346
X2.5568Y-3.3081
X3.0575Y-5.0983
X3.1396Y-3.4098
X3.2544Y-5.1849
X3.2668Y-3.5833
X3.5171Y-2.7564
X3.6443Y-2.9298
X3.6896Y-3.9571
X3.8168Y-4.1306
X4.0081Y-5.5531
X4.1032Y-5.746
X5.0Y-3.5657
X5.0Y-4.3157
X5.1969Y-3.6524
X5.1969Y-4.4024
X5.75Y-3.5657
X5.75Y-4.3157
X5.9469Y-3.6524
X5.9469Y-4.4024
X6.5Y-3.5657
X6.5Y-4.3157
X6.6969Y-3.6524
X6.6969Y-4.4024
X7.7885Y-3.8477
X7.9519Y-5.5456
X8.0022Y-3.8243
X8.1584Y-5.4854
X8.1585Y-4.4973
X8.3481Y-3.2945
X8.3722Y-4.4739
X8.5619Y-3.2711
X8.7181Y-3.9441
X8.9025Y-5.0907
X8.9319Y-3.9207
X9.0777Y-3.0245
X9.0994Y-5.1774
X9.2915Y-3.0011
X9.4477Y-3.6741
X9.6615Y-3.6507
X9.8373Y-2.8445
X10.0511Y-2.8211
X10.2073Y-3.4941
X10.4211Y-3.4707
T3
X2.3125Y-3.3375
X3.0225Y-3.6127
X3.0575Y-5.3325
X3.4Y-2.9592
X3.5725Y-4.16
X3.8575Y-5.7325
X5.0Y-3.8
X5.0Y-4.55
X5.75Y-3.8
X5.75Y-4.55
X6.5Y-3.8
X6.5Y-4.55
X7.9056Y-4.0506
X8.1025Y-5.725
X8.2756Y-4.7002
X8.4652Y-3.4974
X8.8352Y-4.147
X8.9025Y-5.325
X9.1948Y-3.2274
X9.5648Y-3.877
X9.9544Y-3.0474
X10.3244Y-3.697
T0
M30
