M48
; DRILL file {KiCad (5.1.10)-1} date 10/08/21 21:35:01
; FORMAT={-:-/ absolute / inch / decimal}
; #@! TF.CreationDate,2021-10-08T21:35:01-04:00
; #@! TF.GenerationSoftware,Kicad,Pcbnew,(5.1.10)-1
; #@! TF.FileFunction,NonPlated,1,2,NPTH
FMAT,2
INCH
T1C0.0670
T2C0.1181
T3C0.1350
T4C0.1378
%
G90
G05
T1
X2.1275Y-3.1817
X2.5025Y-3.3983
X2.7775Y-3.5569
X2.7835Y-5.3
X3.1525Y-3.7735
X3.155Y-2.9035
X3.2165Y-5.3
X3.4321Y-3.9319
X3.53Y-3.12
X3.6341Y-5.5608
X3.8071Y-4.1485
X3.9659Y-5.8392
X4.7835Y-3.8
X4.7835Y-4.55
X5.2165Y-3.8
X5.2165Y-4.55
X5.5335Y-3.8
X5.5335Y-4.55
X5.9665Y-3.8
X5.9665Y-4.55
X6.2835Y-3.8
X6.2835Y-4.55
X6.7165Y-3.8
X6.7165Y-4.55
X7.7181Y-4.1589
X7.9341Y-5.8392
X8.0881Y-4.8085
X8.0931Y-3.9423
X8.2659Y-5.5608
X8.2777Y-3.6056
X8.4631Y-4.5919
X8.6477Y-4.2553
X8.6527Y-3.3891
X8.6835Y-5.3
X9.0073Y-3.3356
X9.0227Y-4.0387
X9.1165Y-5.3
X9.3773Y-3.9853
X9.3823Y-3.1191
X9.7523Y-3.7687
X9.7669Y-3.1556
X10.1369Y-3.8053
X10.1419Y-2.9391
X10.5119Y-3.5887
T2
X2.4321Y-3.0871
X2.5593Y-3.2606
X3.0Y-5.0657
X3.0821Y-3.4623
X3.1969Y-5.1524
X3.2093Y-3.6358
X3.4596Y-2.8089
X3.5868Y-2.9823
X3.7367Y-3.8373
X3.8639Y-4.0108
X3.9506Y-5.5206
X4.0457Y-5.7134
X5.0Y-3.5657
X5.0Y-4.3157
X5.1969Y-3.6524
X5.1969Y-4.4024
X5.75Y-3.5657
X5.75Y-4.3157
X5.9469Y-3.6524
X5.9469Y-4.4024
X6.5Y-3.5657
X6.5Y-4.3157
X6.6969Y-3.6524
X6.6969Y-4.4024
X7.7885Y-3.8477
X7.9494Y-5.5206
X8.0022Y-3.8243
X8.1559Y-5.4604
X8.1585Y-4.4973
X8.3481Y-3.2945
X8.3722Y-4.4739
X8.5619Y-3.2711
X8.7181Y-3.9441
X8.9Y-5.0657
X8.9319Y-3.9207
X9.0777Y-3.0245
X9.0969Y-5.1524
X9.2915Y-3.0011
X9.4477Y-3.6741
X9.6615Y-3.6507
X9.8373Y-2.8445
X10.0511Y-2.8211
X10.2073Y-3.4941
X10.4211Y-3.4707
T3
X2.315Y-3.29
X2.965Y-3.6652
X3.0Y-5.3
X3.3425Y-3.0117
X3.6196Y-4.0402
X3.8Y-5.7
X5.0Y-3.8
X5.0Y-4.55
X5.75Y-3.8
X5.75Y-4.55
X6.5Y-3.8
X6.5Y-4.55
X7.9056Y-4.0506
X8.1Y-5.7
X8.2756Y-4.7002
X8.4652Y-3.4974
X8.8352Y-4.147
X8.9Y-5.3
X9.1948Y-3.2274
X9.5648Y-3.877
X9.9544Y-3.0474
X10.3244Y-3.697
T4
X4.1Y-3.6
X4.1Y-5.05
X7.55Y-5.0531
X7.5551Y-3.6
T0
M30
