%TF.GenerationSoftware,KiCad,Pcbnew,(5.1.10)-1*%
%TF.CreationDate,2021-10-08T21:35:03-04:00*%
%TF.ProjectId,mino_board,6d696e6f-5f62-46f6-9172-642e6b696361,rev?*%
%TF.SameCoordinates,Original*%
%TF.FileFunction,Soldermask,Bot*%
%TF.FilePolarity,Negative*%
%FSLAX46Y46*%
G04 Gerber Fmt 4.6, Leading zero omitted, Abs format (unit mm)*
G04 Created by KiCad (PCBNEW (5.1.10)-1) date 2021-10-08 21:35:03*
%MOMM*%
%LPD*%
G01*
G04 APERTURE LIST*
%ADD10C,0.100000*%
%ADD11C,3.000000*%
%ADD12C,2.032000*%
%ADD13C,3.429000*%
%ADD14C,1.701800*%
%ADD15C,4.000000*%
%ADD16C,1.600000*%
%ADD17R,1.600000X1.600000*%
%ADD18C,3.500000*%
%ADD19R,2.600000X2.600000*%
%ADD20O,1.700000X1.700000*%
%ADD21R,1.700000X1.700000*%
%ADD22O,1.350000X1.350000*%
%ADD23R,1.350000X1.350000*%
%ADD24R,1.800000X1.800000*%
%ADD25C,1.800000*%
G04 APERTURE END LIST*
D10*
%TO.C,L2*%
G36*
X267055527Y-88294238D02*
G01*
X265755527Y-86042572D01*
X268007193Y-84742572D01*
X269307193Y-86994238D01*
X267055527Y-88294238D01*
G37*
D11*
X259265000Y-88750649D03*
D12*
X265190000Y-99013050D03*
X259809873Y-99694397D03*
D13*
X262240000Y-93903500D03*
D11*
X264695127Y-88155905D03*
D10*
G36*
X255952934Y-92163982D02*
G01*
X254652934Y-89912316D01*
X256904600Y-88612316D01*
X258204600Y-90863982D01*
X255952934Y-92163982D01*
G37*
D14*
X267003140Y-91153500D03*
X257476860Y-96653500D03*
%TD*%
D15*
%TO.C,USB_B1*%
X202870000Y-75150000D03*
X190870000Y-75150000D03*
D16*
X198120000Y-78010000D03*
X195620000Y-78010000D03*
X195620000Y-80010000D03*
D17*
X198120000Y-80010000D03*
%TD*%
D18*
%TO.C,BH1*%
X104140000Y-91440000D03*
%TD*%
%TO.C,BH2*%
X191900000Y-91440000D03*
%TD*%
%TO.C,BH4*%
X191770000Y-128350000D03*
%TD*%
D10*
%TO.C,R2*%
G36*
X257657527Y-71793938D02*
G01*
X256357527Y-69542272D01*
X258609193Y-68242272D01*
X259909193Y-70493938D01*
X257657527Y-71793938D01*
G37*
D11*
X249867000Y-72250349D03*
D12*
X255792000Y-82512750D03*
X250411873Y-83194097D03*
D13*
X252842000Y-77403200D03*
D11*
X255297127Y-71655605D03*
D10*
G36*
X246554934Y-75663682D02*
G01*
X245254934Y-73412016D01*
X247506600Y-72112016D01*
X248806600Y-74363682D01*
X246554934Y-75663682D01*
G37*
D14*
X257605140Y-74653200D03*
X248078860Y-80153200D03*
%TD*%
D10*
%TO.C,LEFT1*%
G36*
X66066527Y-84931738D02*
G01*
X67366527Y-82680072D01*
X69618193Y-83980072D01*
X68318193Y-86231738D01*
X66066527Y-84931738D01*
G37*
D11*
X61776000Y-78413149D03*
D12*
X55851000Y-88675550D03*
X52570873Y-84356897D03*
D13*
X58801000Y-83566000D03*
D11*
X65006127Y-82818405D03*
D10*
G36*
X57163934Y-77251482D02*
G01*
X58463934Y-74999816D01*
X60715600Y-76299816D01*
X59415600Y-78551482D01*
X57163934Y-77251482D01*
G37*
D14*
X63564140Y-86316000D03*
X54037860Y-80816000D03*
%TD*%
D10*
%TO.C,DOWN1*%
G36*
X82576527Y-94461638D02*
G01*
X83876527Y-92209972D01*
X86128193Y-93509972D01*
X84828193Y-95761638D01*
X82576527Y-94461638D01*
G37*
D11*
X78286000Y-87943049D03*
D12*
X72361000Y-98205450D03*
X69080873Y-93886797D03*
D13*
X75311000Y-93095900D03*
D11*
X81516127Y-92348305D03*
D10*
G36*
X73673934Y-86781382D02*
G01*
X74973934Y-84529716D01*
X77225600Y-85829716D01*
X75925600Y-88081382D01*
X73673934Y-86781382D01*
G37*
D14*
X80074140Y-95845900D03*
X70547860Y-90345900D03*
%TD*%
D10*
%TO.C,RIGHT1*%
G36*
X99203727Y-103986738D02*
G01*
X100503727Y-101735072D01*
X102755393Y-103035072D01*
X101455393Y-105286738D01*
X99203727Y-103986738D01*
G37*
D11*
X94913200Y-97468149D03*
D12*
X88988200Y-107730550D03*
X85708073Y-103411897D03*
D13*
X91938200Y-102621000D03*
D11*
X98143327Y-101873405D03*
D10*
G36*
X90301134Y-96306482D02*
G01*
X91601134Y-94054816D01*
X93852800Y-95354816D01*
X92552800Y-97606482D01*
X90301134Y-96306482D01*
G37*
D14*
X96701340Y-105371000D03*
X87175060Y-99871000D03*
%TD*%
%TO.C,UP1*%
X80135760Y-73748000D03*
X89662040Y-79248000D03*
D10*
G36*
X83261834Y-70183482D02*
G01*
X84561834Y-67931816D01*
X86813500Y-69231816D01*
X85513500Y-71483482D01*
X83261834Y-70183482D01*
G37*
D11*
X91104027Y-75750405D03*
D13*
X84898900Y-76498000D03*
D12*
X78668773Y-77288897D03*
X81948900Y-81607550D03*
D11*
X87873900Y-71345149D03*
D10*
G36*
X92164427Y-77863738D02*
G01*
X93464427Y-75612072D01*
X95716093Y-76912072D01*
X94416093Y-79163738D01*
X92164427Y-77863738D01*
G37*
%TD*%
D14*
%TO.C,UP3*%
X201526756Y-148315332D03*
X209953244Y-141244668D03*
D10*
G36*
X199246384Y-144158647D02*
G01*
X197575136Y-142166931D01*
X199566852Y-140495683D01*
X201238100Y-142487399D01*
X199246384Y-144158647D01*
G37*
D11*
X207159769Y-138693395D03*
D13*
X205740000Y-144780000D03*
D12*
X204352371Y-150904907D03*
X209532447Y-149299662D03*
D11*
X201915414Y-140222036D03*
D10*
G36*
X209508330Y-138419748D02*
G01*
X207837082Y-136428032D01*
X209828798Y-134756784D01*
X211500046Y-136748500D01*
X209508330Y-138419748D01*
G37*
%TD*%
D19*
%TO.C,HOME1*%
X154325000Y-92770000D03*
D11*
X146050000Y-90570000D03*
D12*
X146050000Y-102420000D03*
X141050000Y-100320000D03*
D13*
X146050000Y-96520000D03*
D11*
X151050000Y-92770000D03*
D19*
X142775000Y-90570000D03*
D14*
X151550000Y-96520000D03*
X140550000Y-96520000D03*
%TD*%
D19*
%TO.C,R3*%
X173375000Y-111820000D03*
D11*
X165100000Y-109620000D03*
D12*
X165100000Y-121470000D03*
X160100000Y-119370000D03*
D13*
X165100000Y-115570000D03*
D11*
X170100000Y-111820000D03*
D19*
X161825000Y-109620000D03*
D14*
X170600000Y-115570000D03*
X159600000Y-115570000D03*
%TD*%
D19*
%TO.C,L3*%
X135275000Y-111820000D03*
D11*
X127000000Y-109620000D03*
D12*
X127000000Y-121470000D03*
X122000000Y-119370000D03*
D13*
X127000000Y-115570000D03*
D11*
X132000000Y-111820000D03*
D19*
X123725000Y-109620000D03*
D14*
X132500000Y-115570000D03*
X121500000Y-115570000D03*
%TD*%
%TO.C,START1*%
X159600000Y-96520000D03*
X170600000Y-96520000D03*
D19*
X161825000Y-90570000D03*
D11*
X170100000Y-92770000D03*
D13*
X165100000Y-96520000D03*
D12*
X160100000Y-100320000D03*
X165100000Y-102420000D03*
D11*
X165100000Y-90570000D03*
D19*
X173375000Y-92770000D03*
%TD*%
%TO.C,RIGHT2*%
X234335000Y-130870000D03*
D11*
X226060000Y-128670000D03*
D12*
X226060000Y-140520000D03*
X221060000Y-138420000D03*
D13*
X226060000Y-134620000D03*
D11*
X231060000Y-130870000D03*
D19*
X222785000Y-128670000D03*
D14*
X231560000Y-134620000D03*
X220560000Y-134620000D03*
%TD*%
%TO.C,SELECT1*%
X121500000Y-96520000D03*
X132500000Y-96520000D03*
D19*
X123725000Y-90570000D03*
D11*
X132000000Y-92770000D03*
D13*
X127000000Y-96520000D03*
D12*
X122000000Y-100320000D03*
X127000000Y-102420000D03*
D11*
X127000000Y-90570000D03*
D19*
X135275000Y-92770000D03*
%TD*%
D14*
%TO.C,LEFT2*%
X70700000Y-134620000D03*
X81700000Y-134620000D03*
D19*
X72925000Y-128670000D03*
D11*
X81200000Y-130870000D03*
D13*
X76200000Y-134620000D03*
D12*
X71200000Y-138420000D03*
X76200000Y-140520000D03*
D11*
X76200000Y-128670000D03*
D19*
X84475000Y-130870000D03*
%TD*%
D10*
%TO.C,UP2*%
G36*
X103437989Y-147386635D02*
G01*
X105109237Y-145394919D01*
X107100953Y-147066167D01*
X105429705Y-149057883D01*
X103437989Y-147386635D01*
G37*
D11*
X100344586Y-140222036D03*
D12*
X92727553Y-149299662D03*
X90247185Y-144477031D03*
D13*
X96520000Y-144780000D03*
D11*
X102760676Y-145121271D03*
D10*
G36*
X96004309Y-138277140D02*
G01*
X97675557Y-136285424D01*
X99667273Y-137956672D01*
X97996025Y-139948388D01*
X96004309Y-138277140D01*
G37*
D14*
X100733244Y-148315332D03*
X92306756Y-141244668D03*
%TD*%
D10*
%TO.C,L1*%
G36*
X247761527Y-92866238D02*
G01*
X246461527Y-90614572D01*
X248713193Y-89314572D01*
X250013193Y-91566238D01*
X247761527Y-92866238D01*
G37*
D11*
X239971000Y-93322649D03*
D12*
X245896000Y-103585050D03*
X240515873Y-104266397D03*
D13*
X242946000Y-98475500D03*
D11*
X245401127Y-92727905D03*
D10*
G36*
X236658934Y-96735982D02*
G01*
X235358934Y-94484316D01*
X237610600Y-93184316D01*
X238910600Y-95435982D01*
X236658934Y-96735982D01*
G37*
D14*
X247709140Y-95725500D03*
X238182860Y-101225500D03*
%TD*%
D10*
%TO.C,Y1*%
G36*
X219831527Y-83223938D02*
G01*
X218531527Y-80972272D01*
X220783193Y-79672272D01*
X222083193Y-81923938D01*
X219831527Y-83223938D01*
G37*
D11*
X212041000Y-83680349D03*
D12*
X217966000Y-93942750D03*
X212585873Y-94624097D03*
D13*
X215016000Y-88833200D03*
D11*
X217471127Y-83085605D03*
D10*
G36*
X208728934Y-87093682D02*
G01*
X207428934Y-84842016D01*
X209680600Y-83542016D01*
X210980600Y-85793682D01*
X208728934Y-87093682D01*
G37*
D14*
X219779140Y-86083200D03*
X210252860Y-91583200D03*
%TD*%
D10*
%TO.C,A1*%
G36*
X215015527Y-113775738D02*
G01*
X213715527Y-111524072D01*
X215967193Y-110224072D01*
X217267193Y-112475738D01*
X215015527Y-113775738D01*
G37*
D11*
X207225000Y-114232149D03*
D12*
X213150000Y-124494550D03*
X207769873Y-125175897D03*
D13*
X210200000Y-119385000D03*
D11*
X212655127Y-113637405D03*
D10*
G36*
X203912934Y-117645482D02*
G01*
X202612934Y-115393816D01*
X204864600Y-114093816D01*
X206164600Y-116345482D01*
X203912934Y-117645482D01*
G37*
D14*
X214963140Y-116635000D03*
X205436860Y-122135000D03*
%TD*%
D10*
%TO.C,R1*%
G36*
X238363527Y-76365938D02*
G01*
X237063527Y-74114272D01*
X239315193Y-72814272D01*
X240615193Y-75065938D01*
X238363527Y-76365938D01*
G37*
D11*
X230573000Y-76822349D03*
D12*
X236498000Y-87084750D03*
X231117873Y-87766097D03*
D13*
X233548000Y-81975200D03*
D11*
X236003127Y-76227605D03*
D10*
G36*
X227260934Y-80235682D02*
G01*
X225960934Y-77984016D01*
X228212600Y-76684016D01*
X229512600Y-78935682D01*
X227260934Y-80235682D01*
G37*
D14*
X238311140Y-79225200D03*
X228784860Y-84725200D03*
%TD*%
D10*
%TO.C,X1*%
G36*
X205617527Y-97275738D02*
G01*
X204317527Y-95024072D01*
X206569193Y-93724072D01*
X207869193Y-95975738D01*
X205617527Y-97275738D01*
G37*
D11*
X197827000Y-97732149D03*
D12*
X203752000Y-107994550D03*
X198371873Y-108675897D03*
D13*
X200802000Y-102885000D03*
D11*
X203257127Y-97137405D03*
D10*
G36*
X194514934Y-101145482D02*
G01*
X193214934Y-98893816D01*
X195466600Y-97593816D01*
X196766600Y-99845482D01*
X194514934Y-101145482D01*
G37*
D14*
X205565140Y-100135000D03*
X196038860Y-105635000D03*
%TD*%
D10*
%TO.C,B1*%
G36*
X229229527Y-99724738D02*
G01*
X227929527Y-97473072D01*
X230181193Y-96173072D01*
X231481193Y-98424738D01*
X229229527Y-99724738D01*
G37*
D11*
X221439000Y-100181149D03*
D12*
X227364000Y-110443550D03*
X221983873Y-111124897D03*
D13*
X224414000Y-105334000D03*
D11*
X226869127Y-99586405D03*
D10*
G36*
X218126934Y-103594482D02*
G01*
X216826934Y-101342816D01*
X219078600Y-100042816D01*
X220378600Y-102294482D01*
X218126934Y-103594482D01*
G37*
D14*
X229177140Y-102584000D03*
X219650860Y-108084000D03*
%TD*%
%TO.C,TOUCHPAD1*%
X140550000Y-115570000D03*
X151550000Y-115570000D03*
D19*
X142775000Y-109620000D03*
D11*
X151050000Y-111820000D03*
D13*
X146050000Y-115570000D03*
D12*
X141050000Y-119370000D03*
X146050000Y-121470000D03*
D11*
X146050000Y-109620000D03*
D19*
X154325000Y-111820000D03*
%TD*%
D20*
%TO.C,J4*%
X110665000Y-130310000D03*
X110665000Y-127770000D03*
X113205000Y-130310000D03*
X113205000Y-127770000D03*
X115745000Y-130310000D03*
X115745000Y-127770000D03*
X118285000Y-130310000D03*
X118285000Y-127770000D03*
X120825000Y-130310000D03*
X120825000Y-127770000D03*
X123365000Y-130310000D03*
X123365000Y-127770000D03*
X125905000Y-130310000D03*
X125905000Y-127770000D03*
X128445000Y-130310000D03*
X128445000Y-127770000D03*
X130985000Y-130310000D03*
X130985000Y-127770000D03*
X133525000Y-130310000D03*
D21*
X133525000Y-127770000D03*
%TD*%
D20*
%TO.C,J1-2*%
X169260000Y-125160000D03*
X171800000Y-125160000D03*
X174340000Y-125160000D03*
D21*
X176880000Y-125160000D03*
%TD*%
D22*
%TO.C,J2*%
X150780000Y-128350000D03*
X148780000Y-128350000D03*
X146780000Y-128350000D03*
X144780000Y-128350000D03*
D23*
X142780000Y-128350000D03*
%TD*%
D22*
%TO.C,J10*%
X161780000Y-128350000D03*
X159780000Y-128350000D03*
X157780000Y-128350000D03*
D23*
X155780000Y-128350000D03*
%TD*%
D18*
%TO.C,BH3*%
X104140000Y-128270000D03*
%TD*%
D24*
%TO.C,P4*%
X152400000Y-83820000D03*
D25*
X154940000Y-83820000D03*
%TD*%
%TO.C,P3*%
X149860000Y-83820000D03*
D24*
X147320000Y-83820000D03*
%TD*%
%TO.C,P2*%
X142240000Y-83820000D03*
D25*
X144780000Y-83820000D03*
%TD*%
%TO.C,P1*%
X139700000Y-83820000D03*
D24*
X137160000Y-83820000D03*
%TD*%
M02*
