%TF.GenerationSoftware,KiCad,Pcbnew,(5.1.10)-1*%
%TF.CreationDate,2021-10-16T10:52:33-04:00*%
%TF.ProjectId,mino_board,6d696e6f-5f62-46f6-9172-642e6b696361,rev?*%
%TF.SameCoordinates,Original*%
%TF.FileFunction,Soldermask,Bot*%
%TF.FilePolarity,Negative*%
%FSLAX46Y46*%
G04 Gerber Fmt 4.6, Leading zero omitted, Abs format (unit mm)*
G04 Created by KiCad (PCBNEW (5.1.10)-1) date 2021-10-16 10:52:33*
%MOMM*%
%LPD*%
G01*
G04 APERTURE LIST*
%ADD10R,1.600000X1.600000*%
%ADD11O,1.600000X1.600000*%
%ADD12O,1.700000X1.700000*%
%ADD13R,1.700000X1.700000*%
%ADD14C,2.000000*%
%ADD15C,1.700000*%
%ADD16C,0.100000*%
%ADD17C,3.000000*%
%ADD18C,2.032000*%
%ADD19C,3.429000*%
%ADD20C,1.701800*%
%ADD21C,4.000000*%
%ADD22C,1.600000*%
%ADD23R,2.600000X2.600000*%
%ADD24O,1.350000X1.350000*%
%ADD25R,1.350000X1.350000*%
%ADD26R,1.800000X1.800000*%
%ADD27C,1.800000*%
G04 APERTURE END LIST*
D10*
%TO.C,DIP_LEFT1*%
X118778000Y-142113000D03*
D11*
X146718000Y-134493000D03*
X121318000Y-142113000D03*
X144178000Y-134493000D03*
X123858000Y-142113000D03*
X141638000Y-134493000D03*
X126398000Y-142113000D03*
X139098000Y-134493000D03*
X128938000Y-142113000D03*
X136558000Y-134493000D03*
X131478000Y-142113000D03*
X134018000Y-134493000D03*
X134018000Y-142113000D03*
X131478000Y-134493000D03*
X136558000Y-142113000D03*
X128938000Y-134493000D03*
X139098000Y-142113000D03*
X126398000Y-134493000D03*
X141638000Y-142113000D03*
X123858000Y-134493000D03*
X144178000Y-142113000D03*
X121318000Y-134493000D03*
X146718000Y-142113000D03*
X118778000Y-134493000D03*
%TD*%
%TO.C,DIP_RIGHT1*%
X158623000Y-134493000D03*
X186563000Y-142113000D03*
X161163000Y-134493000D03*
X184023000Y-142113000D03*
X163703000Y-134493000D03*
X181483000Y-142113000D03*
X166243000Y-134493000D03*
X178943000Y-142113000D03*
X168783000Y-134493000D03*
X176403000Y-142113000D03*
X171323000Y-134493000D03*
X173863000Y-142113000D03*
X173863000Y-134493000D03*
X171323000Y-142113000D03*
X176403000Y-134493000D03*
X168783000Y-142113000D03*
X178943000Y-134493000D03*
X166243000Y-142113000D03*
X181483000Y-134493000D03*
X163703000Y-142113000D03*
X184023000Y-134493000D03*
X161163000Y-142113000D03*
X186563000Y-134493000D03*
D10*
X158623000Y-142113000D03*
%TD*%
D12*
%TO.C,JSTICKTYPE1*%
X106934000Y-120269000D03*
X106934000Y-117729000D03*
X106934000Y-115189000D03*
D13*
X106934000Y-112649000D03*
%TD*%
D14*
%TO.C,SW_SOCD1*%
X168302000Y-78394500D03*
X180302000Y-78394500D03*
X180302000Y-72394500D03*
X168302000Y-72394500D03*
D15*
X170302000Y-76644500D03*
X174302000Y-76644500D03*
X178302000Y-76644500D03*
%TD*%
D12*
%TO.C,JSOCD1*%
X176657000Y-128270000D03*
D13*
X179197000Y-128270000D03*
%TD*%
D16*
%TO.C,L2*%
G36*
X267055527Y-88294238D02*
G01*
X265755527Y-86042572D01*
X268007193Y-84742572D01*
X269307193Y-86994238D01*
X267055527Y-88294238D01*
G37*
D17*
X259265000Y-88750649D03*
D18*
X265190000Y-99013050D03*
X259809873Y-99694397D03*
D19*
X262240000Y-93903500D03*
D17*
X264695127Y-88155905D03*
D16*
G36*
X255952934Y-92163982D02*
G01*
X254652934Y-89912316D01*
X256904600Y-88612316D01*
X258204600Y-90863982D01*
X255952934Y-92163982D01*
G37*
D20*
X267003140Y-91153500D03*
X257476860Y-96653500D03*
%TD*%
D21*
%TO.C,USB_B1*%
X202870000Y-75150000D03*
X190870000Y-75150000D03*
D22*
X198120000Y-78010000D03*
X195620000Y-78010000D03*
X195620000Y-80010000D03*
D10*
X198120000Y-80010000D03*
%TD*%
D16*
%TO.C,R2*%
G36*
X257657527Y-71793938D02*
G01*
X256357527Y-69542272D01*
X258609193Y-68242272D01*
X259909193Y-70493938D01*
X257657527Y-71793938D01*
G37*
D17*
X249867000Y-72250349D03*
D18*
X255792000Y-82512750D03*
X250411873Y-83194097D03*
D19*
X252842000Y-77403200D03*
D17*
X255297127Y-71655605D03*
D16*
G36*
X246554934Y-75663682D02*
G01*
X245254934Y-73412016D01*
X247506600Y-72112016D01*
X248806600Y-74363682D01*
X246554934Y-75663682D01*
G37*
D20*
X257605140Y-74653200D03*
X248078860Y-80153200D03*
%TD*%
D16*
%TO.C,LEFT1*%
G36*
X66003027Y-86138238D02*
G01*
X67303027Y-83886572D01*
X69554693Y-85186572D01*
X68254693Y-87438238D01*
X66003027Y-86138238D01*
G37*
D17*
X61712500Y-79619649D03*
D18*
X55787500Y-89882050D03*
X52507373Y-85563397D03*
D19*
X58737500Y-84772500D03*
D17*
X64942627Y-84024905D03*
D16*
G36*
X57100434Y-78457982D02*
G01*
X58400434Y-76206316D01*
X60652100Y-77506316D01*
X59352100Y-79757982D01*
X57100434Y-78457982D01*
G37*
D20*
X63500640Y-87522500D03*
X53974360Y-82022500D03*
%TD*%
D16*
%TO.C,DOWN1*%
G36*
X84037027Y-93128138D02*
G01*
X85337027Y-90876472D01*
X87588693Y-92176472D01*
X86288693Y-94428138D01*
X84037027Y-93128138D01*
G37*
D17*
X79746500Y-86609549D03*
D18*
X73821500Y-96871950D03*
X70541373Y-92553297D03*
D19*
X76771500Y-91762400D03*
D17*
X82976627Y-91014805D03*
D16*
G36*
X75134434Y-85447882D02*
G01*
X76434434Y-83196216D01*
X78686100Y-84496216D01*
X77386100Y-86747882D01*
X75134434Y-85447882D01*
G37*
D20*
X81534640Y-94512400D03*
X72008360Y-89012400D03*
%TD*%
D16*
%TO.C,RIGHT1*%
G36*
X98007027Y-107029738D02*
G01*
X99307027Y-104778072D01*
X101558693Y-106078072D01*
X100258693Y-108329738D01*
X98007027Y-107029738D01*
G37*
D17*
X93716500Y-100511149D03*
D18*
X87791500Y-110773550D03*
X84511373Y-106454897D03*
D19*
X90741500Y-105664000D03*
D17*
X96946627Y-104916405D03*
D16*
G36*
X89104434Y-99349482D02*
G01*
X90404434Y-97097816D01*
X92656100Y-98397816D01*
X91356100Y-100649482D01*
X89104434Y-99349482D01*
G37*
D20*
X95504640Y-108414000D03*
X85978360Y-102914000D03*
%TD*%
%TO.C,UP1*%
X81596260Y-72414500D03*
X91122540Y-77914500D03*
D16*
G36*
X84722334Y-68849982D02*
G01*
X86022334Y-66598316D01*
X88274000Y-67898316D01*
X86974000Y-70149982D01*
X84722334Y-68849982D01*
G37*
D17*
X92564527Y-74416905D03*
D19*
X86359400Y-75164500D03*
D18*
X80129273Y-75955397D03*
X83409400Y-80274050D03*
D17*
X89334400Y-70011649D03*
D16*
G36*
X93624927Y-76530238D02*
G01*
X94924927Y-74278572D01*
X97176593Y-75578572D01*
X95876593Y-77830238D01*
X93624927Y-76530238D01*
G37*
%TD*%
D20*
%TO.C,UP3*%
X201590756Y-148950332D03*
X210017244Y-141879668D03*
D16*
G36*
X199310384Y-144793647D02*
G01*
X197639136Y-142801931D01*
X199630852Y-141130683D01*
X201302100Y-143122399D01*
X199310384Y-144793647D01*
G37*
D17*
X207223769Y-139328395D03*
D19*
X205804000Y-145415000D03*
D18*
X204416371Y-151539907D03*
X209596447Y-149934662D03*
D17*
X201979414Y-140857036D03*
D16*
G36*
X209572330Y-139054748D02*
G01*
X207901082Y-137063032D01*
X209892798Y-135391784D01*
X211564046Y-137383500D01*
X209572330Y-139054748D01*
G37*
%TD*%
D23*
%TO.C,HOME1*%
X154325000Y-92770000D03*
D17*
X146050000Y-90570000D03*
D18*
X146050000Y-102420000D03*
X141050000Y-100320000D03*
D19*
X146050000Y-96520000D03*
D17*
X151050000Y-92770000D03*
D23*
X142775000Y-90570000D03*
D20*
X151550000Y-96520000D03*
X140550000Y-96520000D03*
%TD*%
D23*
%TO.C,R3*%
X173375000Y-111820000D03*
D17*
X165100000Y-109620000D03*
D18*
X165100000Y-121470000D03*
X160100000Y-119370000D03*
D19*
X165100000Y-115570000D03*
D17*
X170100000Y-111820000D03*
D23*
X161825000Y-109620000D03*
D20*
X170600000Y-115570000D03*
X159600000Y-115570000D03*
%TD*%
D23*
%TO.C,L3*%
X135275000Y-111820000D03*
D17*
X127000000Y-109620000D03*
D18*
X127000000Y-121470000D03*
X122000000Y-119370000D03*
D19*
X127000000Y-115570000D03*
D17*
X132000000Y-111820000D03*
D23*
X123725000Y-109620000D03*
D20*
X132500000Y-115570000D03*
X121500000Y-115570000D03*
%TD*%
%TO.C,START1*%
X159600000Y-96520000D03*
X170600000Y-96520000D03*
D23*
X161825000Y-90570000D03*
D17*
X170100000Y-92770000D03*
D19*
X165100000Y-96520000D03*
D18*
X160100000Y-100320000D03*
X165100000Y-102420000D03*
D17*
X165100000Y-90570000D03*
D23*
X173375000Y-92770000D03*
%TD*%
%TO.C,RIGHT2*%
X234399000Y-131505000D03*
D17*
X226124000Y-129305000D03*
D18*
X226124000Y-141155000D03*
X221124000Y-139055000D03*
D19*
X226124000Y-135255000D03*
D17*
X231124000Y-131505000D03*
D23*
X222849000Y-129305000D03*
D20*
X231624000Y-135255000D03*
X220624000Y-135255000D03*
%TD*%
%TO.C,SELECT1*%
X121500000Y-96520000D03*
X132500000Y-96520000D03*
D23*
X123725000Y-90570000D03*
D17*
X132000000Y-92770000D03*
D19*
X127000000Y-96520000D03*
D18*
X122000000Y-100320000D03*
X127000000Y-102420000D03*
D17*
X127000000Y-90570000D03*
D23*
X135275000Y-92770000D03*
%TD*%
D20*
%TO.C,LEFT2*%
X72160500Y-135446000D03*
X83160500Y-135446000D03*
D23*
X74385500Y-129496000D03*
D17*
X82660500Y-131696000D03*
D19*
X77660500Y-135446000D03*
D18*
X72660500Y-139246000D03*
X77660500Y-141346000D03*
D17*
X77660500Y-129496000D03*
D23*
X85935500Y-131696000D03*
%TD*%
D16*
%TO.C,UP2*%
G36*
X104898489Y-148212635D02*
G01*
X106569737Y-146220919D01*
X108561453Y-147892167D01*
X106890205Y-149883883D01*
X104898489Y-148212635D01*
G37*
D17*
X101805086Y-141048036D03*
D18*
X94188053Y-150125662D03*
X91707685Y-145303031D03*
D19*
X97980500Y-145606000D03*
D17*
X104221176Y-145947271D03*
D16*
G36*
X97464809Y-139103140D02*
G01*
X99136057Y-137111424D01*
X101127773Y-138782672D01*
X99456525Y-140774388D01*
X97464809Y-139103140D01*
G37*
D20*
X102193744Y-149141332D03*
X93767256Y-142070668D03*
%TD*%
D16*
%TO.C,L1*%
G36*
X247761527Y-92866238D02*
G01*
X246461527Y-90614572D01*
X248713193Y-89314572D01*
X250013193Y-91566238D01*
X247761527Y-92866238D01*
G37*
D17*
X239971000Y-93322649D03*
D18*
X245896000Y-103585050D03*
X240515873Y-104266397D03*
D19*
X242946000Y-98475500D03*
D17*
X245401127Y-92727905D03*
D16*
G36*
X236658934Y-96735982D02*
G01*
X235358934Y-94484316D01*
X237610600Y-93184316D01*
X238910600Y-95435982D01*
X236658934Y-96735982D01*
G37*
D20*
X247709140Y-95725500D03*
X238182860Y-101225500D03*
%TD*%
D16*
%TO.C,Y1*%
G36*
X219831527Y-83223938D02*
G01*
X218531527Y-80972272D01*
X220783193Y-79672272D01*
X222083193Y-81923938D01*
X219831527Y-83223938D01*
G37*
D17*
X212041000Y-83680349D03*
D18*
X217966000Y-93942750D03*
X212585873Y-94624097D03*
D19*
X215016000Y-88833200D03*
D17*
X217471127Y-83085605D03*
D16*
G36*
X208728934Y-87093682D02*
G01*
X207428934Y-84842016D01*
X209680600Y-83542016D01*
X210980600Y-85793682D01*
X208728934Y-87093682D01*
G37*
D20*
X219779140Y-86083200D03*
X210252860Y-91583200D03*
%TD*%
D16*
%TO.C,A1*%
G36*
X215015527Y-113775738D02*
G01*
X213715527Y-111524072D01*
X215967193Y-110224072D01*
X217267193Y-112475738D01*
X215015527Y-113775738D01*
G37*
D17*
X207225000Y-114232149D03*
D18*
X213150000Y-124494550D03*
X207769873Y-125175897D03*
D19*
X210200000Y-119385000D03*
D17*
X212655127Y-113637405D03*
D16*
G36*
X203912934Y-117645482D02*
G01*
X202612934Y-115393816D01*
X204864600Y-114093816D01*
X206164600Y-116345482D01*
X203912934Y-117645482D01*
G37*
D20*
X214963140Y-116635000D03*
X205436860Y-122135000D03*
%TD*%
D16*
%TO.C,R1*%
G36*
X238363527Y-76365938D02*
G01*
X237063527Y-74114272D01*
X239315193Y-72814272D01*
X240615193Y-75065938D01*
X238363527Y-76365938D01*
G37*
D17*
X230573000Y-76822349D03*
D18*
X236498000Y-87084750D03*
X231117873Y-87766097D03*
D19*
X233548000Y-81975200D03*
D17*
X236003127Y-76227605D03*
D16*
G36*
X227260934Y-80235682D02*
G01*
X225960934Y-77984016D01*
X228212600Y-76684016D01*
X229512600Y-78935682D01*
X227260934Y-80235682D01*
G37*
D20*
X238311140Y-79225200D03*
X228784860Y-84725200D03*
%TD*%
D16*
%TO.C,X1*%
G36*
X205617527Y-97275738D02*
G01*
X204317527Y-95024072D01*
X206569193Y-93724072D01*
X207869193Y-95975738D01*
X205617527Y-97275738D01*
G37*
D17*
X197827000Y-97732149D03*
D18*
X203752000Y-107994550D03*
X198371873Y-108675897D03*
D19*
X200802000Y-102885000D03*
D17*
X203257127Y-97137405D03*
D16*
G36*
X194514934Y-101145482D02*
G01*
X193214934Y-98893816D01*
X195466600Y-97593816D01*
X196766600Y-99845482D01*
X194514934Y-101145482D01*
G37*
D20*
X205565140Y-100135000D03*
X196038860Y-105635000D03*
%TD*%
D16*
%TO.C,B1*%
G36*
X229229527Y-99724738D02*
G01*
X227929527Y-97473072D01*
X230181193Y-96173072D01*
X231481193Y-98424738D01*
X229229527Y-99724738D01*
G37*
D17*
X221439000Y-100181149D03*
D18*
X227364000Y-110443550D03*
X221983873Y-111124897D03*
D19*
X224414000Y-105334000D03*
D17*
X226869127Y-99586405D03*
D16*
G36*
X218126934Y-103594482D02*
G01*
X216826934Y-101342816D01*
X219078600Y-100042816D01*
X220378600Y-102294482D01*
X218126934Y-103594482D01*
G37*
D20*
X229177140Y-102584000D03*
X219650860Y-108084000D03*
%TD*%
%TO.C,TOUCHPAD1*%
X140550000Y-115570000D03*
X151550000Y-115570000D03*
D23*
X142775000Y-109620000D03*
D17*
X151050000Y-111820000D03*
D19*
X146050000Y-115570000D03*
D18*
X141050000Y-119370000D03*
X146050000Y-121470000D03*
D17*
X146050000Y-109620000D03*
D23*
X154325000Y-111820000D03*
%TD*%
D12*
%TO.C,J4*%
X110665000Y-130310000D03*
X110665000Y-127770000D03*
X113205000Y-130310000D03*
X113205000Y-127770000D03*
X115745000Y-130310000D03*
X115745000Y-127770000D03*
X118285000Y-130310000D03*
X118285000Y-127770000D03*
X120825000Y-130310000D03*
X120825000Y-127770000D03*
X123365000Y-130310000D03*
X123365000Y-127770000D03*
X125905000Y-130310000D03*
X125905000Y-127770000D03*
X128445000Y-130310000D03*
X128445000Y-127770000D03*
X130985000Y-130310000D03*
X130985000Y-127770000D03*
X133525000Y-130310000D03*
D13*
X133525000Y-127770000D03*
%TD*%
D12*
%TO.C,J1-2*%
X169260000Y-125160000D03*
X171800000Y-125160000D03*
X174340000Y-125160000D03*
D13*
X176880000Y-125160000D03*
%TD*%
D24*
%TO.C,J2*%
X150780000Y-128350000D03*
X148780000Y-128350000D03*
X146780000Y-128350000D03*
X144780000Y-128350000D03*
D25*
X142780000Y-128350000D03*
%TD*%
D24*
%TO.C,J10*%
X161780000Y-128350000D03*
X159780000Y-128350000D03*
X157780000Y-128350000D03*
D25*
X155780000Y-128350000D03*
%TD*%
D26*
%TO.C,P4*%
X152400000Y-83820000D03*
D27*
X154940000Y-83820000D03*
%TD*%
%TO.C,P3*%
X149860000Y-83820000D03*
D26*
X147320000Y-83820000D03*
%TD*%
%TO.C,P2*%
X142240000Y-83820000D03*
D27*
X144780000Y-83820000D03*
%TD*%
%TO.C,P1*%
X139700000Y-83820000D03*
D26*
X137160000Y-83820000D03*
%TD*%
M02*
